if (_typeface_js && _typeface_js.loadFace) _typeface_js.loadFace({"glyphs":{"0":{"ha":694,"x_min":45,"x_max":650,"o":"m 45 477 q 132 856 45 738 q 365 974 219 974 q 517 929 454 974 q 615 794 581 885 q 650 531 650 704 q 564 106 650 230 q 332 -18 477 -18 q 166 40 233 -18 q 68 206 100 99 q 45 477 45 288 m 163 495 q 220 115 163 218 q 353 31 267 31 q 479 108 436 31 q 532 464 532 205 q 475 840 532 739 q 340 925 427 925 q 210 841 258 925 q 163 495 163 756 z "},"1":{"ha":694,"x_min":45,"x_max":596,"o":"m 115 -5 l 115 39 l 168 41 q 278 67 260 44 q 295 254 296 90 l 300 630 q 296 838 300 819 q 283 850 294 850 q 252 839 277 850 q 94 764 137 788 q 60 746 64 746 q 50 758 51 746 l 45 823 q 408 966 258 887 l 428 958 l 425 881 l 418 490 l 414 222 q 422 95 414 126 q 448 53 430 64 q 534 41 466 43 l 596 39 l 596 -5 q 355 0 426 0 q 115 -5 273 0 z "},"2":{"ha":694,"x_min":28,"x_max":667,"o":"m 28 -5 l 28 33 l 262 277 q 441 502 396 416 q 486 663 486 589 q 434 809 486 754 q 294 864 381 864 q 191 844 237 864 q 144 806 158 829 q 102 680 130 784 l 60 680 q 83 871 81 812 q 193 949 134 925 q 327 974 252 974 q 536 900 458 974 q 614 705 614 825 q 544 500 614 600 q 308 247 473 399 l 177 113 l 425 113 q 661 121 582 113 l 667 115 q 661 60 661 77 q 667 -1 661 47 l 661 -5 q 362 0 526 0 q 28 -5 190 0 z "},"3":{"ha":694,"x_min":19,"x_max":637,"o":"m 43 707 l 80 873 q 182 949 123 924 q 316 974 241 974 q 496 915 430 974 q 563 769 563 856 q 534 660 563 711 q 418 537 506 610 q 508 520 462 537 q 605 449 572 496 q 637 334 637 401 q 520 90 637 197 q 240 -18 403 -18 q 157 -9 198 -18 q 74 17 115 -1 q 19 220 60 99 l 56 235 q 125 106 99 137 q 193 58 151 76 q 294 40 235 40 q 453 103 396 40 q 510 279 510 165 q 462 427 510 374 q 334 479 414 479 q 205 445 273 479 l 196 452 l 209 529 q 262 525 245 525 q 398 576 345 525 q 450 711 450 628 q 405 833 450 787 q 285 879 359 879 q 191 858 236 879 q 124 809 146 836 q 101 754 115 798 l 85 707 l 43 707 z "},"4":{"ha":694,"x_min":2,"x_max":655,"o":"m 215 -5 l 215 35 l 288 39 q 361 51 349 43 q 377 81 373 59 q 385 215 385 117 l 385 250 q 14 243 123 250 l 2 284 q 180 589 112 477 q 396 929 249 702 q 490 966 432 939 l 509 958 q 503 684 504 879 l 503 336 q 655 344 591 336 q 651 299 651 311 q 655 243 651 290 q 503 250 583 250 q 514 64 503 85 q 585 39 525 43 l 655 35 l 655 -5 q 435 0 527 0 q 215 -5 399 0 m 385 820 q 92 336 237 604 q 232 333 170 333 q 385 336 290 333 l 385 820 z "},"5":{"ha":694,"x_min":16,"x_max":640,"o":"m 16 203 l 51 223 l 68 193 q 129 96 114 110 q 189 62 149 76 q 282 49 229 49 q 459 115 395 49 q 522 305 522 181 q 464 476 522 414 q 309 538 405 538 q 209 516 253 538 q 131 448 165 494 l 102 458 q 111 759 111 576 q 102 958 111 873 l 113 965 q 332 956 220 956 q 592 965 467 956 l 600 958 q 594 905 594 924 q 600 850 594 888 l 592 843 q 444 847 515 847 q 172 843 301 847 q 161 561 165 791 q 256 616 211 600 q 360 632 302 632 q 563 557 486 632 q 640 361 640 481 q 519 96 640 210 q 233 -18 398 -18 q 160 -11 191 -18 q 87 20 129 -3 q 67 82 76 59 l 16 203 z "},"6":{"ha":694,"x_min":46,"x_max":649,"o":"m 537 977 l 587 955 l 587 943 q 378 844 466 911 q 242 688 291 777 q 182 474 193 598 l 258 530 q 328 571 296 561 q 404 582 359 582 q 584 513 519 582 q 649 320 649 445 q 557 80 649 179 q 335 -18 465 -18 q 127 79 208 -18 q 46 357 46 176 q 103 629 46 507 q 274 844 159 751 q 537 977 389 937 m 351 501 q 254 475 299 501 q 189 411 209 450 q 174 303 174 382 q 230 94 174 168 q 355 31 277 31 q 477 89 431 31 q 531 275 531 157 q 481 444 531 386 q 351 501 432 501 z "},"7":{"ha":694,"x_min":60,"x_max":692,"o":"m 105 664 l 62 664 q 67 828 67 753 q 60 952 67 895 l 72 964 q 323 957 172 957 q 692 966 568 957 l 692 926 q 231 -3 350 313 q 166 0 186 0 q 100 -5 137 0 l 88 13 q 405 538 182 161 q 576 842 509 714 l 569 848 l 526 848 q 241 843 453 848 q 142 833 154 840 q 124 809 130 827 q 109 703 118 791 l 105 664 z "},"8":{"ha":694,"x_min":35,"x_max":640,"o":"m 222 491 l 222 496 q 111 585 143 543 q 68 719 68 642 q 146 902 68 830 q 353 974 224 974 q 536 918 469 974 q 603 778 603 863 q 567 660 603 713 q 434 546 532 606 l 434 540 q 600 428 559 481 q 640 294 640 374 q 544 74 640 167 q 309 -18 448 -18 q 111 53 187 -18 q 35 231 35 124 q 222 491 35 397 m 382 563 q 476 648 448 601 q 505 755 505 694 q 461 880 505 835 q 341 925 416 925 q 220 883 266 925 q 175 774 175 842 q 213 666 175 710 q 382 563 252 622 m 277 471 q 174 385 204 428 q 132 239 132 322 q 187 87 132 144 q 330 31 242 31 q 477 86 420 31 q 533 231 533 142 q 483 357 533 312 q 277 471 432 403 z "},"9":{"ha":694,"x_min":40,"x_max":654,"o":"m 141 -22 l 95 2 l 95 16 q 313 107 226 45 q 453 259 401 169 q 520 483 505 349 l 450 427 q 373 377 407 390 q 294 364 339 364 q 110 438 180 364 q 40 644 40 513 q 127 883 40 791 q 351 974 215 974 q 573 877 492 974 q 654 592 654 781 q 613 354 654 458 q 488 163 572 250 q 298 26 404 77 q 141 -22 232 -5 m 158 690 q 210 508 158 572 q 345 444 262 444 q 477 499 427 444 q 526 665 526 554 q 472 856 526 787 q 340 925 418 925 q 249 898 290 925 q 183 816 208 871 q 158 690 158 761 z "}," ":{"ha":347,"x_min":0,"x_max":0,"o":""},"!":{"ha":386,"x_min":113,"x_max":273,"o":"m 224 956 l 273 956 l 272 862 q 264 789 271 842 q 221 284 237 555 l 183 249 l 170 255 q 138 627 151 517 q 119 857 119 793 l 120 901 q 224 956 173 926 m 192 140 q 248 117 224 140 q 271 61 271 94 q 248 5 271 28 q 192 -18 224 -18 q 136 5 159 -18 q 113 61 113 28 q 136 117 113 94 q 192 140 159 140 z "},"\"":{"ha":515,"x_min":102,"x_max":414,"o":"m 123 564 l 104 868 q 102 912 102 896 q 115 958 102 942 q 147 974 128 974 q 180 958 167 974 q 193 911 193 943 q 191 868 193 896 l 171 564 q 146 535 169 535 q 123 564 125 535 m 345 564 l 325 868 q 323 912 323 896 q 336 958 323 942 q 368 974 349 974 q 401 958 388 974 q 414 911 414 943 q 412 868 414 896 l 393 564 q 368 535 391 535 q 345 564 347 535 z "},"#":{"ha":842,"x_min":71,"x_max":772,"o":"m 734 395 l 734 302 l 588 302 l 545 0 l 449 0 l 493 302 l 306 302 l 260 0 l 166 0 l 212 302 l 71 302 l 71 395 l 227 395 l 256 581 l 109 581 l 109 675 l 269 675 l 311 956 l 404 956 l 362 675 l 549 675 l 589 956 l 684 956 l 643 675 l 772 675 l 772 581 l 629 581 l 603 395 l 734 395 m 535 581 l 348 581 l 321 395 l 507 395 l 535 581 z "},"$":{"ha":694,"x_min":39,"x_max":657,"o":"m 103 265 l 106 139 q 193 77 147 97 q 311 52 239 57 l 311 437 q 140 474 186 452 q 68 544 94 497 q 42 661 42 591 q 110 854 42 778 q 311 951 178 930 l 308 1043 l 368 1043 q 363 954 363 991 q 490 937 439 949 q 592 898 542 924 l 596 888 q 576 718 584 824 l 536 718 l 526 838 q 458 884 489 872 q 363 903 427 897 l 363 544 q 556 502 511 524 q 629 433 602 480 q 657 317 657 385 q 622 172 657 240 q 528 64 587 104 q 363 5 469 24 q 366 -138 362 -85 l 305 -138 q 311 1 309 -83 q 166 16 220 5 q 39 59 113 28 q 60 265 57 151 l 103 265 m 311 901 q 221 870 254 893 q 168 806 188 847 q 149 710 149 765 q 193 593 149 631 q 311 549 226 564 l 311 901 m 363 55 q 467 94 431 68 q 523 164 502 119 q 545 264 545 210 q 528 346 545 313 q 478 397 511 378 q 363 432 446 415 l 363 55 z "},"%":{"ha":1166,"x_min":150,"x_max":1016,"o":"m 341 546 q 204 604 259 546 q 150 758 150 663 q 212 925 150 859 q 358 991 273 991 q 496 933 441 991 q 551 781 551 876 q 491 611 551 677 q 341 546 431 546 m 347 579 q 425 624 395 579 q 454 778 454 669 q 428 915 454 875 q 356 954 401 954 q 282 914 308 954 q 247 753 247 859 q 274 619 247 659 q 347 579 302 579 m 273 -46 q 317 34 296 -8 l 781 928 q 812 1002 802 969 q 856 998 841 998 l 882 998 q 839 926 856 958 l 366 20 q 335 -46 347 -15 q 304 -44 315 -44 q 273 -46 294 -44 m 806 0 q 669 58 724 0 q 614 212 614 117 q 676 379 614 313 q 823 446 738 446 q 961 388 905 446 q 1016 235 1016 330 q 956 65 1016 131 q 806 0 895 0 m 811 33 q 889 78 859 33 q 919 232 919 123 q 892 369 919 329 q 821 408 866 408 q 747 368 772 408 q 711 208 711 313 q 739 73 711 113 q 811 33 766 33 z "},"&":{"ha":1080,"x_min":68,"x_max":1051,"o":"m 591 492 l 633 554 q 741 550 703 550 l 827 552 q 1036 556 953 555 q 1021 459 1025 498 q 825 475 948 471 q 833 415 833 439 q 807 302 833 360 q 718 178 781 245 q 850 105 787 127 q 963 83 912 83 q 1041 116 989 83 l 1051 83 q 931 -9 966 22 q 876 -18 904 -18 q 633 94 772 -18 q 491 6 555 31 q 351 -18 427 -18 q 147 60 227 -18 q 68 256 68 139 q 126 431 68 355 q 281 554 166 484 q 241 728 241 657 q 258 824 241 783 q 300 879 269 852 q 401 958 380 947 q 472 974 431 974 q 563 939 530 974 q 595 844 595 903 q 397 566 595 705 q 677 210 508 361 q 731 296 716 257 q 745 379 745 336 q 729 458 745 427 q 707 476 722 472 q 595 482 683 483 l 591 492 m 374 613 q 498 810 498 713 q 477 879 498 853 q 425 904 456 904 q 362 874 387 904 q 338 781 338 844 q 374 613 338 712 m 591 130 q 304 504 431 277 q 212 411 239 458 q 186 307 186 364 q 252 137 186 212 q 416 62 317 62 q 591 130 500 62 z "},"'":{"ha":289,"x_min":98,"x_max":189,"o":"m 120 564 l 100 868 q 98 912 98 896 q 112 958 98 942 q 144 974 125 974 q 176 958 163 974 q 189 911 189 943 q 188 868 189 896 l 168 564 q 143 535 165 535 q 120 564 122 535 z "},"(":{"ha":463,"x_min":103,"x_max":437,"o":"m 437 -340 l 403 -374 q 229 -159 289 -260 q 136 64 169 -58 q 103 322 103 186 q 146 611 103 479 q 254 836 189 744 q 408 1010 319 928 l 437 973 q 313 788 358 880 q 244 589 268 697 q 221 338 221 480 q 243 74 221 189 q 305 -129 264 -41 q 437 -340 345 -217 z "},")":{"ha":463,"x_min":26,"x_max":360,"o":"m 26 977 l 60 1010 q 234 797 174 898 q 327 573 294 695 q 360 315 360 450 q 317 26 360 158 q 210 -198 275 -106 q 56 -374 144 -290 l 26 -336 q 150 -152 105 -243 q 218 48 195 -60 q 242 298 242 157 q 220 563 242 448 q 158 766 198 678 q 26 977 117 854 z "},"*":{"ha":541,"x_min":26,"x_max":514,"o":"m 373 491 l 349 490 q 266 675 319 559 l 165 506 l 140 502 q 77 573 111 539 l 80 583 q 234 704 147 632 l 28 738 l 26 747 q 51 840 40 793 l 73 847 q 244 747 165 791 l 225 954 q 322 956 279 954 l 334 935 q 287 744 307 845 l 463 831 l 473 827 q 514 746 492 785 l 503 729 q 298 705 429 722 l 436 569 l 440 557 l 373 491 z "},"+":{"ha":842,"x_min":79,"x_max":762,"o":"m 79 431 l 79 525 l 374 525 l 374 819 l 468 819 l 468 525 l 762 525 l 762 431 l 468 431 l 468 136 l 374 136 l 374 431 l 79 431 z "},",":{"ha":347,"x_min":9,"x_max":290,"o":"m 271 187 l 290 167 q 207 -3 252 73 q 87 -172 161 -79 l 30 -201 l 9 -180 q 96 -16 68 -90 q 133 144 123 58 q 271 187 212 163 z "},"-":{"ha":463,"x_min":29,"x_max":433,"o":"m 38 271 l 29 280 q 64 378 50 332 q 229 374 163 374 q 428 378 283 374 l 433 368 q 400 271 411 317 q 229 277 307 277 q 38 271 142 277 z "},".":{"ha":347,"x_min":94,"x_max":252,"o":"m 174 140 q 229 117 206 140 q 252 61 252 94 q 229 5 252 28 q 174 -18 206 -18 q 117 5 140 -18 q 94 61 94 28 q 117 117 94 94 q 174 140 140 140 z "},"/":{"ha":842,"x_min":50,"x_max":696,"o":"m 50 -297 q 94 -197 75 -244 l 557 919 q 589 1010 578 970 q 657 1005 633 1005 l 696 1006 q 654 916 671 955 l 180 -215 q 150 -297 162 -258 l 100 -294 q 50 -297 83 -294 z "},":":{"ha":347,"x_min":94,"x_max":252,"o":"m 174 637 q 229 614 206 637 q 252 558 252 591 q 229 503 252 526 q 174 479 206 479 q 117 503 140 479 q 94 558 94 526 q 117 614 94 591 q 174 637 140 637 m 174 140 q 229 117 206 140 q 252 61 252 94 q 229 5 252 28 q 174 -18 206 -18 q 117 5 140 -18 q 94 61 94 28 q 117 117 94 94 q 174 140 140 140 z "},";":{"ha":347,"x_min":9,"x_max":290,"o":"m 199 637 q 255 614 232 637 q 278 558 278 591 q 255 503 278 526 q 199 479 232 479 q 143 503 166 479 q 120 558 120 526 q 143 614 120 591 q 199 637 166 637 m 271 187 l 290 167 q 207 -3 252 73 q 87 -172 161 -79 l 30 -201 l 9 -186 q 100 -5 76 -72 q 133 144 124 61 q 271 187 212 163 z "},"<":{"ha":842,"x_min":79,"x_max":762,"o":"m 762 228 l 762 125 l 79 435 l 79 520 l 762 831 l 762 728 l 216 478 l 762 228 z "},"=":{"ha":842,"x_min":79,"x_max":762,"o":"m 79 547 l 79 641 l 762 641 l 762 547 l 79 547 m 79 315 l 79 409 l 762 409 l 762 315 l 79 315 z "},">":{"ha":842,"x_min":79,"x_max":762,"o":"m 79 228 l 625 478 l 79 728 l 79 831 l 762 520 l 762 435 l 79 125 l 79 228 z "},"?":{"ha":616,"x_min":64,"x_max":551,"o":"m 64 762 l 117 924 q 202 961 159 949 q 292 974 246 974 q 481 911 412 974 q 551 749 551 848 q 539 673 551 709 q 502 604 526 636 q 395 497 477 572 q 312 416 327 434 q 277 360 287 386 q 269 323 269 342 q 300 254 269 291 l 271 232 q 223 283 237 258 q 210 342 210 309 q 225 407 210 374 q 301 509 241 439 q 402 644 381 601 q 423 726 423 686 q 375 834 423 790 q 252 879 327 879 q 209 873 231 879 q 163 856 187 867 q 103 749 127 804 l 68 754 l 64 762 m 276 140 q 332 117 309 140 q 355 61 355 94 q 332 5 355 28 q 276 -18 309 -18 q 220 5 243 -18 q 197 61 197 28 q 220 117 197 94 q 276 140 243 140 z "},"@":{"ha":1038,"x_min":47,"x_max":989,"o":"m 917 255 l 986 255 q 903 136 943 176 q 745 22 833 63 q 553 -18 656 -18 q 294 47 412 -18 q 112 224 176 113 q 47 471 47 336 q 113 725 47 608 q 292 908 179 842 q 539 974 406 974 q 849 866 709 974 q 989 576 989 759 q 946 386 989 471 q 821 247 902 301 q 678 193 741 193 q 608 220 637 193 q 570 304 578 248 q 491 224 528 246 q 412 202 454 202 q 282 259 336 202 q 227 402 227 316 q 269 556 227 484 q 381 673 310 629 q 522 718 452 718 q 600 693 570 718 q 644 621 631 669 l 667 705 l 762 705 l 662 330 q 654 279 654 298 q 665 249 654 261 q 693 237 675 237 q 796 281 739 237 q 891 406 853 324 q 930 575 930 488 q 818 814 930 712 q 543 916 706 916 q 321 859 420 916 q 164 700 222 802 q 106 473 106 597 q 164 253 106 351 q 326 97 221 155 q 558 39 431 39 q 695 62 632 39 q 813 133 758 86 q 917 255 869 179 m 614 575 q 591 650 614 624 q 535 676 569 676 q 444 641 491 676 q 359 524 396 605 q 322 371 322 443 q 353 279 322 315 q 423 243 383 243 q 502 277 462 243 q 578 404 543 311 q 614 575 614 497 z "},"A":{"ha":1080,"x_min":26,"x_max":1053,"o":"m 711 321 l 319 321 l 273 212 q 228 79 228 103 q 236 56 228 63 q 279 45 245 50 l 345 38 l 345 -5 q 198 0 279 0 q 26 -5 100 0 l 26 38 l 47 39 q 108 48 94 40 q 138 90 122 57 q 236 301 186 188 l 422 724 q 524 968 497 892 l 570 968 l 913 170 q 960 72 948 88 q 986 48 971 55 q 1053 38 1001 41 l 1053 -5 q 885 0 965 0 q 686 -5 810 0 l 686 38 l 753 42 q 796 50 789 45 q 806 68 806 57 q 786 132 806 81 l 711 321 m 345 376 l 686 376 l 515 785 l 345 376 z "},"B":{"ha":848,"x_min":39,"x_max":797,"o":"m 522 541 q 732 474 668 532 q 797 313 797 416 q 689 90 797 184 q 414 -4 581 -4 l 360 -3 q 245 0 292 0 q 162 -3 212 0 l 106 -5 l 106 26 q 156 57 148 46 q 165 93 163 68 q 170 277 170 174 l 170 699 q 157 891 170 869 q 85 918 142 918 l 39 918 l 39 960 l 95 960 l 157 958 q 234 956 206 956 q 403 959 277 956 l 502 961 q 676 920 618 961 q 749 774 749 869 q 697 639 749 697 q 522 541 646 581 m 297 560 q 359 558 331 558 q 553 606 494 558 q 611 744 611 654 q 562 864 611 822 q 406 905 513 905 q 303 897 359 905 q 297 646 297 814 l 297 560 m 297 64 q 401 54 360 54 q 588 118 522 54 q 654 292 654 182 q 625 413 654 366 q 543 483 595 461 q 375 505 490 505 q 297 503 340 505 l 297 262 l 298 177 q 300 106 300 131 q 297 64 300 88 z "},"C":{"ha":985,"x_min":56,"x_max":959,"o":"m 872 715 l 867 836 q 740 896 806 876 q 602 916 674 916 q 309 804 419 916 q 199 507 199 693 q 255 273 199 376 q 414 111 311 171 q 631 52 517 52 q 811 73 722 52 q 945 138 878 88 l 959 124 q 932 61 945 93 q 773 2 853 22 q 611 -18 692 -18 q 318 46 444 -18 q 123 224 191 111 q 56 481 56 338 q 124 737 56 624 q 318 912 193 850 q 625 974 443 974 q 849 943 721 974 q 953 920 913 928 q 918 715 922 848 l 872 715 z "},"D":{"ha":1075,"x_min":31,"x_max":1023,"o":"m 151 63 q 161 431 161 168 l 161 627 q 153 836 161 748 q 141 895 149 886 q 85 909 133 903 l 31 918 l 31 960 q 181 957 142 957 l 363 958 l 512 961 q 696 943 602 962 q 867 867 790 924 q 983 723 943 810 q 1023 524 1023 637 q 869 144 1023 294 q 466 -5 715 -5 l 382 -3 q 227 1 260 1 q 87 -7 172 1 l 87 26 l 151 63 m 297 66 q 458 53 389 53 q 753 151 648 53 q 880 496 880 269 q 775 798 880 694 q 466 902 669 902 q 297 888 395 902 q 289 740 289 823 l 289 296 q 297 66 289 174 z "},"E":{"ha":848,"x_min":36,"x_max":801,"o":"m 308 456 l 308 290 l 309 194 q 311 63 309 104 q 523 56 410 56 q 650 62 599 56 q 721 80 684 66 q 755 229 738 140 l 801 229 q 783 31 783 81 l 784 1 q 631 -7 706 -7 l 524 -5 q 265 0 348 0 q 54 -5 186 0 l 54 38 l 75 38 q 150 50 134 38 q 170 104 165 61 q 175 292 175 146 l 175 665 q 171 814 175 756 q 161 884 166 873 q 146 901 156 895 q 88 912 137 907 l 36 918 l 36 960 l 109 960 l 181 958 q 273 956 241 956 l 533 959 l 656 960 q 784 954 720 960 q 755 746 758 874 l 709 746 q 702 870 709 821 q 505 900 622 900 q 311 892 412 900 q 309 764 311 828 l 308 660 l 308 522 q 427 518 375 518 q 609 529 588 518 q 631 599 631 541 l 631 643 l 677 643 q 672 479 672 541 q 677 328 672 415 l 631 328 l 631 367 q 605 447 631 432 q 426 461 580 461 q 308 456 369 461 z "},"F":{"ha":772,"x_min":25,"x_max":733,"o":"m 292 456 l 292 223 q 307 61 292 84 q 382 37 321 37 l 431 37 l 431 -5 q 225 0 302 0 q 25 -5 148 0 l 25 37 l 79 37 q 151 60 138 37 q 164 223 164 82 l 164 735 q 150 895 164 873 q 74 918 135 918 l 25 918 l 25 960 q 228 956 138 956 l 618 963 q 733 957 679 963 q 709 751 711 884 l 666 751 q 650 878 662 822 q 462 902 557 902 q 300 893 379 902 q 292 733 292 805 l 292 517 q 372 515 332 515 q 550 521 473 515 q 585 532 576 522 q 600 585 594 542 l 607 636 l 650 636 q 644 477 644 512 l 644 317 l 600 317 l 600 369 q 576 445 600 431 q 395 458 553 458 q 292 456 351 458 z "},"G":{"ha":1060,"x_min":17,"x_max":1018,"o":"m 970 316 q 960 200 960 259 q 970 60 960 138 q 767 3 880 24 q 549 -18 653 -18 q 268 44 389 -18 q 82 219 147 107 q 17 472 17 330 q 87 733 17 618 q 281 910 157 847 q 597 974 406 974 q 741 964 675 974 q 913 923 807 954 l 970 907 q 941 707 952 836 l 899 707 l 899 751 q 888 829 899 818 q 781 883 868 851 q 581 916 693 916 q 275 808 381 916 q 160 500 160 692 q 264 189 160 315 q 597 40 386 40 q 835 88 707 40 q 839 210 839 145 q 836 306 839 293 q 826 322 833 318 q 755 331 819 326 l 675 338 l 675 381 q 906 374 831 374 q 1018 381 971 374 l 1018 347 l 970 316 z "},"H":{"ha":1156,"x_min":31,"x_max":1128,"o":"m 297 474 l 297 285 q 300 170 297 236 q 307 68 304 78 q 327 48 310 58 q 382 38 344 38 l 428 38 l 428 -5 q 258 0 340 0 q 31 -5 178 0 l 31 38 l 73 38 q 157 62 144 38 q 170 283 170 86 l 170 692 q 156 893 170 869 q 81 918 143 918 l 31 918 l 31 960 q 239 956 142 956 q 428 960 336 956 l 428 918 l 399 918 q 321 907 336 918 q 302 874 306 897 q 297 693 297 837 l 297 538 q 604 533 418 533 q 861 538 762 533 l 861 671 q 853 865 861 787 q 835 905 850 893 q 771 918 819 918 l 722 918 l 722 960 q 919 956 826 956 q 1128 960 1019 956 l 1128 918 l 1076 918 q 1009 906 1024 918 q 992 864 995 895 q 989 669 989 833 l 989 294 q 1001 62 989 86 q 1075 38 1013 38 l 1128 38 l 1128 -5 q 935 0 1034 0 q 722 -5 821 0 l 722 38 l 769 38 q 836 50 821 38 q 854 94 850 62 q 861 298 861 164 l 861 474 q 617 479 766 479 q 297 474 406 479 z "},"I":{"ha":468,"x_min":41,"x_max":430,"o":"m 41 38 l 84 38 q 160 68 147 38 q 172 361 172 99 l 172 591 q 161 890 172 862 q 96 918 151 918 l 41 918 l 41 960 q 264 956 154 956 q 430 960 355 956 l 430 918 l 378 918 q 317 906 330 918 q 303 848 305 895 q 300 589 300 775 l 300 355 q 311 65 300 92 q 385 38 323 38 l 430 38 l 430 -5 q 248 0 347 0 q 41 -5 134 0 l 41 38 z "},"J":{"ha":463,"x_min":-16,"x_max":429,"o":"m -16 -269 q -14 -220 -14 -239 l -16 -162 l -1 -155 q 73 -178 35 -178 q 149 -141 127 -178 q 171 57 171 -104 l 171 642 q 158 891 171 865 q 77 918 145 918 l 32 918 l 32 960 q 218 956 105 956 q 429 960 342 956 l 429 918 l 385 915 q 318 903 330 910 q 303 877 307 895 q 299 762 299 859 l 299 178 q 280 -31 299 33 q 172 -201 251 -131 q 21 -272 93 -272 q -16 -269 8 -272 z "},"K":{"ha":1008,"x_min":39,"x_max":1002,"o":"m 427 530 l 890 99 l 932 59 q 958 42 945 46 q 1002 38 971 38 l 1002 -5 q 904 0 946 0 q 808 -5 860 0 l 340 439 q 311 461 317 461 q 297 435 297 461 l 297 228 q 303 62 297 77 q 376 38 313 38 l 427 38 l 427 -5 q 231 0 317 0 q 39 -5 142 0 l 39 38 l 94 38 q 159 58 148 38 q 170 231 170 78 l 170 684 q 159 894 170 871 q 94 918 148 918 l 39 918 l 39 960 q 218 956 163 956 q 427 960 258 956 l 427 918 l 374 916 q 315 903 328 913 q 300 861 303 892 q 297 682 297 830 l 297 498 l 307 498 q 402 582 362 544 q 534 713 442 619 l 726 913 l 726 960 q 850 956 801 956 q 962 960 901 956 l 962 918 l 926 918 q 843 899 877 918 q 686 768 809 880 l 427 530 z "},"L":{"ha":848,"x_min":35,"x_max":819,"o":"m 301 62 q 431 58 368 58 q 630 65 558 58 q 734 85 680 71 l 774 244 l 819 244 q 792 5 802 116 q 625 -5 731 -5 l 302 0 q 100 -7 237 0 l 100 28 q 164 79 154 52 q 174 294 174 106 l 174 667 q 164 894 174 871 q 109 918 154 918 l 35 918 l 35 960 q 249 956 196 956 q 440 960 319 956 l 440 918 l 356 918 q 311 897 320 918 q 301 725 301 876 l 301 293 l 303 102 l 301 62 z "},"M":{"ha":1314,"x_min":32,"x_max":1284,"o":"m 1026 814 l 825 395 q 639 -18 711 159 l 612 -18 q 468 292 587 43 l 225 795 l 225 271 q 240 63 225 87 q 330 38 254 38 l 355 38 l 355 -5 q 202 0 261 0 q 32 -5 159 0 l 32 38 l 76 38 q 136 51 121 38 q 154 98 151 64 q 163 302 163 193 l 163 686 q 157 870 163 825 q 137 905 154 893 q 68 918 119 918 l 32 918 l 32 960 q 180 956 150 956 q 290 960 219 956 q 479 558 372 778 l 658 191 l 823 531 q 1021 960 909 709 q 1140 956 1105 956 q 1284 960 1180 956 l 1284 918 l 1240 918 q 1167 897 1181 918 q 1154 748 1154 876 l 1154 252 q 1168 62 1154 87 q 1246 38 1182 38 l 1284 38 l 1284 -5 q 1104 0 1190 0 q 905 -5 1009 0 l 905 38 l 950 38 q 1015 61 1004 38 q 1026 262 1026 85 l 1026 814 z "},"N":{"ha":1154,"x_min":31,"x_max":1125,"o":"m 224 807 l 224 338 q 230 115 224 178 q 246 57 235 67 q 311 41 257 46 l 354 38 l 354 -5 q 220 0 280 0 q 31 -5 179 0 l 31 38 l 79 38 q 137 50 123 38 q 154 98 151 62 q 161 301 161 173 l 161 638 q 159 826 161 733 q 149 880 158 865 q 122 906 140 895 q 73 918 104 918 l 31 918 l 31 960 q 162 956 117 956 q 269 960 211 956 q 396 801 336 878 q 519 644 455 723 l 751 359 q 932 146 876 206 l 932 582 q 922 881 932 855 q 844 913 912 906 l 793 918 l 793 960 q 962 956 902 956 q 1125 960 1025 956 l 1125 918 l 1073 918 q 1000 876 1010 918 q 994 578 994 848 l 994 273 q 1005 -22 994 149 q 898 -2 913 -8 q 869 20 883 5 q 711 205 794 103 l 224 807 z "},"O":{"ha":1092,"x_min":32,"x_max":1060,"o":"m 32 478 q 176 838 32 701 q 559 974 319 974 q 927 847 793 974 q 1060 511 1060 721 q 905 134 1060 286 q 515 -18 751 -18 q 262 41 368 -18 q 94 216 155 101 q 32 478 32 330 m 170 534 q 222 267 170 380 q 363 97 275 153 q 564 40 451 40 q 748 88 669 40 q 872 232 827 136 q 917 465 917 328 q 867 710 917 608 q 730 864 817 812 q 525 916 644 916 q 338 870 416 916 q 214 737 259 825 q 170 534 170 649 z "},"P":{"ha":839,"x_min":31,"x_max":822,"o":"m 302 886 q 297 678 297 789 l 297 291 q 309 62 297 87 q 389 38 321 38 l 436 38 l 436 -5 q 247 0 316 0 q 31 -5 186 0 l 31 38 l 92 38 q 146 48 134 38 q 162 91 159 59 q 170 288 165 123 l 170 650 l 168 791 q 149 898 166 878 q 64 918 132 918 l 31 918 l 31 960 q 245 957 115 957 q 416 961 322 957 q 509 964 477 964 q 748 904 673 964 q 822 743 822 844 q 779 601 822 669 q 658 491 736 532 q 491 450 580 450 q 389 463 450 450 l 376 514 q 475 498 435 498 q 624 555 569 498 q 679 710 679 612 q 620 858 679 805 q 446 911 562 911 q 302 886 380 911 z "},"Q":{"ha":1092,"x_min":32,"x_max":1060,"o":"m 560 -18 q 722 -73 638 -38 q 976 -144 898 -144 q 1056 -131 1002 -144 l 1056 -166 q 943 -241 980 -205 q 837 -221 884 -233 q 692 -172 789 -208 q 477 -114 532 -114 q 445 -121 462 -114 q 358 -166 427 -127 l 358 -121 q 524 -18 474 -43 q 262 43 371 -18 q 93 216 154 104 q 32 480 32 329 q 176 838 32 701 q 559 974 319 974 q 927 847 793 974 q 1060 511 1060 721 q 982 228 1060 349 q 777 41 903 106 q 560 -18 686 -6 m 175 535 q 227 269 175 382 q 367 99 279 156 q 567 43 454 43 q 749 91 671 43 q 872 234 827 139 q 917 466 917 329 q 867 711 917 610 q 732 864 818 813 q 528 916 646 916 q 342 870 420 916 q 219 737 264 825 q 175 535 175 650 z "},"R":{"ha":928,"x_min":40,"x_max":918,"o":"m 535 485 q 700 262 602 389 l 830 94 q 876 44 865 50 q 900 38 888 38 l 918 38 l 918 -5 q 819 0 861 0 q 738 -5 781 0 l 498 319 q 354 494 431 409 l 361 517 q 419 514 400 514 q 596 572 532 514 q 661 728 661 631 q 606 865 661 816 q 450 914 552 914 q 307 888 378 914 q 298 657 298 780 l 298 330 q 310 64 298 90 q 385 38 321 38 l 437 38 l 437 -5 q 251 0 325 0 q 40 -5 193 0 l 40 38 l 91 38 q 160 63 149 38 q 171 331 171 89 l 171 657 q 158 892 171 867 q 77 918 146 918 l 40 918 l 40 961 q 233 956 166 956 q 361 959 277 956 q 502 962 459 962 q 680 938 619 962 q 772 866 741 913 q 804 754 804 819 q 735 585 804 659 q 535 485 666 512 z "},"S":{"ha":729,"x_min":18,"x_max":710,"o":"m 651 915 q 631 728 632 844 l 584 728 l 584 782 q 570 854 584 835 q 495 894 555 873 q 369 916 435 916 q 198 861 260 916 q 136 720 136 806 q 162 626 136 665 q 230 570 187 587 q 413 540 273 553 q 602 504 553 526 q 681 432 651 481 q 710 315 710 382 q 596 80 710 178 q 292 -18 482 -18 q 161 -5 227 -18 q 28 34 95 8 q 39 243 40 115 l 85 243 l 85 209 q 92 127 85 143 q 124 94 99 112 q 213 54 161 68 q 324 40 264 40 q 522 100 452 40 q 592 254 592 161 q 568 346 592 308 q 502 401 545 383 q 344 429 459 420 q 136 466 191 441 q 50 543 81 490 q 18 673 18 595 q 114 890 18 806 q 378 974 210 974 q 514 959 446 974 q 651 915 583 945 z "},"T":{"ha":851,"x_min":23,"x_max":829,"o":"m 498 899 q 490 684 490 797 l 490 298 q 501 60 490 82 q 578 38 512 38 l 629 38 l 629 -5 q 426 0 509 0 q 224 -5 342 0 l 224 38 l 281 38 q 339 50 326 38 q 356 96 353 62 q 363 301 363 176 l 363 688 q 358 899 363 803 l 289 899 q 104 891 121 899 q 82 830 87 883 l 73 739 l 30 739 l 31 820 q 23 960 31 869 q 454 956 389 956 l 829 960 q 814 739 816 846 l 772 739 l 765 828 q 753 883 761 874 q 720 893 746 891 q 551 899 646 899 l 498 899 z "},"U":{"ha":1080,"x_min":26,"x_max":1051,"o":"m 26 918 l 26 960 q 229 956 165 956 q 424 960 295 956 l 424 918 l 374 918 q 298 893 311 918 q 285 672 285 869 l 285 406 q 301 203 285 260 q 383 107 317 146 q 561 68 450 68 q 754 110 675 68 q 833 200 808 139 q 859 433 859 262 l 859 689 q 843 892 859 867 q 755 918 827 918 l 720 918 l 720 960 q 898 956 860 956 q 1051 960 960 956 l 1051 918 l 1005 918 q 936 889 951 918 q 921 686 921 860 l 921 432 q 904 197 921 258 q 841 87 886 136 q 719 10 795 39 q 539 -18 642 -18 q 353 7 433 -18 q 232 70 273 33 q 174 161 192 107 q 156 345 156 215 l 157 473 l 157 680 q 146 895 157 871 q 75 918 135 918 l 26 918 z "},"V":{"ha":1003,"x_min":17,"x_max":986,"o":"m 469 -16 q 407 155 439 75 l 164 762 q 103 905 112 893 q 45 918 94 918 l 17 918 l 17 960 q 198 956 123 956 q 387 960 277 956 l 387 911 l 319 911 q 275 905 285 911 q 264 885 264 899 q 268 865 264 876 l 356 633 l 539 165 l 718 611 q 808 877 808 838 q 770 909 808 908 l 743 911 l 684 918 l 684 960 q 833 956 774 956 q 986 960 894 956 l 986 918 l 959 918 q 912 902 926 918 q 859 794 897 887 l 631 236 q 539 -16 566 79 l 469 -16 z "},"W":{"ha":1389,"x_min":14,"x_max":1375,"o":"m 397 201 l 554 589 q 699 969 594 689 l 742 969 q 850 652 782 844 l 1013 192 l 1137 621 q 1198 859 1155 683 q 1202 884 1202 874 q 1192 903 1202 897 q 1142 913 1182 909 l 1080 918 l 1080 960 q 1230 956 1176 956 q 1375 960 1289 956 l 1375 918 l 1339 918 q 1305 907 1316 918 q 1202 622 1283 884 q 1023 -16 1094 272 l 952 -16 q 932 52 940 30 q 793 437 902 140 l 682 743 l 555 435 q 387 -16 441 160 l 318 -16 l 282 151 q 248 309 267 225 l 130 816 q 99 904 113 890 q 43 918 85 918 l 14 918 l 14 960 q 182 956 111 956 q 367 960 250 956 l 367 918 l 324 918 q 264 909 278 918 q 250 883 250 901 q 254 858 250 872 l 300 633 l 397 201 z "},"X":{"ha":926,"x_min":22,"x_max":905,"o":"m 410 479 l 308 648 q 152 867 212 810 q 82 899 119 899 q 39 895 69 899 l 39 938 l 239 970 q 295 912 272 943 q 378 783 319 882 l 493 587 l 747 960 l 888 960 l 888 918 l 861 918 q 818 908 833 918 q 726 801 803 899 q 524 533 581 615 l 747 175 q 830 52 814 66 q 876 38 846 38 l 905 38 l 905 -5 q 785 0 826 0 q 701 -5 743 0 l 446 423 q 295 203 391 351 q 168 -5 199 55 q 104 0 135 0 q 22 -5 66 0 l 22 38 l 53 38 q 98 54 81 38 q 247 253 116 71 l 410 479 z "},"Y":{"ha":926,"x_min":9,"x_max":895,"o":"m 504 473 q 635 690 545 535 l 790 960 l 895 960 l 895 943 q 692 663 812 850 q 549 412 572 475 q 541 297 541 389 q 547 102 541 174 q 561 56 551 64 q 630 43 570 48 l 682 37 l 682 -5 q 497 0 564 0 l 279 -5 l 279 37 l 336 37 q 406 61 394 37 q 417 275 417 85 q 414 397 417 331 q 252 675 326 557 q 127 846 178 792 q 79 886 100 876 q 9 895 58 895 l 9 937 q 119 959 37 943 l 172 970 q 222 941 203 958 q 326 795 256 909 q 504 473 380 707 z "},"Z":{"ha":926,"x_min":31,"x_max":876,"o":"m 214 58 l 509 58 q 749 63 692 58 q 797 83 782 66 q 818 161 811 99 l 826 239 l 876 239 q 863 33 863 132 l 863 -5 q 736 -7 781 -7 q 574 -3 699 -7 q 324 0 440 0 q 31 -5 134 0 l 31 35 q 203 249 103 116 l 510 656 q 688 896 635 821 q 517 900 589 900 q 256 890 395 900 q 184 876 195 886 q 169 814 173 865 l 162 734 l 118 734 q 122 849 122 808 q 118 961 122 889 l 202 962 l 733 956 q 876 961 819 956 l 876 920 q 768 791 808 842 l 551 506 l 214 58 z "},"[":{"ha":463,"x_min":126,"x_max":413,"o":"m 134 -297 l 126 -288 q 132 -58 129 -234 l 136 324 q 126 1002 136 845 l 134 1010 q 256 1005 205 1005 q 376 1009 333 1005 l 393 1010 q 410 1006 407 1010 q 413 977 413 1002 q 408 959 413 962 q 366 955 405 956 q 274 943 287 951 q 257 920 262 935 q 249 715 252 905 q 245 356 245 524 q 249 -5 245 183 q 257 -207 252 -193 q 276 -231 262 -222 q 366 -241 291 -240 q 408 -245 403 -242 q 413 -264 413 -248 l 413 -279 q 397 -296 413 -296 l 376 -295 q 260 -292 316 -292 q 134 -297 200 -292 z "},"\\":{"ha":842,"x_min":50,"x_max":696,"o":"m 696 -297 l 644 -294 q 595 -297 634 -294 q 566 -215 582 -254 l 92 916 q 50 1006 73 962 l 105 1006 q 156 1010 115 1006 q 188 919 169 965 l 652 -197 q 696 -297 675 -252 z "},"]":{"ha":463,"x_min":50,"x_max":336,"o":"m 328 1010 l 336 1002 q 332 881 333 926 q 326 389 326 560 l 333 -184 q 336 -288 334 -234 l 328 -297 q 211 -292 262 -292 q 86 -295 125 -292 l 70 -296 q 53 -292 56 -296 q 50 -264 50 -288 q 53 -246 50 -249 q 116 -241 57 -243 q 190 -229 178 -237 q 206 -205 201 -221 q 214 0 210 -189 q 217 361 217 189 q 214 723 217 539 q 205 921 210 906 q 186 944 201 935 q 97 955 172 954 q 54 959 58 956 q 50 993 50 963 q 66 1010 50 1010 l 86 1009 q 202 1005 154 1005 q 328 1010 260 1005 z "},"^":{"ha":842,"x_min":71,"x_max":769,"o":"m 152 452 l 71 452 l 382 1015 l 459 1015 l 769 452 l 688 452 l 420 923 l 152 452 z "},"_":{"ha":694,"x_min":-8,"x_max":703,"o":"m -8 -104 l 703 -104 l 703 -174 l -8 -174 l -8 -104 z "},"`":{"ha":463,"x_min":60,"x_max":365,"o":"m 319 704 l 137 813 q 71 861 85 844 q 60 890 60 874 q 72 920 60 908 q 105 932 84 932 q 129 926 118 932 q 165 896 140 920 l 365 704 l 319 704 z "},"a":{"ha":694,"x_min":46,"x_max":664,"o":"m 97 467 l 98 513 l 97 559 l 171 602 q 259 641 221 630 q 339 652 296 652 q 490 610 433 652 q 559 503 547 568 q 569 260 567 454 q 577 59 570 78 q 611 40 584 40 l 664 40 l 664 -5 q 556 0 587 0 q 454 -5 518 0 l 455 56 q 454 115 455 85 l 314 7 q 277 -13 295 -7 q 226 -18 258 -18 q 92 25 138 -18 q 46 140 46 68 q 79 260 46 209 q 173 336 112 311 q 454 399 233 360 q 416 528 453 486 q 285 582 370 582 q 224 574 252 582 q 171 549 195 566 q 135 457 151 501 l 97 467 m 454 359 q 215 283 266 319 q 164 173 164 248 q 193 93 164 123 q 269 62 222 62 q 366 91 319 62 q 454 176 412 119 l 453 326 l 454 359 z "},"b":{"ha":768,"x_min":9,"x_max":734,"o":"m 9 921 l 9 959 q 132 979 68 965 q 224 1006 175 987 q 237 1010 231 1010 q 251 984 251 1010 l 248 950 q 242 892 243 911 q 240 654 240 805 l 240 510 l 323 593 q 392 635 349 619 q 484 651 435 651 q 664 576 593 651 q 734 376 734 500 q 710 242 734 307 q 650 138 685 178 q 559 65 633 119 q 463 1 485 11 q 366 -18 422 -18 q 275 -5 315 -18 q 191 42 235 9 l 136 -8 l 113 1 q 126 220 126 105 l 126 651 q 120 855 126 751 q 109 912 117 903 q 68 921 100 921 l 9 921 m 240 216 q 245 132 240 143 q 304 81 256 110 q 409 52 352 52 q 562 131 508 52 q 616 323 616 210 q 564 504 616 441 q 422 566 511 566 q 314 532 363 566 q 247 452 265 498 q 240 371 240 435 l 240 216 z "},"c":{"ha":616,"x_min":31,"x_max":568,"o":"m 549 92 l 568 75 l 540 32 q 445 -6 494 7 q 345 -18 396 -18 q 176 20 245 -18 q 68 130 106 58 q 31 300 31 201 q 60 453 31 388 q 141 554 89 517 q 273 626 194 591 q 397 651 328 651 q 487 643 449 651 q 568 612 524 634 q 549 433 551 523 l 507 433 l 507 467 q 494 529 507 511 q 437 564 481 547 q 339 582 392 582 q 198 526 248 582 q 149 359 149 470 q 222 130 149 216 q 391 52 288 52 q 471 62 432 52 q 549 92 511 72 z "},"d":{"ha":848,"x_min":61,"x_max":804,"o":"m 579 610 l 579 855 q 570 909 579 898 q 526 920 560 920 l 468 920 l 468 960 q 693 1010 589 968 l 705 1002 q 697 836 701 933 l 694 655 l 693 597 l 693 192 q 700 66 693 79 q 756 41 710 47 l 804 35 l 804 -5 q 657 1 721 1 q 572 -5 646 1 q 579 126 576 41 q 432 1 522 81 q 330 -18 374 -18 q 138 68 216 -18 q 61 298 61 154 q 91 452 61 389 q 162 545 121 516 q 291 618 203 574 q 415 651 358 651 q 495 641 454 651 q 579 610 536 631 m 579 493 q 482 568 532 543 q 376 593 431 593 q 233 529 288 593 q 179 339 179 464 q 241 140 179 212 q 392 68 303 68 q 492 98 446 68 q 558 176 537 128 q 579 328 579 224 l 579 493 z "},"e":{"ha":665,"x_min":39,"x_max":625,"o":"m 168 323 q 236 121 171 190 q 407 52 301 52 q 501 67 454 52 q 594 114 548 83 l 606 104 l 584 47 q 468 -2 528 14 q 345 -18 408 -18 q 123 69 208 -18 q 39 305 39 156 q 86 503 39 419 q 201 604 117 557 q 365 651 286 651 q 555 581 485 651 q 625 383 625 510 l 624 343 q 538 329 579 332 q 337 323 466 323 l 168 323 m 170 374 q 401 370 275 370 q 500 374 452 370 l 500 412 q 476 526 500 472 q 424 581 461 559 q 338 603 387 603 q 216 547 262 603 q 170 374 171 492 z "},"f":{"ha":463,"x_min":16,"x_max":464,"o":"m 250 533 l 250 269 q 261 57 250 79 q 330 35 273 35 l 389 35 l 389 -5 q 230 1 278 1 l 16 -5 l 16 35 l 61 35 q 123 56 114 35 q 136 269 136 84 l 136 533 l 39 526 l 39 555 q 136 605 87 578 l 136 691 q 154 798 136 757 q 227 896 172 840 q 338 994 298 971 q 405 1010 365 1010 q 464 1001 431 1010 q 462 945 462 966 q 464 888 462 924 l 447 880 q 355 916 407 916 q 274 877 298 916 q 250 688 250 838 l 250 598 q 430 605 360 599 l 435 598 l 424 533 l 340 535 q 250 533 310 535 z "},"g":{"ha":772,"x_min":57,"x_max":768,"o":"m 607 525 q 623 454 623 481 q 586 337 623 393 q 481 247 549 281 q 335 213 414 213 l 303 214 q 247 164 258 180 q 235 132 235 148 q 261 92 235 106 q 369 77 288 77 q 458 79 400 77 q 579 82 542 82 q 661 65 633 82 q 710 4 690 47 q 730 -93 730 -39 q 684 -238 730 -169 q 550 -350 638 -308 q 347 -392 462 -392 q 132 -331 208 -392 q 57 -182 57 -271 q 96 -71 57 -127 q 215 -3 167 -37 q 143 30 159 15 q 127 69 127 45 q 143 125 127 98 q 188 167 152 142 l 254 214 q 136 271 172 234 q 89 399 89 321 q 124 524 89 468 q 228 613 159 581 q 397 654 315 654 q 487 641 448 654 q 567 595 526 627 l 624 595 q 761 600 712 595 l 768 586 q 732 525 748 557 l 607 525 m 504 418 q 460 554 504 503 q 351 606 417 606 q 247 564 286 606 q 207 447 207 522 q 250 306 207 357 q 358 254 293 254 q 464 297 423 254 q 504 418 504 340 m 319 -14 q 254 -25 271 -14 q 184 -84 197 -62 q 164 -173 164 -119 q 219 -295 164 -247 q 372 -343 274 -343 q 504 -315 447 -343 q 592 -239 561 -288 q 624 -139 624 -191 q 602 -62 624 -95 q 549 -19 580 -28 q 478 -14 534 -14 l 319 -14 z "},"h":{"ha":808,"x_min":21,"x_max":802,"o":"m 246 522 l 335 600 q 396 640 366 629 q 469 651 427 651 q 600 621 545 651 q 676 544 655 591 q 698 383 698 496 l 694 182 q 699 75 694 115 q 710 51 701 59 q 750 40 720 43 l 802 35 l 802 -5 q 673 0 736 0 q 567 -5 620 0 q 579 330 579 165 q 565 480 579 441 q 515 543 551 519 q 425 566 479 566 q 322 539 368 566 q 258 477 276 512 q 246 357 246 452 l 246 239 q 254 61 246 78 q 308 40 261 44 l 367 35 l 367 -5 q 197 0 261 0 q 21 -5 130 0 l 21 35 l 64 40 q 114 51 104 45 q 127 81 124 58 q 132 245 132 117 l 132 703 q 123 905 132 884 q 68 920 117 920 l 21 920 l 21 962 q 189 992 126 972 l 245 1011 q 256 997 256 1011 l 254 969 l 250 847 q 246 704 246 755 l 246 522 z "},"i":{"ha":404,"x_min":35,"x_max":376,"o":"m 203 954 q 256 931 234 954 q 279 877 279 909 q 256 823 279 845 q 203 800 234 800 q 149 823 171 800 q 126 877 126 845 q 149 931 126 909 q 203 954 171 954 m 257 654 l 273 644 q 267 532 269 593 q 262 239 262 334 q 269 89 262 151 q 281 55 271 64 q 330 41 292 45 l 376 35 l 376 -5 q 196 0 277 0 q 35 -5 116 0 l 35 35 l 93 41 q 135 53 127 43 q 144 119 142 63 q 148 356 148 205 q 144 518 148 461 q 133 548 143 539 q 85 557 122 557 l 35 557 l 35 597 q 156 619 117 609 q 257 654 195 629 z "},"j":{"ha":325,"x_min":-58,"x_max":237,"o":"m 161 954 q 215 931 193 954 q 237 877 237 909 q 215 823 237 845 q 161 800 193 800 q 106 823 129 800 q 83 877 83 845 q 106 931 83 909 q 161 954 129 954 m -4 559 l -4 598 q 165 633 90 608 l 225 654 q 236 641 236 654 l 235 627 q 229 528 233 616 q 221 231 221 350 l 222 56 q 192 -210 222 -123 q 100 -344 161 -296 q -23 -391 39 -391 l -44 -391 l -58 -343 q -24 -347 -36 -347 q 30 -332 9 -347 q 80 -260 62 -309 q 103 -43 98 -212 q 108 319 108 125 q 100 541 108 522 q 45 559 93 559 l -4 559 z "},"k":{"ha":772,"x_min":24,"x_max":763,"o":"m 258 335 l 258 249 q 270 56 258 78 q 338 35 281 35 l 379 35 l 379 -5 l 342 -3 q 214 0 245 0 l 33 -5 l 33 35 l 73 35 q 135 54 125 35 q 144 248 144 74 l 144 652 q 134 903 144 876 q 81 920 128 920 l 24 920 l 24 960 q 186 988 81 960 l 255 1010 q 266 996 266 1010 l 262 928 q 258 645 261 903 l 258 373 l 267 368 q 372 451 329 414 q 474 546 395 470 l 572 637 l 709 637 l 709 598 l 684 598 q 623 576 661 598 q 379 391 549 532 q 536 232 507 258 q 699 85 671 107 q 728 65 716 71 q 763 58 741 60 l 763 28 q 633 -16 704 1 q 444 166 593 17 q 267 335 335 275 l 258 335 z "},"l":{"ha":404,"x_min":33,"x_max":370,"o":"m 270 1002 q 258 643 258 804 l 258 294 q 267 59 258 87 q 312 41 272 45 l 370 35 l 370 -5 q 229 0 296 0 q 33 -5 154 0 l 33 35 l 92 39 q 136 59 130 43 q 144 300 144 85 l 144 646 l 144 777 l 142 865 q 134 906 142 899 q 89 917 123 917 l 33 917 l 33 958 q 258 1010 174 970 l 270 1002 z "},"m":{"ha":1226,"x_min":31,"x_max":1219,"o":"m 261 529 l 352 610 q 398 638 374 630 q 468 650 433 650 q 591 623 545 650 q 676 524 637 595 l 764 604 q 819 635 786 625 q 901 650 861 650 q 1012 622 962 650 q 1085 548 1061 593 q 1109 425 1109 503 l 1107 159 q 1118 55 1107 71 q 1170 37 1128 39 l 1219 35 l 1219 -5 l 1187 -3 q 1080 1 1108 1 q 981 -5 1038 1 q 990 286 990 119 q 978 470 990 426 q 931 539 966 514 q 844 564 897 564 q 743 533 785 564 q 691 457 701 501 q 684 218 684 429 q 686 77 684 94 q 697 53 688 60 q 756 40 707 45 l 802 35 l 802 -5 q 625 1 682 1 q 452 -5 581 1 l 452 35 l 497 35 q 550 46 538 35 q 564 100 562 58 q 570 332 570 212 q 555 481 570 440 q 506 546 541 522 q 422 570 471 570 q 327 541 370 570 q 269 470 284 511 q 258 309 258 441 q 261 94 258 163 q 271 54 262 62 q 330 40 280 45 l 376 35 l 376 -5 q 216 0 292 0 q 31 -5 131 0 l 31 35 l 82 35 q 135 58 126 35 q 144 313 144 81 q 142 513 144 482 q 130 551 140 543 q 73 559 121 559 l 31 559 l 31 597 q 202 634 130 610 l 252 653 q 264 637 264 653 l 262 612 q 261 529 260 575 z "},"n":{"ha":808,"x_min":17,"x_max":806,"o":"m 245 522 l 348 612 q 387 636 366 629 q 476 651 431 651 q 602 622 549 651 q 677 545 654 592 q 701 397 701 498 l 697 184 q 707 56 697 73 q 757 35 720 35 l 806 35 l 806 -5 q 680 0 733 0 q 570 -5 629 0 q 583 353 583 127 q 567 481 583 444 q 513 543 551 519 q 422 566 475 566 q 311 532 357 566 q 254 459 265 499 q 248 321 248 433 q 250 90 248 197 q 259 50 250 58 q 315 35 276 35 l 363 35 l 363 -5 q 180 0 248 0 q 17 -5 109 0 l 17 35 l 66 35 q 124 58 116 35 q 133 340 133 81 q 130 522 133 456 q 119 551 129 543 q 66 559 110 559 l 17 559 l 17 598 q 121 616 75 605 q 225 652 168 628 q 237 654 231 654 q 248 639 248 654 l 247 613 l 245 522 z "},"o":{"ha":758,"x_min":49,"x_max":710,"o":"m 49 321 q 92 490 49 414 q 214 608 136 566 q 392 651 292 651 q 623 566 536 651 q 710 338 710 480 q 597 71 710 170 q 355 -18 496 -18 q 134 73 219 -18 q 49 321 49 164 m 176 369 q 234 130 176 229 q 399 31 291 31 q 531 93 481 31 q 582 282 582 155 q 552 459 582 385 q 473 569 522 534 q 364 603 425 603 q 268 576 311 603 q 204 503 224 549 q 176 369 176 441 z "},"p":{"ha":835,"x_min":28,"x_max":782,"o":"m 262 514 l 357 598 q 418 638 393 630 q 512 651 458 651 q 707 576 633 651 q 782 384 782 502 q 765 268 782 325 q 724 174 748 210 q 669 113 699 138 q 586 60 659 105 l 559 40 q 476 -7 507 4 q 404 -18 444 -18 q 336 -9 372 -18 q 262 18 301 0 l 262 -78 q 267 -286 262 -225 q 283 -324 269 -312 q 347 -336 298 -336 l 383 -336 l 383 -374 q 195 -370 255 -370 q 28 -374 130 -370 l 28 -336 l 77 -336 q 139 -313 130 -336 q 149 -75 149 -291 l 149 342 q 143 509 149 450 q 130 547 140 538 q 81 556 119 556 l 28 556 l 28 598 q 213 637 122 608 l 254 653 q 265 634 265 653 l 263 562 l 262 514 m 262 141 q 349 72 306 92 q 443 52 393 52 q 607 132 550 52 q 664 324 664 213 q 638 452 664 399 q 562 535 612 505 q 454 566 511 566 q 374 549 413 566 q 306 504 335 533 q 269 451 277 475 q 262 354 262 433 l 262 141 z "},"q":{"ha":778,"x_min":40,"x_max":772,"o":"m 588 604 l 659 649 l 684 634 q 659 528 663 572 q 651 300 651 460 l 651 -76 q 664 -309 651 -283 q 741 -335 677 -335 l 772 -335 l 772 -374 l 665 -371 l 581 -370 q 416 -374 549 -370 l 416 -335 l 453 -335 q 526 -311 515 -335 q 537 -72 537 -287 l 537 87 q 378 -11 456 40 q 343 -16 359 -14 q 313 -18 327 -18 q 118 66 195 -18 q 40 290 40 150 q 68 446 40 382 q 150 547 97 509 q 275 618 163 557 q 410 651 334 651 q 499 639 454 651 q 588 604 543 627 m 532 524 q 451 578 490 562 q 363 593 411 593 q 215 526 271 593 q 158 335 158 459 q 218 135 158 207 q 363 62 278 62 q 451 84 408 62 q 537 159 493 106 l 537 288 q 532 524 535 484 z "},"r":{"ha":549,"x_min":22,"x_max":522,"o":"m 258 498 q 317 566 285 524 q 387 633 355 615 q 456 652 420 652 q 513 643 493 652 q 522 630 522 639 l 522 623 q 510 469 511 568 l 479 469 q 443 518 464 504 q 391 532 421 532 q 317 505 351 532 q 271 429 283 478 q 260 237 260 380 q 267 79 260 143 q 281 49 270 55 q 357 35 307 35 l 397 35 l 397 -5 q 201 0 294 0 q 22 -5 111 0 l 22 35 l 87 40 q 131 53 122 43 q 143 119 140 63 q 148 351 148 216 q 135 543 148 514 q 79 561 126 561 l 22 561 l 22 600 q 140 620 88 608 q 231 650 191 631 q 247 654 241 654 q 257 650 254 654 q 260 632 260 646 l 258 498 z "},"s":{"ha":589,"x_min":49,"x_max":542,"o":"m 103 203 l 103 159 q 113 93 103 106 q 181 51 130 71 q 287 31 233 31 q 401 68 357 31 q 445 158 445 106 q 419 224 445 199 q 321 264 393 250 q 142 312 186 292 q 77 366 99 332 q 56 448 56 400 q 121 595 56 538 q 307 651 186 651 q 496 613 401 651 q 487 458 490 567 l 447 458 q 434 537 446 518 q 377 583 418 562 q 289 603 336 603 q 190 571 227 603 q 153 492 153 540 q 182 424 153 447 q 344 374 212 400 q 473 337 441 354 q 523 286 504 320 q 542 206 542 251 q 464 48 542 115 q 254 -18 385 -18 q 67 8 171 -18 q 49 22 49 13 l 51 32 q 56 68 54 42 q 62 170 62 134 l 61 203 l 103 203 z "},"t":{"ha":453,"x_min":30,"x_max":441,"o":"m 252 528 l 252 262 q 258 130 252 159 q 286 84 265 100 q 338 68 307 68 q 377 76 358 68 q 414 99 395 83 l 433 75 l 368 -3 q 326 -14 346 -10 q 286 -18 305 -18 q 201 0 236 -18 q 151 46 167 18 q 136 134 136 75 l 138 264 l 138 522 q 30 517 85 522 l 30 547 q 138 593 88 569 q 132 804 137 690 q 245 857 211 837 l 263 844 q 252 593 258 791 q 387 595 334 593 l 441 598 l 433 528 l 406 529 l 275 528 l 252 528 z "},"u":{"ha":838,"x_min":28,"x_max":802,"o":"m 570 -5 l 578 117 l 538 74 q 443 2 491 23 q 323 -18 394 -18 q 218 7 262 -18 q 154 74 174 33 q 134 204 134 115 q 136 311 134 250 l 138 420 q 131 548 138 535 q 88 561 125 561 l 28 561 l 28 598 q 198 632 120 606 l 254 653 q 266 636 266 653 l 261 567 q 252 300 252 423 q 262 142 252 176 q 304 85 272 108 q 384 62 337 62 q 499 103 447 62 q 568 185 552 144 q 577 328 577 209 q 570 547 577 529 q 509 561 563 561 l 455 561 l 455 598 q 574 617 525 606 q 677 650 623 628 q 689 653 684 653 q 701 640 701 653 l 698 577 q 688 169 688 345 q 698 56 688 70 q 762 35 713 35 l 802 35 l 802 -5 q 658 0 717 0 q 570 -5 614 0 z "},"v":{"ha":785,"x_min":14,"x_max":751,"o":"m 490 598 l 490 637 q 615 633 560 633 q 751 637 679 633 l 751 598 l 730 598 q 700 592 715 598 q 682 580 689 587 q 633 486 675 572 q 516 236 557 328 q 413 -11 475 144 l 343 -11 q 160 423 254 212 q 118 522 125 500 q 84 582 103 566 q 37 598 66 598 l 14 598 l 14 637 q 180 632 114 632 q 336 637 252 632 l 336 598 l 307 598 q 248 589 265 598 q 237 569 237 583 q 249 522 237 557 q 413 112 261 487 l 534 405 q 585 546 576 507 q 588 564 588 557 q 579 583 588 577 q 534 593 570 589 l 490 598 z "},"w":{"ha":1158,"x_min":12,"x_max":1126,"o":"m 353 -11 l 284 -11 q 155 416 227 185 l 112 553 q 86 587 103 575 q 46 599 68 599 l 12 599 l 12 638 q 178 633 120 633 q 344 638 234 633 l 344 599 l 307 599 q 250 589 265 599 q 237 568 237 583 q 353 147 237 534 l 500 467 q 576 649 533 542 l 610 649 q 670 490 639 566 l 810 136 l 913 414 q 952 537 943 496 q 956 564 956 554 q 942 589 956 580 q 899 599 928 599 l 854 599 l 854 638 q 1011 633 943 633 q 1126 638 1071 633 l 1126 599 l 1096 599 q 1051 575 1072 599 q 935 326 1030 551 q 810 -11 854 138 l 744 -11 q 645 248 713 74 l 559 466 q 405 126 464 264 q 353 -11 378 64 z "},"x":{"ha":717,"x_min":35,"x_max":682,"o":"m 35 585 l 164 648 q 235 600 207 631 q 379 386 279 549 q 559 637 467 503 q 603 633 585 633 q 663 637 617 633 l 663 597 q 604 576 626 595 q 409 347 567 544 q 562 132 500 212 q 630 62 604 77 q 682 54 646 54 l 682 14 q 546 -22 619 0 q 488 33 511 3 q 338 255 473 52 q 240 129 274 177 q 153 -5 205 81 q 101 0 124 0 q 35 -5 77 0 l 35 37 q 81 43 69 37 q 148 109 94 49 q 307 298 227 197 q 143 518 180 486 q 64 551 106 551 q 35 549 53 551 l 35 585 z "},"y":{"ha":772,"x_min":8,"x_max":744,"o":"m 35 -368 l 67 -262 l 83 -262 q 119 -295 101 -284 q 157 -306 138 -306 q 233 -265 199 -306 q 340 -39 268 -224 q 220 262 310 40 l 157 417 l 106 536 q 35 599 83 599 l 8 599 l 8 638 q 133 633 79 633 q 329 638 175 633 l 329 599 l 279 599 q 241 590 253 599 q 229 568 229 581 q 242 522 229 557 q 404 117 311 333 q 559 498 493 315 q 579 563 579 551 q 533 591 579 585 l 483 599 l 483 638 q 625 633 563 633 q 744 638 684 633 l 744 599 l 720 599 q 688 590 705 599 q 662 564 672 581 q 536 300 640 530 q 391 -41 508 237 q 275 -299 288 -276 q 207 -368 248 -344 q 117 -392 165 -392 q 77 -386 98 -392 q 35 -368 56 -380 z "},"z":{"ha":694,"x_min":29,"x_max":656,"o":"m 36 -5 l 29 27 q 208 237 95 99 q 480 587 360 426 q 224 581 311 587 q 156 569 165 578 q 140 512 147 561 l 130 454 l 91 454 q 98 569 98 519 l 97 632 l 102 637 q 417 633 310 633 q 640 637 530 633 l 640 601 q 571 520 605 562 l 465 387 q 203 49 397 304 l 289 47 q 533 57 430 47 q 585 73 573 61 q 608 157 596 85 l 616 197 l 656 197 q 640 3 640 72 q 536 -3 593 -3 l 290 0 q 36 -5 139 0 z "},"{":{"ha":463,"x_min":58,"x_max":448,"o":"m 162 354 q 262 298 229 335 q 296 169 296 262 l 296 -118 q 310 -200 296 -161 q 359 -265 325 -240 q 445 -297 384 -283 q 309 -286 340 -293 q 238 -249 269 -277 q 196 -180 207 -220 q 186 -87 186 -140 l 186 192 q 174 273 186 246 q 137 320 163 299 q 58 354 111 340 q 133 387 113 371 q 174 439 162 412 q 186 517 186 466 l 186 814 q 212 932 186 888 q 298 996 239 976 q 448 1010 326 1005 l 426 1004 q 351 970 380 993 q 312 921 323 948 q 296 831 296 880 l 296 532 q 283 444 296 475 q 242 391 271 414 q 162 354 221 372 z "},"|":{"ha":842,"x_min":386,"x_max":475,"o":"m 386 -319 l 386 1010 l 475 1010 l 475 -319 l 386 -319 z "},"}":{"ha":463,"x_min":14,"x_max":404,"o":"m 301 359 q 200 415 233 378 q 168 545 168 452 l 168 831 q 153 913 168 873 q 104 979 138 954 q 18 1010 79 998 q 153 1000 122 1006 q 224 963 193 991 q 266 895 255 935 q 277 801 277 854 l 277 522 q 289 440 277 467 q 326 393 300 414 q 404 359 352 373 q 330 326 350 342 q 289 275 300 302 q 277 196 277 248 l 277 -101 q 250 -219 277 -175 q 164 -283 223 -263 q 14 -297 137 -292 l 37 -291 q 111 -258 81 -280 q 152 -205 141 -235 q 168 -117 168 -163 l 168 181 q 180 269 168 239 q 217 320 193 300 q 301 359 242 341 z "},"~":{"ha":842,"x_min":59,"x_max":783,"o":"m 752 581 l 783 581 q 741 432 779 479 q 616 373 693 373 q 549 384 585 373 q 363 455 513 394 q 215 498 259 498 q 89 374 115 498 l 59 374 q 79 490 60 448 q 137 557 98 532 q 218 583 176 583 q 285 572 248 583 q 475 499 355 551 q 579 460 539 472 q 626 455 601 455 q 712 488 677 455 q 752 581 746 520 z "},"Ä":{"ha":1080,"x_min":26,"x_max":1053,"o":"m 711 321 l 319 321 l 273 212 q 228 79 228 103 q 236 56 228 63 q 279 45 245 50 l 345 38 l 345 -5 q 198 0 279 0 q 26 -5 100 0 l 26 38 l 47 39 q 108 48 94 40 q 138 90 122 57 q 236 301 186 188 l 422 724 q 524 968 497 892 l 570 968 l 913 170 q 960 72 948 88 q 986 48 971 55 q 1053 38 1001 41 l 1053 -5 q 885 0 965 0 q 686 -5 810 0 l 686 38 l 753 42 q 796 50 789 45 q 806 68 806 57 q 786 132 806 81 l 711 321 m 345 376 l 686 376 l 515 785 l 345 376 m 407 1180 q 459 1158 437 1180 q 481 1106 481 1137 q 459 1053 481 1075 q 407 1031 437 1031 q 354 1053 376 1031 q 332 1106 332 1075 q 354 1158 332 1137 q 407 1180 376 1180 m 701 1180 q 753 1158 732 1180 q 775 1106 775 1137 q 753 1053 775 1075 q 701 1031 732 1031 q 649 1053 671 1031 q 627 1106 627 1075 q 648 1158 627 1137 q 701 1180 670 1180 z "},"Å":{"ha":1080,"x_min":26,"x_max":1053,"o":"m 711 321 l 319 321 l 273 212 q 228 79 228 103 q 236 56 228 63 q 279 45 245 50 l 345 38 l 345 -5 q 198 0 279 0 q 26 -5 100 0 l 26 38 l 47 39 q 108 48 94 40 q 138 90 122 57 q 236 301 186 188 l 422 724 q 524 968 497 892 l 570 968 l 913 170 q 960 72 948 88 q 986 48 971 55 q 1053 38 1001 41 l 1053 -5 q 885 0 965 0 q 686 -5 810 0 l 686 38 l 753 42 q 796 50 789 45 q 806 68 806 57 q 786 132 806 81 l 711 321 m 345 376 l 686 376 l 515 785 l 345 376 m 541 1334 q 640 1293 599 1334 q 682 1194 682 1252 q 640 1095 682 1136 q 541 1053 599 1053 q 441 1095 482 1053 q 399 1194 399 1136 q 440 1293 399 1252 q 541 1334 481 1334 m 541 1265 q 494 1244 513 1265 q 475 1194 475 1223 q 494 1143 475 1164 q 541 1123 513 1123 q 587 1143 568 1123 q 606 1194 606 1164 q 587 1244 606 1223 q 541 1265 568 1265 z "},"Ç":{"ha":985,"x_min":56,"x_max":959,"o":"m 872 715 l 867 836 q 740 896 806 876 q 602 916 674 916 q 309 804 419 916 q 199 507 199 693 q 255 273 199 376 q 414 111 311 171 q 631 52 517 52 q 811 73 722 52 q 945 138 878 88 l 959 124 q 932 61 945 93 q 773 2 853 22 q 611 -18 692 -18 q 318 46 444 -18 q 123 224 191 111 q 56 481 56 338 q 124 737 56 624 q 318 912 193 850 q 625 974 443 974 q 849 943 721 974 q 953 920 913 928 q 918 715 922 848 l 872 715 m 606 0 l 576 -72 q 613 -68 598 -68 q 687 -92 660 -68 q 714 -154 714 -117 q 672 -235 714 -201 q 559 -269 631 -269 q 428 -240 496 -269 l 449 -199 q 554 -221 517 -221 q 608 -205 589 -221 q 627 -163 627 -189 q 610 -124 627 -139 q 564 -110 594 -110 q 527 -117 547 -110 l 516 -108 l 564 0 l 606 0 z "},"É":{"ha":848,"x_min":36,"x_max":801,"o":"m 308 456 l 308 290 l 309 194 q 311 63 309 104 q 523 56 410 56 q 650 62 599 56 q 721 80 684 66 q 755 229 738 140 l 801 229 q 783 31 783 81 l 784 1 q 631 -7 706 -7 l 524 -5 q 265 0 348 0 q 54 -5 186 0 l 54 38 l 75 38 q 150 50 134 38 q 170 104 165 61 q 175 292 175 146 l 175 665 q 171 814 175 756 q 161 884 166 873 q 146 901 156 895 q 88 912 137 907 l 36 918 l 36 960 l 109 960 l 181 958 q 273 956 241 956 l 533 959 l 656 960 q 784 954 720 960 q 755 746 758 874 l 709 746 q 702 870 709 821 q 505 900 622 900 q 311 892 412 900 q 309 764 311 828 l 308 660 l 308 522 q 427 518 375 518 q 609 529 588 518 q 631 599 631 541 l 631 643 l 677 643 q 672 479 672 541 q 677 328 672 415 l 631 328 l 631 367 q 605 447 631 432 q 426 461 580 461 q 308 456 369 461 m 384 1029 l 338 1029 l 538 1221 q 574 1251 564 1245 q 599 1257 585 1257 q 631 1245 618 1257 q 644 1215 644 1233 q 630 1184 644 1199 q 566 1138 617 1168 l 384 1029 z "},"Ñ":{"ha":1154,"x_min":31,"x_max":1125,"o":"m 224 807 l 224 338 q 230 115 224 178 q 246 57 235 67 q 311 41 257 46 l 354 38 l 354 -5 q 220 0 280 0 q 31 -5 179 0 l 31 38 l 79 38 q 137 50 123 38 q 154 98 151 62 q 161 301 161 173 l 161 638 q 159 826 161 733 q 149 880 158 865 q 122 906 140 895 q 73 918 104 918 l 31 918 l 31 960 q 162 956 117 956 q 269 960 211 956 q 396 801 336 878 q 519 644 455 723 l 751 359 q 932 146 876 206 l 932 582 q 922 881 932 855 q 844 913 912 906 l 793 918 l 793 960 q 962 956 902 956 q 1125 960 1025 956 l 1125 918 l 1073 918 q 1000 876 1010 918 q 994 578 994 848 l 994 273 q 1005 -22 994 149 q 898 -2 913 -8 q 869 20 883 5 q 711 205 794 103 l 224 807 m 366 1072 l 330 1072 q 479 1206 368 1206 q 606 1171 527 1206 q 703 1141 674 1141 q 788 1211 760 1141 l 825 1211 q 767 1107 806 1143 q 678 1072 728 1072 q 559 1102 631 1072 q 448 1137 479 1137 q 366 1072 393 1137 z "},"Ö":{"ha":1092,"x_min":32,"x_max":1060,"o":"m 32 478 q 176 838 32 701 q 559 974 319 974 q 927 847 793 974 q 1060 511 1060 721 q 905 134 1060 286 q 515 -18 751 -18 q 262 41 368 -18 q 94 216 155 101 q 32 478 32 330 m 170 534 q 222 267 170 380 q 363 97 275 153 q 564 40 451 40 q 748 88 669 40 q 872 232 827 136 q 917 465 917 328 q 867 710 917 608 q 730 864 817 812 q 525 916 644 916 q 338 870 416 916 q 214 737 259 825 q 170 534 170 649 m 399 1180 q 451 1158 429 1180 q 473 1106 473 1137 q 451 1053 473 1075 q 399 1031 429 1031 q 346 1053 368 1031 q 324 1106 324 1075 q 346 1158 324 1137 q 399 1180 368 1180 m 693 1180 q 745 1158 724 1180 q 767 1106 767 1137 q 745 1053 767 1075 q 693 1031 724 1031 q 641 1053 663 1031 q 618 1106 618 1075 q 640 1158 618 1137 q 693 1180 662 1180 z "},"Ü":{"ha":1080,"x_min":26,"x_max":1051,"o":"m 26 918 l 26 960 q 229 956 165 956 q 424 960 295 956 l 424 918 l 374 918 q 298 893 311 918 q 285 672 285 869 l 285 406 q 301 203 285 260 q 383 107 317 146 q 561 68 450 68 q 754 110 675 68 q 833 200 808 139 q 859 433 859 262 l 859 689 q 843 892 859 867 q 755 918 827 918 l 720 918 l 720 960 q 898 956 860 956 q 1051 960 960 956 l 1051 918 l 1005 918 q 936 889 951 918 q 921 686 921 860 l 921 432 q 904 197 921 258 q 841 87 886 136 q 719 10 795 39 q 539 -18 642 -18 q 353 7 433 -18 q 232 70 273 33 q 174 161 192 107 q 156 345 156 215 l 157 473 l 157 680 q 146 895 157 871 q 75 918 135 918 l 26 918 m 423 1180 q 475 1158 454 1180 q 497 1106 497 1137 q 475 1053 497 1075 q 423 1031 454 1031 q 370 1053 392 1031 q 349 1106 349 1075 q 370 1158 349 1137 q 423 1180 392 1180 m 718 1180 q 770 1158 748 1180 q 791 1106 791 1137 q 770 1053 791 1075 q 718 1031 748 1031 q 665 1053 687 1031 q 643 1106 643 1075 q 665 1158 643 1137 q 718 1180 686 1180 z "},"á":{"ha":694,"x_min":46,"x_max":664,"o":"m 97 467 l 98 513 l 97 559 l 171 602 q 259 641 221 630 q 339 652 296 652 q 490 610 433 652 q 559 503 547 568 q 569 260 567 454 q 577 59 570 78 q 611 40 584 40 l 664 40 l 664 -5 q 556 0 587 0 q 454 -5 518 0 l 455 56 q 454 115 455 85 l 314 7 q 277 -13 295 -7 q 226 -18 258 -18 q 92 25 138 -18 q 46 140 46 68 q 79 260 46 209 q 173 336 112 311 q 454 399 233 360 q 416 528 453 486 q 285 582 370 582 q 224 574 252 582 q 171 549 195 566 q 135 457 151 501 l 97 467 m 454 359 q 215 283 266 319 q 164 173 164 248 q 193 93 164 123 q 269 62 222 62 q 366 91 319 62 q 454 176 412 119 l 453 326 l 454 359 m 260 704 l 214 704 l 414 896 q 450 926 439 920 q 475 932 461 932 q 507 920 494 932 q 519 890 519 908 q 506 859 519 874 q 442 813 493 844 l 260 704 z "},"à":{"ha":694,"x_min":46,"x_max":664,"o":"m 97 467 l 98 513 l 97 559 l 171 602 q 259 641 221 630 q 339 652 296 652 q 490 610 433 652 q 559 503 547 568 q 569 260 567 454 q 577 59 570 78 q 611 40 584 40 l 664 40 l 664 -5 q 556 0 587 0 q 454 -5 518 0 l 455 56 q 454 115 455 85 l 314 7 q 277 -13 295 -7 q 226 -18 258 -18 q 92 25 138 -18 q 46 140 46 68 q 79 260 46 209 q 173 336 112 311 q 454 399 233 360 q 416 528 453 486 q 285 582 370 582 q 224 574 252 582 q 171 549 195 566 q 135 457 151 501 l 97 467 m 454 359 q 215 283 266 319 q 164 173 164 248 q 193 93 164 123 q 269 62 222 62 q 366 91 319 62 q 454 176 412 119 l 453 326 l 454 359 m 435 704 l 253 813 q 186 861 201 844 q 176 890 176 874 q 188 920 176 908 q 221 932 200 932 q 245 926 234 932 q 281 896 256 920 l 481 704 l 435 704 z "},"â":{"ha":694,"x_min":46,"x_max":664,"o":"m 97 467 l 98 513 l 97 559 l 171 602 q 259 641 221 630 q 339 652 296 652 q 490 610 433 652 q 559 503 547 568 q 569 260 567 454 q 577 59 570 78 q 611 40 584 40 l 664 40 l 664 -5 q 556 0 587 0 q 454 -5 518 0 l 455 56 q 454 115 455 85 l 314 7 q 277 -13 295 -7 q 226 -18 258 -18 q 92 25 138 -18 q 46 140 46 68 q 79 260 46 209 q 173 336 112 311 q 454 399 233 360 q 416 528 453 486 q 285 582 370 582 q 224 574 252 582 q 171 549 195 566 q 135 457 151 501 l 97 467 m 454 359 q 215 283 266 319 q 164 173 164 248 q 193 93 164 123 q 269 62 222 62 q 366 91 319 62 q 454 176 412 119 l 453 326 l 454 359 m 140 700 l 315 933 l 380 933 l 555 700 l 512 700 l 346 847 l 183 700 l 140 700 z "},"ä":{"ha":694,"x_min":46,"x_max":664,"o":"m 97 467 l 98 513 l 97 559 l 171 602 q 259 641 221 630 q 339 652 296 652 q 490 610 433 652 q 559 503 547 568 q 569 260 567 454 q 577 59 570 78 q 611 40 584 40 l 664 40 l 664 -5 q 556 0 587 0 q 454 -5 518 0 l 455 56 q 454 115 455 85 l 314 7 q 277 -13 295 -7 q 226 -18 258 -18 q 92 25 138 -18 q 46 140 46 68 q 79 260 46 209 q 173 336 112 311 q 454 399 233 360 q 416 528 453 486 q 285 582 370 582 q 224 574 252 582 q 171 549 195 566 q 135 457 151 501 l 97 467 m 454 359 q 215 283 266 319 q 164 173 164 248 q 193 93 164 123 q 269 62 222 62 q 366 91 319 62 q 454 176 412 119 l 453 326 l 454 359 m 201 856 q 253 834 231 856 q 275 782 275 812 q 253 729 275 751 q 201 707 231 707 q 148 729 170 707 q 126 782 126 751 q 148 834 126 812 q 201 856 170 856 m 495 856 q 547 834 526 856 q 569 782 569 812 q 547 729 569 751 q 495 707 526 707 q 443 729 465 707 q 420 782 420 751 q 442 834 420 812 q 495 856 464 856 z "},"ã":{"ha":694,"x_min":46,"x_max":664,"o":"m 97 467 l 98 513 l 97 559 l 171 602 q 259 641 221 630 q 339 652 296 652 q 490 610 433 652 q 559 503 547 568 q 569 260 567 454 q 577 59 570 78 q 611 40 584 40 l 664 40 l 664 -5 q 556 0 587 0 q 454 -5 518 0 l 455 56 q 454 115 455 85 l 314 7 q 277 -13 295 -7 q 226 -18 258 -18 q 92 25 138 -18 q 46 140 46 68 q 79 260 46 209 q 173 336 112 311 q 454 399 233 360 q 416 528 453 486 q 285 582 370 582 q 224 574 252 582 q 171 549 195 566 q 135 457 151 501 l 97 467 m 454 359 q 215 283 266 319 q 164 173 164 248 q 193 93 164 123 q 269 62 222 62 q 366 91 319 62 q 454 176 412 119 l 453 326 l 454 359 m 137 747 l 100 747 q 250 882 139 882 q 376 847 298 882 q 473 817 445 817 q 559 887 530 817 l 595 887 q 538 783 577 819 q 449 747 499 747 q 330 778 402 747 q 218 812 250 812 q 137 747 163 812 z "},"å":{"ha":694,"x_min":46,"x_max":664,"o":"m 97 467 l 98 513 l 97 559 l 171 602 q 259 641 221 630 q 339 652 296 652 q 490 610 433 652 q 559 503 547 568 q 569 260 567 454 q 577 59 570 78 q 611 40 584 40 l 664 40 l 664 -5 q 556 0 587 0 q 454 -5 518 0 l 455 56 q 454 115 455 85 l 314 7 q 277 -13 295 -7 q 226 -18 258 -18 q 92 25 138 -18 q 46 140 46 68 q 79 260 46 209 q 173 336 112 311 q 454 399 233 360 q 416 528 453 486 q 285 582 370 582 q 224 574 252 582 q 171 549 195 566 q 135 457 151 501 l 97 467 m 454 359 q 215 283 266 319 q 164 173 164 248 q 193 93 164 123 q 269 62 222 62 q 366 91 319 62 q 454 176 412 119 l 453 326 l 454 359 m 348 1010 q 448 969 406 1010 q 489 869 489 928 q 448 770 489 812 q 348 729 406 729 q 248 770 290 729 q 207 869 207 812 q 248 969 207 928 q 348 1010 289 1010 m 348 941 q 301 920 321 941 q 282 869 282 899 q 301 819 282 840 q 348 799 321 799 q 394 819 375 799 q 414 869 414 840 q 394 920 414 899 q 348 941 375 941 z "},"ç":{"ha":616,"x_min":31,"x_max":568,"o":"m 549 92 l 568 75 l 540 32 q 445 -6 494 7 q 345 -18 396 -18 q 176 20 245 -18 q 68 130 106 58 q 31 300 31 201 q 60 453 31 388 q 141 554 89 517 q 273 626 194 591 q 397 651 328 651 q 487 643 449 651 q 568 612 524 634 q 549 433 551 523 l 507 433 l 507 467 q 494 529 507 511 q 437 564 481 547 q 339 582 392 582 q 198 526 248 582 q 149 359 149 470 q 222 130 149 216 q 391 52 288 52 q 471 62 432 52 q 549 92 511 72 m 380 0 l 351 -72 q 388 -68 373 -68 q 462 -92 435 -68 q 489 -154 489 -117 q 447 -235 489 -201 q 334 -269 406 -269 q 203 -240 271 -269 l 224 -199 q 329 -221 292 -221 q 383 -205 364 -221 q 401 -163 401 -189 q 385 -124 401 -139 q 339 -110 369 -110 q 302 -117 322 -110 l 291 -108 l 339 0 l 380 0 z "},"é":{"ha":665,"x_min":39,"x_max":625,"o":"m 168 323 q 236 121 171 190 q 407 52 301 52 q 501 67 454 52 q 594 114 548 83 l 606 104 l 584 47 q 468 -2 528 14 q 345 -18 408 -18 q 123 69 208 -18 q 39 305 39 156 q 86 503 39 419 q 201 604 117 557 q 365 651 286 651 q 555 581 485 651 q 625 383 625 510 l 624 343 q 538 329 579 332 q 337 323 466 323 l 168 323 m 170 374 q 401 370 275 370 q 500 374 452 370 l 500 412 q 476 526 500 472 q 424 581 461 559 q 338 603 387 603 q 216 547 262 603 q 170 374 171 492 m 245 704 l 199 704 l 399 896 q 435 926 425 920 q 460 932 446 932 q 492 920 479 932 q 505 890 505 908 q 491 859 505 874 q 427 813 478 844 l 245 704 z "},"è":{"ha":665,"x_min":39,"x_max":625,"o":"m 168 323 q 236 121 171 190 q 407 52 301 52 q 501 67 454 52 q 594 114 548 83 l 606 104 l 584 47 q 468 -2 528 14 q 345 -18 408 -18 q 123 69 208 -18 q 39 305 39 156 q 86 503 39 419 q 201 604 117 557 q 365 651 286 651 q 555 581 485 651 q 625 383 625 510 l 624 343 q 538 329 579 332 q 337 323 466 323 l 168 323 m 170 374 q 401 370 275 370 q 500 374 452 370 l 500 412 q 476 526 500 472 q 424 581 461 559 q 338 603 387 603 q 216 547 262 603 q 170 374 171 492 m 420 704 l 238 813 q 172 861 186 844 q 161 890 161 874 q 173 920 161 908 q 206 932 185 932 q 230 926 219 932 q 266 896 241 920 l 466 704 l 420 704 z "},"ê":{"ha":665,"x_min":39,"x_max":625,"o":"m 168 323 q 236 121 171 190 q 407 52 301 52 q 501 67 454 52 q 594 114 548 83 l 606 104 l 584 47 q 468 -2 528 14 q 345 -18 408 -18 q 123 69 208 -18 q 39 305 39 156 q 86 503 39 419 q 201 604 117 557 q 365 651 286 651 q 555 581 485 651 q 625 383 625 510 l 624 343 q 538 329 579 332 q 337 323 466 323 l 168 323 m 170 374 q 401 370 275 370 q 500 374 452 370 l 500 412 q 476 526 500 472 q 424 581 461 559 q 338 603 387 603 q 216 547 262 603 q 170 374 171 492 m 139 700 l 313 933 l 378 933 l 553 700 l 511 700 l 345 847 l 182 700 l 139 700 z "},"ë":{"ha":665,"x_min":39,"x_max":625,"o":"m 168 323 q 236 121 171 190 q 407 52 301 52 q 501 67 454 52 q 594 114 548 83 l 606 104 l 584 47 q 468 -2 528 14 q 345 -18 408 -18 q 123 69 208 -18 q 39 305 39 156 q 86 503 39 419 q 201 604 117 557 q 365 651 286 651 q 555 581 485 651 q 625 383 625 510 l 624 343 q 538 329 579 332 q 337 323 466 323 l 168 323 m 170 374 q 401 370 275 370 q 500 374 452 370 l 500 412 q 476 526 500 472 q 424 581 461 559 q 338 603 387 603 q 216 547 262 603 q 170 374 171 492 m 213 856 q 265 834 243 856 q 287 782 287 812 q 265 729 287 751 q 213 707 243 707 q 160 729 182 707 q 138 782 138 751 q 160 834 138 812 q 213 856 182 856 m 507 856 q 559 834 538 856 q 581 782 581 812 q 559 729 581 751 q 507 707 538 707 q 455 729 477 707 q 433 782 433 751 q 454 834 433 812 q 507 856 476 856 z "},"í":{"ha":399,"x_min":32,"x_max":374,"o":"m 254 654 l 271 644 q 264 532 266 593 q 260 239 260 334 q 266 89 260 151 q 279 55 269 64 q 328 41 289 45 l 374 35 l 374 -5 q 193 0 275 0 q 32 -5 113 0 l 32 35 l 90 41 q 130 52 124 43 q 142 119 140 63 q 145 356 145 205 q 142 518 145 461 q 130 548 140 539 q 83 557 119 557 l 32 557 l 32 597 q 154 619 115 609 q 254 654 193 629 m 111 704 l 65 704 l 266 896 q 302 926 291 920 q 326 932 313 932 q 358 920 346 932 q 371 890 371 908 q 358 859 371 874 q 294 813 345 844 l 111 704 z "},"ì":{"ha":399,"x_min":28,"x_max":374,"o":"m 254 654 l 271 644 q 264 532 266 593 q 260 239 260 334 q 266 89 260 151 q 279 55 269 64 q 328 41 289 45 l 374 35 l 374 -5 q 193 0 275 0 q 32 -5 113 0 l 32 35 l 90 41 q 130 52 124 43 q 142 119 140 63 q 145 356 145 205 q 142 518 145 461 q 130 548 140 539 q 83 557 119 557 l 32 557 l 32 597 q 154 619 115 609 q 254 654 193 629 m 288 704 l 105 813 q 39 861 54 844 q 28 890 28 874 q 40 920 28 908 q 73 932 52 932 q 97 926 86 932 q 133 896 108 920 l 333 704 l 288 704 z "},"î":{"ha":399,"x_min":-7,"x_max":407,"o":"m 255 654 l 271 644 q 265 532 267 593 q 260 239 260 334 q 267 89 260 151 q 279 55 269 64 q 328 41 290 45 l 374 35 l 374 -5 q 194 0 275 0 q 33 -5 114 0 l 33 35 l 91 41 q 131 52 125 43 q 142 119 140 63 q 146 356 146 205 q 142 518 146 461 q 131 548 141 539 q 83 557 120 557 l 33 557 l 33 597 q 154 619 115 609 q 255 654 193 629 m -7 700 l 167 933 l 232 933 l 407 700 l 364 700 l 198 847 l 35 700 l -7 700 z "},"ï":{"ha":399,"x_min":-22,"x_max":420,"o":"m 254 654 l 271 644 q 264 532 266 593 q 260 239 260 334 q 266 89 260 151 q 279 55 269 64 q 328 41 289 45 l 374 35 l 374 -5 q 193 0 275 0 q 32 -5 113 0 l 32 35 l 90 41 q 130 52 124 43 q 142 119 140 63 q 145 356 145 205 q 142 518 145 461 q 130 548 140 539 q 83 557 119 557 l 32 557 l 32 597 q 154 619 115 609 q 254 654 193 629 m 52 856 q 104 834 83 856 q 126 782 126 812 q 104 729 126 751 q 52 707 83 707 q -1 729 21 707 q -22 782 -22 751 q -1 834 -22 812 q 52 856 21 856 m 347 856 q 399 834 377 856 q 420 782 420 812 q 399 729 420 751 q 347 707 377 707 q 294 729 316 707 q 272 782 272 751 q 294 834 272 812 q 347 856 315 856 z "},"ñ":{"ha":808,"x_min":17,"x_max":806,"o":"m 245 522 l 348 612 q 387 636 366 629 q 476 651 431 651 q 602 622 549 651 q 677 545 654 592 q 701 397 701 498 l 697 184 q 707 56 697 73 q 757 35 720 35 l 806 35 l 806 -5 q 680 0 733 0 q 570 -5 629 0 q 583 353 583 127 q 567 481 583 444 q 513 543 551 519 q 422 566 475 566 q 311 532 357 566 q 254 459 265 499 q 248 321 248 433 q 250 90 248 197 q 259 50 250 58 q 315 35 276 35 l 363 35 l 363 -5 q 180 0 248 0 q 17 -5 109 0 l 17 35 l 66 35 q 124 58 116 35 q 133 340 133 81 q 130 522 133 456 q 119 551 129 543 q 66 559 110 559 l 17 559 l 17 598 q 121 616 75 605 q 225 652 168 628 q 237 654 231 654 q 248 639 248 654 l 247 613 l 245 522 m 194 747 l 157 747 q 307 882 196 882 q 433 847 355 882 q 530 817 502 817 q 616 887 587 817 l 652 887 q 595 783 634 819 q 506 747 556 747 q 387 778 459 747 q 275 812 307 812 q 194 747 220 812 z "},"ó":{"ha":758,"x_min":49,"x_max":710,"o":"m 49 321 q 92 490 49 414 q 214 608 136 566 q 392 651 292 651 q 623 566 536 651 q 710 338 710 480 q 597 71 710 170 q 355 -18 496 -18 q 134 73 219 -18 q 49 321 49 164 m 176 369 q 234 130 176 229 q 399 31 291 31 q 531 93 481 31 q 582 282 582 155 q 552 459 582 385 q 473 569 522 534 q 364 603 425 603 q 268 576 311 603 q 204 503 224 549 q 176 369 176 441 m 292 704 l 245 704 l 446 896 q 482 926 471 920 q 507 932 493 932 q 539 920 526 932 q 551 890 551 908 q 538 859 551 874 q 474 813 525 844 l 292 704 z "},"ò":{"ha":758,"x_min":49,"x_max":710,"o":"m 49 321 q 92 490 49 414 q 214 608 136 566 q 392 651 292 651 q 623 566 536 651 q 710 338 710 480 q 597 71 710 170 q 355 -18 496 -18 q 134 73 219 -18 q 49 321 49 164 m 176 369 q 234 130 176 229 q 399 31 291 31 q 531 93 481 31 q 582 282 582 155 q 552 459 582 385 q 473 569 522 534 q 364 603 425 603 q 268 576 311 603 q 204 503 224 549 q 176 369 176 441 m 467 704 l 285 813 q 218 861 233 844 q 208 890 208 874 q 220 920 208 908 q 253 932 232 932 q 277 926 266 932 q 313 896 288 920 l 513 704 l 467 704 z "},"ô":{"ha":758,"x_min":49,"x_max":710,"o":"m 49 321 q 92 490 49 414 q 214 608 136 566 q 392 651 292 651 q 623 566 536 651 q 710 338 710 480 q 597 71 710 170 q 355 -18 496 -18 q 134 73 219 -18 q 49 321 49 164 m 176 369 q 234 130 176 229 q 399 31 291 31 q 531 93 481 31 q 582 282 582 155 q 552 459 582 385 q 473 569 522 534 q 364 603 425 603 q 268 576 311 603 q 204 503 224 549 q 176 369 176 441 m 172 700 l 347 933 l 412 933 l 587 700 l 544 700 l 378 847 l 215 700 l 172 700 z "},"ö":{"ha":758,"x_min":49,"x_max":710,"o":"m 49 321 q 92 490 49 414 q 214 608 136 566 q 392 651 292 651 q 623 566 536 651 q 710 338 710 480 q 597 71 710 170 q 355 -18 496 -18 q 134 73 219 -18 q 49 321 49 164 m 176 369 q 234 130 176 229 q 399 31 291 31 q 531 93 481 31 q 582 282 582 155 q 552 459 582 385 q 473 569 522 534 q 364 603 425 603 q 268 576 311 603 q 204 503 224 549 q 176 369 176 441 m 233 856 q 285 834 263 856 q 307 782 307 812 q 285 729 307 751 q 233 707 263 707 q 180 729 201 707 q 158 782 158 751 q 180 834 158 812 q 233 856 201 856 m 527 856 q 579 834 557 856 q 601 782 601 812 q 579 729 601 751 q 527 707 557 707 q 474 729 496 707 q 452 782 452 751 q 474 834 452 812 q 527 856 496 856 z "},"õ":{"ha":758,"x_min":49,"x_max":710,"o":"m 49 321 q 92 490 49 414 q 214 608 136 566 q 392 651 292 651 q 623 566 536 651 q 710 338 710 480 q 597 71 710 170 q 355 -18 496 -18 q 134 73 219 -18 q 49 321 49 164 m 176 369 q 234 130 176 229 q 399 31 291 31 q 531 93 481 31 q 582 282 582 155 q 552 459 582 385 q 473 569 522 534 q 364 603 425 603 q 268 576 311 603 q 204 503 224 549 q 176 369 176 441 m 169 747 l 132 747 q 282 882 171 882 q 408 847 330 882 q 505 817 477 817 q 591 887 562 817 l 627 887 q 570 783 609 819 q 481 747 531 747 q 362 778 434 747 q 250 812 282 812 q 169 747 195 812 z "},"ú":{"ha":838,"x_min":28,"x_max":802,"o":"m 570 -5 l 578 117 l 538 74 q 443 2 491 23 q 323 -18 394 -18 q 218 7 262 -18 q 154 74 174 33 q 134 204 134 115 q 136 311 134 250 l 138 420 q 131 548 138 535 q 88 561 125 561 l 28 561 l 28 598 q 198 632 120 606 l 254 653 q 266 636 266 653 l 261 567 q 252 300 252 423 q 262 142 252 176 q 304 85 272 108 q 384 62 337 62 q 499 103 447 62 q 568 185 552 144 q 577 328 577 209 q 570 547 577 529 q 509 561 563 561 l 455 561 l 455 598 q 574 617 525 606 q 677 650 623 628 q 689 653 684 653 q 701 640 701 653 l 698 577 q 688 169 688 345 q 698 56 688 70 q 762 35 713 35 l 802 35 l 802 -5 q 658 0 717 0 q 570 -5 614 0 m 331 704 l 285 704 l 486 896 q 522 926 511 920 q 546 932 532 932 q 578 920 566 932 q 591 890 591 908 q 577 859 591 874 q 513 813 564 844 l 331 704 z "},"ù":{"ha":838,"x_min":28,"x_max":802,"o":"m 570 -5 l 578 117 l 538 74 q 443 2 491 23 q 323 -18 394 -18 q 218 7 262 -18 q 154 74 174 33 q 134 204 134 115 q 136 311 134 250 l 138 420 q 131 548 138 535 q 88 561 125 561 l 28 561 l 28 598 q 198 632 120 606 l 254 653 q 266 636 266 653 l 261 567 q 252 300 252 423 q 262 142 252 176 q 304 85 272 108 q 384 62 337 62 q 499 103 447 62 q 568 185 552 144 q 577 328 577 209 q 570 547 577 529 q 509 561 563 561 l 455 561 l 455 598 q 574 617 525 606 q 677 650 623 628 q 689 653 684 653 q 701 640 701 653 l 698 577 q 688 169 688 345 q 698 56 688 70 q 762 35 713 35 l 802 35 l 802 -5 q 658 0 717 0 q 570 -5 614 0 m 507 704 l 325 813 q 258 861 273 844 q 248 890 248 874 q 260 920 248 908 q 293 932 272 932 q 317 926 306 932 q 353 896 328 920 l 553 704 l 507 704 z "},"û":{"ha":838,"x_min":28,"x_max":802,"o":"m 570 -5 l 578 117 l 538 74 q 443 2 491 23 q 323 -18 394 -18 q 218 7 262 -18 q 154 74 174 33 q 134 204 134 115 q 136 311 134 250 l 138 420 q 131 548 138 535 q 88 561 125 561 l 28 561 l 28 598 q 198 632 120 606 l 254 653 q 266 636 266 653 l 261 567 q 252 300 252 423 q 262 142 252 176 q 304 85 272 108 q 384 62 337 62 q 499 103 447 62 q 568 185 552 144 q 577 328 577 209 q 570 547 577 529 q 509 561 563 561 l 455 561 l 455 598 q 574 617 525 606 q 677 650 623 628 q 689 653 684 653 q 701 640 701 653 l 698 577 q 688 169 688 345 q 698 56 688 70 q 762 35 713 35 l 802 35 l 802 -5 q 658 0 717 0 q 570 -5 614 0 m 212 700 l 387 933 l 452 933 l 627 700 l 584 700 l 418 847 l 255 700 l 212 700 z "},"ü":{"ha":838,"x_min":28,"x_max":802,"o":"m 570 -5 l 578 117 l 538 74 q 443 2 491 23 q 323 -18 394 -18 q 218 7 262 -18 q 154 74 174 33 q 134 204 134 115 q 136 311 134 250 l 138 420 q 131 548 138 535 q 88 561 125 561 l 28 561 l 28 598 q 198 632 120 606 l 254 653 q 266 636 266 653 l 261 567 q 252 300 252 423 q 262 142 252 176 q 304 85 272 108 q 384 62 337 62 q 499 103 447 62 q 568 185 552 144 q 577 328 577 209 q 570 547 577 529 q 509 561 563 561 l 455 561 l 455 598 q 574 617 525 606 q 677 650 623 628 q 689 653 684 653 q 701 640 701 653 l 698 577 q 688 169 688 345 q 698 56 688 70 q 762 35 713 35 l 802 35 l 802 -5 q 658 0 717 0 q 570 -5 614 0 m 272 856 q 324 834 302 856 q 346 782 346 812 q 324 729 346 751 q 272 707 302 707 q 219 729 241 707 q 197 782 197 751 q 219 834 197 812 q 272 856 241 856 m 566 856 q 618 834 597 856 q 640 782 640 812 q 618 729 640 751 q 566 707 597 707 q 514 729 536 707 q 492 782 492 751 q 513 834 492 812 q 566 856 535 856 z "},"†":{"ha":694,"x_min":47,"x_max":647,"o":"m 279 -242 l 271 -235 q 283 -68 281 -153 q 292 549 289 78 q 55 537 144 547 l 47 545 q 51 595 51 578 q 47 643 51 612 l 55 650 q 292 637 163 640 q 279 953 292 836 l 285 960 q 347 956 319 956 q 409 960 375 956 l 414 953 q 401 637 401 838 q 639 650 531 640 l 647 643 q 643 595 643 612 q 647 545 643 578 l 639 537 q 401 549 550 547 l 408 -3 q 423 -235 412 -140 l 414 -242 q 347 -239 383 -239 q 279 -242 311 -239 z "},"°":{"ha":555,"x_min":61,"x_max":496,"o":"m 496 755 q 432 601 496 664 q 278 538 369 538 q 124 601 187 538 q 61 758 61 664 q 125 910 61 847 q 279 974 190 974 q 432 910 369 974 q 496 755 496 847 m 415 754 q 376 853 415 813 q 280 893 337 893 q 182 853 222 893 q 142 755 142 812 q 182 659 142 700 q 279 618 223 618 q 375 658 336 618 q 415 754 415 699 z "},"¢":{"ha":694,"x_min":92,"x_max":602,"o":"m 415 168 q 418 25 414 83 l 358 25 q 363 168 361 77 q 163 256 235 176 q 92 471 92 336 q 109 588 92 536 q 152 674 125 641 q 234 738 179 707 q 363 800 323 789 q 360 897 364 833 l 420 897 q 415 808 415 834 q 452 810 438 810 q 602 771 525 810 q 582 600 584 687 l 545 600 l 543 632 q 531 690 538 677 q 489 719 523 703 q 415 740 456 735 l 415 235 l 444 234 q 515 245 471 233 q 587 272 550 253 l 602 256 l 576 215 q 415 168 498 173 m 363 741 q 251 682 292 734 q 210 528 210 629 q 252 347 210 420 q 363 247 295 273 l 363 741 z "},"£":{"ha":694,"x_min":19,"x_max":676,"o":"m 56 -20 l 20 -20 l 19 14 l 20 30 l 20 53 q 92 98 49 75 q 133 181 121 145 q 152 268 146 216 q 157 442 155 297 l 102 444 l 60 441 l 28 441 l 20 447 l 28 501 l 157 498 q 154 583 154 557 q 181 760 154 694 q 256 852 199 808 q 393 943 334 912 q 530 974 451 974 q 609 965 578 974 q 676 933 641 956 q 660 743 667 877 l 619 743 l 617 774 q 601 849 614 827 q 552 887 587 871 q 470 904 517 904 q 322 824 364 904 q 276 499 279 743 l 418 499 q 528 504 471 499 l 535 498 l 523 439 l 368 443 l 273 443 q 239 273 261 332 q 140 98 217 215 q 279 107 212 107 q 475 100 339 107 q 568 96 545 96 q 608 111 602 96 q 627 222 612 123 l 669 222 q 660 9 661 138 l 619 -14 l 561 -15 q 358 10 501 -15 q 117 45 230 33 l 56 -20 z "},"§":{"ha":694,"x_min":65,"x_max":629,"o":"m 532 219 q 587 164 571 194 q 604 89 604 134 q 561 -58 604 14 q 446 -170 517 -130 q 292 -210 374 -210 q 84 -153 202 -210 q 101 35 101 -41 l 99 62 l 144 61 l 165 62 l 165 31 l 163 -11 l 165 -66 q 245 -121 200 -102 q 334 -140 290 -140 q 428 -119 385 -140 q 493 -62 471 -98 q 515 16 515 -26 q 488 93 515 62 q 382 153 461 124 q 157 239 186 224 q 86 300 108 266 q 65 380 65 335 q 167 561 65 479 q 115 619 132 585 q 97 698 97 653 q 184 888 97 803 q 382 974 271 974 q 565 941 449 974 q 555 723 555 827 l 508 724 l 489 724 q 494 838 494 777 q 342 893 437 893 q 223 852 269 893 q 178 755 178 812 q 197 691 178 720 q 257 643 216 663 q 452 577 298 623 q 593 505 556 546 q 629 399 629 464 q 607 304 629 347 q 532 219 585 262 m 210 538 q 162 433 162 487 q 174 385 162 406 q 214 346 185 365 q 339 296 242 328 q 492 239 435 264 q 532 349 532 301 q 510 410 532 380 q 436 460 488 439 l 210 538 z "},"•":{"ha":842,"x_min":212,"x_max":629,"o":"m 420 714 q 568 653 507 714 q 629 506 629 592 q 568 358 629 419 q 420 297 507 297 q 273 358 334 297 q 212 506 212 419 q 273 653 212 592 q 420 714 334 714 z "},"¶":{"ha":872,"x_min":96,"x_max":777,"o":"m 777 956 l 777 929 l 749 929 q 696 919 711 929 q 674 887 680 908 q 667 787 667 865 l 667 -309 l 616 -309 l 616 917 l 486 917 l 486 -309 l 434 -309 l 434 425 q 235 459 300 430 q 133 550 170 489 q 96 692 96 610 q 130 823 96 772 q 240 923 173 891 q 413 956 307 956 l 777 956 z "},"ß":{"ha":772,"x_min":26,"x_max":713,"o":"m 127 532 l 39 532 l 39 559 l 127 604 l 127 657 q 147 784 127 739 q 232 896 166 829 q 349 986 298 962 q 460 1010 399 1010 q 622 953 562 1010 q 682 805 682 896 q 631 544 682 718 l 622 544 q 524 574 565 574 q 471 555 490 574 q 451 509 451 537 q 467 465 451 483 q 545 415 481 448 q 673 334 643 365 q 713 222 713 290 q 694 129 713 174 q 651 75 680 96 l 610 44 q 543 -1 564 7 q 466 -12 511 -12 q 406 -5 431 -12 q 346 24 380 3 l 346 -5 q 195 0 269 0 q 26 -5 108 0 l 26 44 l 54 44 q 116 67 105 44 q 127 266 127 91 l 127 532 m 414 158 l 414 93 q 462 58 437 70 q 515 46 487 46 q 594 77 562 46 q 626 153 626 107 q 604 222 626 191 q 503 300 581 252 q 414 358 429 345 q 379 401 389 380 q 369 449 369 423 q 376 491 369 472 q 400 527 380 503 l 479 623 q 559 639 536 640 l 589 637 q 606 753 606 707 q 557 898 606 844 q 428 951 507 951 q 288 889 335 951 q 241 655 241 827 l 241 260 q 247 71 241 86 q 313 44 257 44 l 346 44 q 376 158 363 80 l 414 158 z "},"®":{"ha":1038,"x_min":23,"x_max":1015,"o":"m 519 974 q 767 907 652 974 q 948 726 882 841 q 1015 477 1015 610 q 948 230 1015 345 q 767 48 882 115 q 519 -18 652 -18 q 271 48 386 -18 q 90 230 156 115 q 23 477 23 345 q 90 726 23 610 q 271 907 156 841 q 519 974 386 974 m 519 905 q 305 848 404 905 q 148 692 205 791 q 91 477 91 593 q 148 264 91 363 q 305 107 205 165 q 519 50 404 50 q 733 107 633 50 q 889 264 832 165 q 947 477 947 363 q 889 692 947 593 q 733 848 832 791 q 519 905 633 905 m 282 749 l 282 788 l 521 788 q 674 749 626 788 q 722 643 722 709 q 688 550 722 589 q 591 496 655 511 q 671 381 630 470 q 726 276 713 292 q 787 260 740 260 l 787 222 l 712 222 q 653 243 676 222 q 597 350 631 264 q 541 459 560 441 q 467 476 521 476 l 434 476 l 434 310 q 439 271 434 278 q 465 262 445 264 l 504 259 l 504 222 l 285 222 l 285 259 l 305 261 q 347 269 341 264 q 352 304 352 274 l 352 705 q 346 741 352 736 q 282 749 339 746 m 434 519 l 465 517 q 603 548 563 517 q 642 637 642 578 q 608 720 642 692 q 493 748 574 748 q 443 741 452 748 q 434 711 434 734 l 434 519 z "},"©":{"ha":1038,"x_min":23,"x_max":1015,"o":"m 519 974 q 767 907 652 974 q 948 726 882 841 q 1015 477 1015 610 q 948 230 1015 345 q 767 48 882 115 q 519 -18 652 -18 q 271 48 386 -18 q 90 230 156 115 q 23 477 23 345 q 90 726 23 610 q 271 907 156 841 q 519 974 386 974 m 519 905 q 305 848 404 905 q 148 692 205 791 q 91 477 91 593 q 148 264 91 363 q 305 107 205 165 q 519 50 404 50 q 733 107 633 50 q 889 264 832 165 q 947 477 947 363 q 889 692 947 593 q 733 848 832 791 q 519 905 633 905 m 741 741 l 741 578 l 692 578 q 676 671 689 646 q 629 713 663 696 q 546 730 595 730 q 396 667 454 730 q 337 497 337 604 q 397 316 337 385 q 544 248 457 248 q 640 274 598 248 q 715 362 682 300 l 756 347 q 666 235 730 276 q 517 193 602 193 q 377 230 440 193 q 278 335 315 267 q 242 487 242 404 q 320 695 242 610 q 542 781 398 781 q 741 741 638 781 z "},"™":{"ha":1360,"x_min":41,"x_max":1316,"o":"m 1316 956 l 1316 914 q 1254 910 1260 914 q 1247 881 1247 907 l 1247 456 q 1256 417 1247 424 q 1316 406 1264 410 l 1316 362 l 1093 362 l 1093 406 q 1155 415 1144 407 q 1165 459 1165 424 l 1165 836 l 968 362 l 937 362 l 734 848 l 734 451 q 738 418 734 425 q 751 410 742 412 q 805 406 761 407 l 805 362 l 616 362 l 616 406 q 677 413 669 407 q 685 452 685 418 l 685 877 q 679 910 685 905 q 627 914 673 914 l 627 956 l 784 956 l 966 515 l 1156 956 l 1316 956 m 524 956 q 521 892 521 924 q 524 804 521 869 l 476 804 q 465 878 474 861 q 434 901 455 894 q 324 907 412 907 l 324 454 q 333 413 324 420 q 387 406 341 406 l 411 406 l 411 362 l 153 362 l 153 406 q 231 413 220 406 q 241 456 241 420 l 241 907 q 139 900 162 907 q 105 876 116 892 q 90 804 95 859 l 41 804 q 50 879 49 863 q 52 956 52 896 l 524 956 z "},"´":{"ha":463,"x_min":97,"x_max":403,"o":"m 143 704 l 97 704 l 298 896 q 334 926 323 920 q 358 932 345 932 q 390 920 378 932 q 403 890 403 908 q 390 859 403 874 q 326 813 376 844 l 143 704 z "},"¨":{"ha":463,"x_min":9,"x_max":452,"o":"m 84 856 q 136 834 115 856 q 158 782 158 812 q 136 729 158 751 q 84 707 115 707 q 31 729 53 707 q 9 782 9 751 q 31 834 9 812 q 84 856 53 856 m 378 856 q 431 834 409 856 q 452 782 452 812 q 431 729 452 751 q 378 707 409 707 q 326 729 348 707 q 304 782 304 751 q 326 834 304 812 q 378 856 347 856 z "},"≠":{"ha":762,"x_min":40,"x_max":723,"o":"m 260 315 l 40 315 l 40 409 l 304 409 l 367 547 l 40 547 l 40 641 l 410 641 l 569 987 l 662 987 l 503 641 l 723 641 l 723 547 l 460 547 l 396 409 l 723 409 l 723 315 l 353 315 l 194 -32 l 101 -32 l 260 315 z "},"Æ":{"ha":1311,"x_min":3,"x_max":1261,"o":"m 782 458 l 782 202 q 785 62 782 127 q 977 54 938 54 q 1181 83 1112 54 q 1214 232 1200 148 l 1261 232 q 1249 135 1252 176 q 1245 5 1245 93 q 1068 -4 1175 -4 l 769 0 q 585 -5 679 0 l 585 27 q 650 62 621 41 q 659 339 659 164 q 528 342 591 342 q 320 339 437 342 l 283 274 q 207 120 235 189 q 196 82 196 94 q 208 59 196 67 q 274 44 220 51 l 320 38 l 320 -5 q 161 0 235 0 q 3 -5 81 0 l 3 38 l 28 38 q 76 52 56 38 q 123 117 96 66 l 509 817 q 545 895 545 883 q 536 910 545 905 q 485 918 528 915 l 406 923 l 406 964 l 735 958 l 798 957 l 1017 962 l 1057 963 q 1236 956 1155 963 q 1214 746 1214 869 l 1168 746 l 1169 786 q 1160 874 1169 817 q 945 901 1069 901 q 785 893 896 901 l 782 746 l 782 523 q 890 519 844 519 q 1065 531 1042 519 q 1088 594 1088 543 l 1088 646 l 1135 646 q 1131 518 1131 586 q 1135 332 1131 435 l 1088 332 l 1088 374 q 1068 451 1088 437 q 933 465 1048 465 q 782 458 863 465 m 659 397 l 659 652 q 654 913 659 803 l 637 913 q 429 543 513 702 l 351 397 l 659 397 z "},"Ø":{"ha":1157,"x_min":65,"x_max":1091,"o":"m 90 -20 l 206 109 q 101 274 136 181 q 65 481 65 368 q 208 837 65 701 q 589 974 351 974 q 774 949 691 974 q 922 878 857 925 l 1030 999 l 1074 960 l 966 840 q 1061 692 1031 772 q 1091 511 1091 613 q 937 134 1091 286 q 551 -18 783 -18 q 390 4 464 -18 q 251 72 317 26 l 133 -58 l 90 -20 m 843 801 q 719 888 787 861 q 559 916 650 916 q 283 795 377 916 q 203 526 203 693 q 294 198 203 344 l 843 801 m 333 153 q 597 40 439 40 q 781 88 702 40 q 904 231 859 136 q 949 463 949 326 q 878 751 949 628 l 333 153 z "},"∞":{"ha":990,"x_min":37,"x_max":954,"o":"m 444 452 q 541 597 488 553 q 694 640 594 640 q 879 561 804 640 q 954 357 954 481 q 864 136 954 219 q 718 73 795 73 q 610 109 659 73 q 489 267 560 145 q 392 144 444 180 q 269 109 339 109 q 104 179 171 109 q 37 359 37 249 q 98 538 37 469 q 245 608 160 608 q 349 576 304 608 q 444 452 393 545 m 509 315 q 607 174 558 212 q 720 136 656 136 q 860 197 804 136 q 916 357 916 258 q 857 522 916 456 q 724 587 799 587 q 648 567 681 587 q 586 500 615 547 q 509 315 566 467 m 424 400 q 344 513 388 481 q 243 545 300 545 q 122 494 171 545 q 74 359 74 444 q 121 216 74 271 q 230 161 168 161 q 329 204 285 161 q 416 377 373 246 l 424 400 z "},"±":{"ha":762,"x_min":40,"x_max":723,"o":"m 40 450 l 40 545 l 334 545 l 334 839 l 429 839 l 429 545 l 723 545 l 723 450 l 429 450 l 429 156 l 334 156 l 334 450 l 40 450 m 40 0 l 40 94 l 723 94 l 723 0 l 40 0 z "},"≤":{"ha":762,"x_min":40,"x_max":723,"o":"m 723 275 l 723 172 l 40 484 l 40 568 l 723 879 l 723 776 l 177 526 l 723 275 m 40 30 l 40 124 l 723 124 l 723 30 l 40 30 z "},"≥":{"ha":762,"x_min":40,"x_max":723,"o":"m 40 275 l 586 526 l 40 776 l 40 879 l 723 568 l 723 484 l 40 172 l 40 275 m 723 30 l 40 30 l 40 124 l 723 124 l 723 30 z "},"¥":{"ha":694,"x_min":-26,"x_max":671,"o":"m 291 210 l 42 210 l 42 267 l 291 267 l 291 403 l 42 403 l 42 459 l 264 459 q 123 765 193 631 q 53 870 77 853 q -26 889 28 886 l -26 932 q 111 962 41 940 q 179 913 153 943 q 258 759 205 884 q 368 459 328 598 l 571 956 l 671 956 l 671 932 q 628 874 644 902 q 538 693 611 846 q 431 459 465 542 l 659 459 l 659 403 l 410 403 l 410 267 l 659 267 l 659 210 l 410 210 q 424 62 412 80 q 492 42 435 44 l 544 40 l 544 -5 q 332 0 419 0 q 157 -5 246 0 l 157 40 l 210 40 q 266 48 254 40 q 283 74 278 56 q 290 179 289 100 l 291 210 z "},"µ":{"ha":800,"x_min":91,"x_max":742,"o":"m 133 637 l 244 637 l 244 260 q 262 111 244 144 q 341 64 288 64 q 421 87 381 64 q 500 155 460 110 l 500 637 l 612 637 l 612 178 q 624 75 612 96 q 659 54 636 54 q 713 138 701 54 l 742 138 q 700 19 736 58 q 608 -19 663 -19 q 531 14 556 -19 q 500 110 506 47 q 388 9 439 38 q 288 -19 337 -19 q 230 -7 253 -19 q 182 39 207 5 q 198 -74 182 -1 q 214 -176 214 -146 q 195 -232 214 -210 q 150 -253 177 -253 q 107 -233 124 -253 q 91 -178 91 -213 q 109 -75 91 -149 q 129 26 125 -7 q 133 129 133 59 l 133 637 z "},"∂":{"ha":686,"x_min":38,"x_max":660,"o":"m 289 772 l 197 812 q 308 962 243 913 q 441 1011 374 1011 q 551 973 501 1011 q 631 850 602 935 q 660 628 660 765 q 601 279 660 428 q 444 57 541 130 q 247 -17 346 -17 q 96 45 153 -17 q 38 218 38 108 q 149 488 38 378 q 582 627 284 621 q 562 814 579 756 q 513 898 545 872 q 443 924 481 924 q 289 772 346 924 m 579 540 q 336 493 411 530 q 210 374 260 456 q 160 205 160 292 q 195 113 160 149 q 275 76 229 76 q 401 125 334 76 q 516 277 469 175 q 579 540 563 380 z "},"∑":{"ha":990,"x_min":29,"x_max":963,"o":"m 920 -392 l 29 -392 l 29 -367 l 483 313 l 29 985 l 29 1010 l 896 1010 l 914 781 l 887 781 q 836 914 877 873 q 718 955 794 955 l 216 955 l 600 376 l 171 -272 l 726 -272 q 829 -254 785 -272 q 896 -205 873 -237 q 936 -105 920 -173 l 963 -111 l 920 -392 z "},"∏":{"ha":1143,"x_min":31,"x_max":1112,"o":"m 841 957 l 302 957 l 302 -261 q 327 -342 302 -317 q 412 -366 352 -366 l 436 -366 l 436 -392 l 31 -392 l 31 -366 l 55 -366 q 142 -341 118 -366 q 165 -261 165 -315 l 165 879 q 140 960 165 936 q 55 984 115 984 l 31 984 l 31 1010 l 1112 1010 l 1112 984 l 1088 984 q 1002 959 1026 984 q 979 879 979 933 l 979 -261 q 1004 -342 979 -317 q 1088 -366 1029 -366 l 1112 -366 l 1112 -392 l 707 -392 l 707 -366 l 731 -366 q 818 -341 794 -366 q 841 -261 841 -315 l 841 957 z "},"":{"ha":762,"x_min":0,"x_max":762,"o":"m 0 721 l 762 721 l 762 614 l 652 614 l 652 0 l 524 0 l 524 614 l 235 614 l 235 0 l 108 0 l 108 614 l 0 614 l 0 721 z "},"∫":{"ha":380,"x_min":0,"x_max":380,"o":"m 136 643 q 147 981 136 785 q 184 1179 154 1106 q 232 1242 201 1220 q 295 1263 264 1263 q 354 1241 328 1263 q 380 1191 380 1219 q 362 1140 380 1160 q 317 1120 344 1120 q 266 1145 294 1120 q 239 1158 250 1158 q 219 1148 227 1158 q 212 1115 212 1139 q 218 1017 212 1086 q 243 566 243 739 q 233 181 243 520 q 176 -97 227 -26 q 80 -149 138 -149 q 22 -126 45 -149 q 0 -67 0 -103 q 17 -19 0 -37 q 61 0 35 0 q 109 -22 88 0 q 141 -43 127 -43 q 160 -34 153 -43 q 168 -2 168 -24 q 161 79 168 26 q 136 643 136 294 z "},"ª":{"ha":463,"x_min":28,"x_max":435,"o":"m 62 852 l 62 913 l 109 940 q 220 974 168 974 q 315 950 278 974 q 361 893 352 926 q 372 716 371 861 q 378 585 374 597 q 401 571 382 572 l 435 569 l 435 540 q 363 543 385 543 q 296 540 336 543 q 298 619 298 582 l 205 549 q 179 534 190 537 q 146 530 168 530 q 58 559 89 530 q 28 636 28 587 q 50 715 28 682 q 112 766 71 749 q 296 807 153 782 q 266 896 295 866 q 185 925 237 925 q 146 920 164 925 q 111 906 127 916 l 87 845 l 62 852 m 296 781 q 139 729 169 753 q 109 661 109 705 q 127 608 109 628 q 178 589 146 589 q 240 606 210 589 q 298 659 270 624 l 296 781 z "},"º":{"ha":463,"x_min":12,"x_max":448,"o":"m 12 754 q 76 912 12 850 q 239 974 139 974 q 391 917 334 974 q 448 766 448 860 q 382 595 448 662 q 214 529 315 529 q 68 589 124 529 q 12 754 12 650 m 93 788 q 132 628 93 695 q 243 561 170 561 q 333 603 299 561 q 368 730 368 645 q 323 894 368 836 q 220 945 284 945 q 126 903 160 945 q 93 788 93 861 z "},"Ω":{"ha":1067,"x_min":86,"x_max":1000,"o":"m 336 109 q 203 222 251 162 q 129 364 155 282 q 102 544 102 446 q 159 795 102 686 q 316 962 216 904 q 548 1019 416 1019 q 888 859 767 1019 q 987 543 987 730 q 960 369 987 450 q 884 226 933 289 q 753 109 836 163 l 1000 113 l 1000 0 l 610 0 l 610 120 q 708 184 671 151 q 808 333 770 244 q 846 527 846 422 q 805 734 846 643 q 699 867 764 825 q 545 909 635 909 q 329 809 413 909 q 245 529 245 709 q 308 275 245 380 q 477 122 370 170 l 477 0 l 86 0 l 86 114 l 336 109 z "},"æ":{"ha":1053,"x_min":41,"x_max":1011,"o":"m 130 461 l 94 470 l 94 556 l 242 639 q 336 651 273 651 q 444 629 397 651 q 530 556 490 608 q 638 631 589 611 q 752 651 688 651 q 943 584 874 651 q 1011 399 1011 517 q 1008 348 1011 375 q 723 322 906 322 l 555 323 q 622 122 557 193 q 791 52 687 52 q 882 67 835 52 q 981 114 930 83 l 994 101 l 965 50 q 853 -1 910 16 q 737 -18 796 -18 q 474 129 560 -18 q 307 -4 393 73 q 262 -15 283 -11 q 222 -18 241 -18 q 91 29 140 -18 q 41 148 41 77 q 62 240 41 198 q 106 298 82 282 q 232 345 144 323 q 447 375 320 366 q 408 527 440 485 q 290 582 366 582 q 233 573 264 582 q 165 547 202 564 l 130 461 m 555 375 q 725 371 667 371 q 888 375 785 371 l 888 407 q 845 553 888 503 q 727 603 802 603 q 598 542 645 603 q 555 375 557 490 m 447 326 q 193 264 304 319 q 168 219 176 241 q 159 175 159 197 q 191 99 159 130 q 271 68 222 68 q 361 90 318 68 q 447 165 404 113 l 447 326 z "},"ø":{"ha":772,"x_min":43,"x_max":717,"o":"m 43 -15 l 130 84 q 57 309 57 184 q 156 562 57 473 q 397 651 256 651 q 591 597 508 651 l 672 688 l 713 652 l 634 562 q 697 463 677 516 q 717 337 717 410 q 597 64 717 163 q 360 -18 498 -18 q 170 45 253 -18 l 85 -52 l 43 -15 m 526 528 q 374 603 463 603 q 236 543 288 603 q 184 366 184 483 q 217 177 184 267 l 526 528 m 245 125 q 404 31 304 31 q 538 93 487 31 q 589 283 589 156 q 554 475 589 383 l 245 125 z "},"¿":{"ha":616,"x_min":46,"x_max":533,"o":"m 321 647 q 378 624 355 647 q 401 568 401 601 q 378 512 401 536 q 321 489 355 489 q 266 512 289 489 q 242 568 242 536 q 265 624 242 601 q 321 647 288 647 m 533 -134 l 480 -295 q 396 -332 439 -319 q 305 -345 352 -345 q 116 -282 186 -345 q 46 -121 46 -219 q 59 -44 46 -81 q 96 24 71 -7 q 202 132 120 56 q 286 213 270 195 q 321 269 311 243 q 328 304 328 286 q 297 375 328 338 l 326 397 q 374 346 360 372 q 388 287 388 319 q 372 222 388 254 q 296 120 356 189 q 195 -15 216 28 q 174 -96 174 -57 q 222 -205 174 -161 q 345 -250 271 -250 q 389 -244 366 -250 q 434 -228 411 -239 q 494 -121 471 -176 l 529 -125 l 533 -134 z "},"¡":{"ha":386,"x_min":113,"x_max":273,"o":"m 194 637 q 250 614 227 637 q 273 558 273 591 q 250 503 273 526 q 194 479 227 479 q 138 503 161 479 q 115 558 115 526 q 138 614 115 591 q 194 637 161 637 m 161 -333 l 113 -333 l 114 -241 q 121 -166 115 -221 q 165 338 148 58 l 203 374 l 216 367 q 247 0 235 107 q 267 -235 267 -173 l 266 -279 q 161 -333 212 -304 z "},"¬":{"ha":842,"x_min":79,"x_max":762,"o":"m 669 315 l 669 547 l 79 547 l 79 641 l 762 641 l 762 315 l 669 315 z "},"√":{"ha":762,"x_min":55,"x_max":760,"o":"m 710 1267 l 760 1267 l 549 -53 l 212 640 l 78 578 l 55 621 l 259 724 l 534 165 l 710 1267 z "},"ƒ":{"ha":694,"x_min":-16,"x_max":711,"o":"m 229 605 l 233 630 q 341 673 288 649 l 353 746 q 408 876 366 823 q 575 1031 471 956 q 663 1067 624 1067 q 711 1057 683 1067 q 694 969 694 1007 l 695 945 l 673 936 q 638 965 653 958 q 601 972 623 972 q 513 925 543 972 q 468 746 493 892 l 456 673 l 524 672 q 635 677 548 672 l 640 671 l 618 614 q 446 617 541 617 l 360 128 q 305 -2 346 49 q 136 -157 241 -82 q 46 -188 95 -188 q -16 -178 21 -188 q 1 -66 -1 -130 l 22 -54 q 108 -93 62 -93 q 199 -42 164 -93 q 247 132 222 -7 l 330 610 q 229 605 279 608 z "},"≈":{"ha":762,"x_min":20,"x_max":743,"o":"m 713 691 l 743 691 q 701 541 740 589 q 577 482 654 482 q 510 493 546 482 q 324 565 474 503 q 176 608 220 608 q 50 484 75 608 l 20 484 q 40 600 20 558 q 98 667 59 642 q 178 692 136 692 q 245 682 209 692 q 436 609 316 661 q 540 570 500 582 q 587 564 562 564 q 672 597 638 564 q 713 691 707 630 m 713 472 l 743 472 q 701 323 740 370 q 577 263 654 263 q 510 274 546 263 q 324 346 474 284 q 176 389 220 389 q 50 265 75 389 l 20 265 q 40 381 20 339 q 98 448 59 423 q 178 473 136 473 q 245 463 209 473 q 436 390 316 441 q 540 351 500 363 q 587 345 562 345 q 672 378 638 345 q 713 472 707 411 z "},"∆":{"ha":850,"x_min":18,"x_max":831,"o":"m 831 0 l 18 0 l 444 941 l 831 0 m 671 56 l 401 711 l 102 56 l 671 56 z "},"«":{"ha":694,"x_min":68,"x_max":627,"o":"m 311 572 l 346 549 q 182 326 241 408 q 346 102 266 203 l 311 79 q 68 316 181 212 l 68 334 q 311 572 161 420 m 591 572 l 627 549 q 463 326 522 410 q 627 102 547 203 l 591 79 q 349 316 460 214 l 349 334 q 591 572 441 420 z "},"»":{"ha":694,"x_min":68,"x_max":627,"o":"m 384 77 l 349 100 q 512 325 453 241 q 349 548 429 447 l 384 571 q 627 334 509 442 l 627 316 q 384 77 524 222 m 102 77 l 68 100 q 231 325 168 235 q 68 548 150 444 l 102 571 q 346 334 233 438 l 346 316 q 102 77 243 222 z "},"…":{"ha":1389,"x_min":153,"x_max":1236,"o":"m 232 140 q 288 117 264 140 q 311 61 311 94 q 288 5 311 28 q 232 -18 264 -18 q 176 5 199 -18 q 153 61 153 28 q 176 117 153 94 q 232 140 199 140 m 694 140 q 750 117 727 140 q 773 61 773 94 q 750 5 773 28 q 694 -18 727 -18 q 638 5 661 -18 q 615 61 615 28 q 638 117 615 94 q 694 140 661 140 m 1157 140 q 1213 117 1190 140 q 1236 61 1236 94 q 1213 5 1236 28 q 1157 -18 1190 -18 q 1101 5 1124 -18 q 1078 61 1078 28 q 1101 117 1078 94 q 1157 140 1124 140 z "}," ":{"ha":347,"x_min":0,"x_max":0,"o":""},"À":{"ha":1080,"x_min":26,"x_max":1053,"o":"m 711 321 l 319 321 l 273 212 q 228 79 228 103 q 236 56 228 63 q 279 45 245 50 l 345 38 l 345 -5 q 198 0 279 0 q 26 -5 100 0 l 26 38 l 47 39 q 108 48 94 40 q 138 90 122 57 q 236 301 186 188 l 422 724 q 524 968 497 892 l 570 968 l 913 170 q 960 72 948 88 q 986 48 971 55 q 1053 38 1001 41 l 1053 -5 q 885 0 965 0 q 686 -5 810 0 l 686 38 l 753 42 q 796 50 789 45 q 806 68 806 57 q 786 132 806 81 l 711 321 m 345 376 l 686 376 l 515 785 l 345 376 m 649 1029 l 467 1138 q 400 1186 415 1168 q 389 1215 389 1199 q 401 1245 389 1233 q 435 1257 414 1257 q 458 1251 448 1257 q 494 1221 469 1245 l 694 1029 l 649 1029 z "},"Ã":{"ha":1080,"x_min":26,"x_max":1053,"o":"m 711 321 l 319 321 l 273 212 q 228 79 228 103 q 236 56 228 63 q 279 45 245 50 l 345 38 l 345 -5 q 198 0 279 0 q 26 -5 100 0 l 26 38 l 47 39 q 108 48 94 40 q 138 90 122 57 q 236 301 186 188 l 422 724 q 524 968 497 892 l 570 968 l 913 170 q 960 72 948 88 q 986 48 971 55 q 1053 38 1001 41 l 1053 -5 q 885 0 965 0 q 686 -5 810 0 l 686 38 l 753 42 q 796 50 789 45 q 806 68 806 57 q 786 132 806 81 l 711 321 m 345 376 l 686 376 l 515 785 l 345 376 m 343 1072 l 307 1072 q 456 1206 345 1206 q 583 1171 504 1206 q 680 1141 651 1141 q 765 1211 736 1141 l 802 1211 q 744 1107 783 1143 q 655 1072 705 1072 q 536 1102 608 1072 q 425 1137 456 1137 q 343 1072 370 1137 z "},"Õ":{"ha":1092,"x_min":32,"x_max":1060,"o":"m 32 478 q 176 838 32 701 q 559 974 319 974 q 927 847 793 974 q 1060 511 1060 721 q 905 134 1060 286 q 515 -18 751 -18 q 262 41 368 -18 q 94 216 155 101 q 32 478 32 330 m 170 534 q 222 267 170 380 q 363 97 275 153 q 564 40 451 40 q 748 88 669 40 q 872 232 827 136 q 917 465 917 328 q 867 710 917 608 q 730 864 817 812 q 525 916 644 916 q 338 870 416 916 q 214 737 259 825 q 170 534 170 649 m 335 1072 l 298 1072 q 448 1206 337 1206 q 574 1171 496 1206 q 671 1141 643 1141 q 757 1211 728 1141 l 793 1211 q 736 1107 775 1143 q 647 1072 697 1072 q 528 1102 600 1072 q 416 1137 448 1137 q 335 1072 361 1137 z "},"Œ":{"ha":1386,"x_min":58,"x_max":1345,"o":"m 884 456 l 884 261 q 889 66 884 183 q 1031 58 958 58 q 1190 66 1133 58 q 1266 85 1227 71 q 1299 235 1290 153 l 1345 235 q 1329 5 1334 161 q 1161 -6 1245 -6 l 1051 -3 l 888 0 q 687 -10 809 0 q 554 -18 597 -18 q 290 41 396 -18 q 121 209 183 100 q 58 469 58 317 q 119 733 58 625 q 301 907 180 841 q 568 974 421 974 q 686 967 621 974 q 874 956 810 956 q 1030 959 907 956 q 1192 962 1137 962 q 1323 957 1263 962 q 1299 749 1299 869 l 1255 749 q 1246 875 1255 821 q 1046 903 1154 903 q 889 892 964 903 q 884 699 884 817 l 884 525 q 1007 521 945 521 q 1156 533 1137 521 q 1175 607 1175 546 l 1175 646 l 1220 646 q 1217 504 1217 572 q 1220 332 1217 431 l 1175 332 l 1175 389 q 1153 451 1175 439 q 1006 464 1131 464 q 884 456 945 464 m 751 73 q 761 342 761 194 l 761 669 q 751 869 761 785 q 555 916 660 916 q 363 868 446 916 q 238 734 281 821 q 196 515 196 648 q 311 160 196 296 q 575 40 413 40 q 751 73 662 40 z "},"œ":{"ha":1149,"x_min":45,"x_max":1105,"o":"m 663 328 q 712 142 667 206 q 899 52 777 52 q 982 64 944 52 q 1070 109 1020 76 l 1080 98 l 1057 48 q 952 -2 1006 15 q 841 -18 898 -18 q 711 8 768 -18 q 599 98 655 35 q 484 9 543 36 q 352 -18 425 -18 q 131 73 218 -18 q 45 319 45 165 q 132 556 45 471 q 376 651 229 651 q 505 627 448 651 q 614 548 562 603 q 724 628 669 604 q 846 651 778 651 q 1038 583 970 651 q 1105 393 1105 515 q 1103 347 1105 378 q 869 326 1012 326 l 663 328 m 663 382 q 901 375 774 375 q 986 377 935 375 l 988 414 q 945 558 988 508 q 833 608 901 608 q 713 550 762 608 q 663 382 665 492 m 556 294 q 490 530 556 444 q 345 603 435 603 q 214 545 264 603 q 163 374 163 486 q 194 185 163 267 q 274 67 225 103 q 382 31 322 31 q 508 94 459 31 q 556 294 556 158 z "},"–":{"ha":694,"x_min":45,"x_max":650,"o":"m 54 271 l 45 280 q 79 378 65 333 q 321 374 179 374 q 644 378 511 374 l 650 368 q 616 271 627 318 q 363 277 523 277 q 54 271 157 277 z "},"—":{"ha":1389,"x_min":216,"x_max":1173,"o":"m 224 271 l 216 280 q 250 378 236 333 q 601 374 353 374 q 1166 378 1029 374 l 1173 368 q 1139 271 1151 319 q 774 277 1045 277 q 224 271 332 277 z "},"“":{"ha":694,"x_min":40,"x_max":578,"o":"m 492 973 l 558 1010 l 578 994 q 497 835 521 903 q 469 688 474 767 q 333 650 411 674 l 313 666 q 397 834 358 768 q 492 973 435 901 m 218 973 l 285 1010 l 305 994 q 223 834 247 902 q 196 688 200 767 q 60 650 139 674 l 40 666 q 124 834 85 768 q 218 973 163 901 z "},"”":{"ha":694,"x_min":40,"x_max":578,"o":"m 127 687 l 60 650 l 40 667 q 121 825 98 758 q 149 972 144 893 q 285 1010 213 988 l 305 994 q 222 826 261 893 q 127 687 182 758 m 400 687 l 334 650 l 313 667 q 394 825 371 758 q 422 972 418 893 q 558 1010 486 988 l 578 994 q 495 825 534 892 q 400 687 456 759 z "},"‘":{"ha":386,"x_min":22,"x_max":288,"o":"m 201 973 l 267 1010 l 288 994 q 206 834 229 902 q 178 688 182 767 q 42 650 121 674 l 22 666 q 106 834 67 768 q 201 973 145 901 z "},"’":{"ha":386,"x_min":22,"x_max":288,"o":"m 109 687 l 43 650 l 22 667 q 103 826 80 758 q 132 972 127 893 q 267 1010 195 988 l 288 994 q 204 826 243 892 q 109 687 165 760 z "},"÷":{"ha":762,"x_min":40,"x_max":723,"o":"m 382 774 q 437 751 414 774 q 460 695 460 728 q 437 639 460 663 q 382 616 414 616 q 326 639 349 616 q 302 695 302 663 q 326 751 302 728 q 382 774 349 774 m 40 431 l 40 525 l 723 525 l 723 431 l 40 431 m 382 340 q 437 316 414 340 q 460 260 460 293 q 437 204 460 228 q 382 181 414 181 q 326 204 349 181 q 302 260 302 228 q 326 316 302 293 q 382 340 349 340 z "},"◊":{"ha":686,"x_min":32,"x_max":656,"o":"m 372 964 l 656 481 l 372 0 l 297 0 l 32 481 l 297 964 l 372 964 m 336 899 l 105 481 l 336 64 l 579 481 l 336 899 z "},"ÿ":{"ha":772,"x_min":8,"x_max":744,"o":"m 35 -368 l 67 -262 l 83 -262 q 119 -295 101 -284 q 157 -306 138 -306 q 233 -265 199 -306 q 340 -39 268 -224 q 220 262 310 40 l 157 417 l 106 536 q 35 599 83 599 l 8 599 l 8 638 q 133 633 79 633 q 329 638 175 633 l 329 599 l 279 599 q 241 590 253 599 q 229 568 229 581 q 242 522 229 557 q 404 117 311 333 q 559 498 493 315 q 579 563 579 551 q 533 591 579 585 l 483 599 l 483 638 q 625 633 563 633 q 744 638 684 633 l 744 599 l 720 599 q 688 590 705 599 q 662 564 672 581 q 536 300 640 530 q 391 -41 508 237 q 275 -299 288 -276 q 207 -368 248 -344 q 117 -392 165 -392 q 77 -386 98 -392 q 35 -368 56 -380 m 239 856 q 291 834 269 856 q 313 782 313 812 q 291 729 313 751 q 239 707 269 707 q 186 729 208 707 q 164 782 164 751 q 186 834 164 812 q 239 856 208 856 m 533 856 q 585 834 564 856 q 607 782 607 812 q 585 729 607 751 q 533 707 564 707 q 480 729 503 707 q 458 782 458 751 q 480 834 458 812 q 533 856 502 856 z "},"Ÿ":{"ha":926,"x_min":9,"x_max":895,"o":"m 504 473 q 635 690 545 535 l 790 960 l 895 960 l 895 943 q 692 663 812 850 q 549 412 572 475 q 541 297 541 389 q 547 102 541 174 q 561 56 551 64 q 630 43 570 48 l 682 37 l 682 -5 q 497 0 564 0 l 279 -5 l 279 37 l 336 37 q 406 61 394 37 q 417 275 417 85 q 414 397 417 331 q 252 675 326 557 q 127 846 178 792 q 79 886 100 876 q 9 895 58 895 l 9 937 q 119 959 37 943 l 172 970 q 222 941 203 958 q 326 795 256 909 q 504 473 380 707 m 316 1180 q 368 1158 347 1180 q 390 1106 390 1137 q 368 1053 390 1075 q 316 1031 347 1031 q 263 1053 285 1031 q 241 1106 241 1075 q 263 1158 241 1137 q 316 1180 285 1180 m 610 1180 q 663 1158 641 1180 q 684 1106 684 1137 q 663 1053 684 1075 q 610 1031 641 1031 q 558 1053 580 1031 q 536 1106 536 1075 q 557 1158 536 1137 q 610 1180 579 1180 z "},"⁄":{"ha":232,"x_min":-189,"x_max":420,"o":"m -189 -46 q -144 34 -165 -8 l 319 928 q 351 1002 341 969 q 395 998 380 998 l 420 998 q 378 926 395 958 l -96 20 q -126 -46 -114 -15 q -157 -44 -146 -44 q -189 -46 -167 -44 z "},"€":{"ha":694,"x_min":-22,"x_max":685,"o":"m 685 903 q 662 715 673 834 l 659 709 l 621 709 l 617 715 l 612 821 q 441 909 570 909 q 267 819 340 909 q 182 573 194 730 l 530 573 l 536 566 l 532 528 l 526 521 l 180 521 q 179 485 179 500 q 180 444 179 458 l 515 444 l 521 436 l 517 398 l 511 391 l 184 391 q 267 147 192 242 q 458 52 341 52 q 642 102 559 52 l 652 87 l 632 35 q 425 -18 545 -18 q 46 391 82 -18 l -18 391 l -22 398 l -19 436 l -14 444 l 43 444 q 42 486 42 463 q 43 521 42 503 l -18 521 l -22 528 l -19 566 l -14 573 l 50 573 q 187 854 73 735 q 453 974 302 974 q 682 909 596 974 l 685 903 z "},"‹":{"ha":460,"x_min":91,"x_max":369,"o":"m 334 572 l 369 549 q 205 326 264 408 q 369 102 289 203 l 334 79 q 91 316 204 212 l 91 334 q 334 572 184 420 z "},"›":{"ha":460,"x_min":91,"x_max":369,"o":"m 125 77 l 91 100 q 254 325 191 235 q 91 548 173 444 l 125 571 q 369 334 256 438 l 369 316 q 125 77 267 222 z "},"":{"ha":840,"x_min":15,"x_max":812,"o":"m 250 533 l 250 269 q 261 57 250 79 q 329 35 272 35 l 389 35 l 389 -5 q 229 1 277 1 l 15 -5 l 15 35 l 60 35 q 123 56 113 35 q 136 269 136 84 l 136 533 l 38 526 l 38 555 q 136 605 86 578 l 136 691 q 154 798 136 757 q 226 896 172 840 q 338 994 298 971 q 404 1010 364 1010 q 463 1001 431 1010 q 461 945 461 966 q 463 888 461 924 l 446 880 q 355 916 406 916 q 274 877 298 916 q 250 688 250 838 l 250 598 q 429 605 359 599 l 434 598 l 423 533 l 340 535 q 250 533 309 535 m 639 954 q 692 931 670 954 q 715 877 715 909 q 692 823 715 845 q 639 800 670 800 q 585 823 607 800 q 562 877 562 845 q 585 931 562 909 q 639 954 607 954 m 693 654 l 709 644 q 703 532 705 593 q 699 239 699 334 q 705 89 699 151 q 718 55 707 64 q 766 41 728 45 l 812 35 l 812 -5 q 632 0 713 0 q 471 -5 552 0 l 471 35 l 529 41 q 571 53 563 43 q 581 119 578 63 q 584 356 584 205 q 581 518 584 461 q 569 548 579 539 q 522 557 558 557 l 471 557 l 471 597 q 592 619 553 609 q 693 654 631 629 z "},"":{"ha":844,"x_min":15,"x_max":806,"o":"m 250 533 l 250 269 q 261 57 250 79 q 329 35 272 35 l 389 35 l 389 -5 q 229 1 277 1 l 15 -5 l 15 35 l 60 35 q 123 56 113 35 q 136 269 136 84 l 136 533 l 38 526 l 38 555 q 136 605 86 578 l 136 691 q 154 798 136 757 q 226 896 172 840 q 338 994 298 971 q 404 1010 364 1010 q 463 1001 431 1010 q 461 945 461 966 q 463 888 461 924 l 446 880 q 355 916 406 916 q 274 877 298 916 q 250 688 250 838 l 250 598 q 429 605 359 599 l 434 598 l 423 533 l 340 535 q 250 533 309 535 m 706 1002 q 694 643 694 804 l 694 294 q 703 59 694 87 q 748 41 708 45 l 806 35 l 806 -5 q 665 0 732 0 q 469 -5 590 0 l 469 35 l 528 39 q 572 59 566 43 q 581 300 581 85 l 581 646 l 580 777 l 578 865 q 570 906 578 899 q 525 917 559 917 l 469 917 l 469 958 q 694 1010 610 970 l 706 1002 z "},"‡":{"ha":694,"x_min":50,"x_max":644,"o":"m 58 38 l 50 45 q 54 96 54 76 q 50 140 54 115 l 58 148 q 294 137 155 136 l 295 192 q 284 359 295 260 q 295 526 295 458 l 294 581 q 58 570 150 581 l 50 578 q 54 622 54 603 q 50 673 54 642 l 58 680 q 294 667 189 667 q 280 949 294 850 l 290 960 q 346 957 328 957 q 399 960 366 957 l 410 949 q 399 667 398 839 q 637 680 541 667 l 644 673 q 642 628 642 647 q 644 578 642 606 l 637 570 q 399 581 513 581 q 400 468 399 498 q 410 359 401 438 q 400 250 401 279 q 399 137 399 220 q 637 148 510 136 l 644 140 q 642 90 642 112 q 644 45 642 71 l 637 38 q 399 50 539 52 q 410 -232 398 -121 l 399 -242 q 347 -239 368 -239 q 290 -242 325 -239 l 280 -232 q 294 50 294 -132 q 58 38 179 50 z "},"∙":{"ha":347,"x_min":94,"x_max":252,"o":"m 174 404 q 229 381 206 404 q 252 325 252 358 q 229 269 252 292 q 174 246 206 246 q 117 269 140 246 q 94 325 94 292 q 117 381 94 358 q 174 404 140 404 z "},"‚":{"ha":386,"x_min":22,"x_max":288,"o":"m 109 -153 l 43 -191 l 22 -174 q 103 -15 80 -83 q 132 132 127 52 q 267 170 189 146 l 288 154 q 204 -14 243 53 q 109 -153 165 -80 z "},"„":{"ha":694,"x_min":40,"x_max":578,"o":"m 400 -153 l 334 -191 l 313 -174 q 394 -15 371 -82 q 422 132 418 53 q 558 170 479 146 l 578 154 q 495 -14 534 54 q 400 -153 456 -81 m 127 -153 l 60 -191 l 40 -174 q 121 -15 98 -83 q 149 132 144 53 q 285 170 207 146 l 305 154 q 222 -14 261 53 q 127 -153 183 -80 z "},"‰":{"ha":1589,"x_min":117,"x_max":1472,"o":"m 308 546 q 171 604 226 546 q 117 758 117 663 q 178 925 117 859 q 325 991 240 991 q 463 933 408 991 q 518 781 518 876 q 458 611 518 677 q 308 546 397 546 m 313 579 q 391 624 361 579 q 421 778 421 669 q 395 915 421 875 q 323 954 368 954 q 249 914 275 954 q 214 753 214 859 q 241 619 214 659 q 313 579 269 579 m 239 -46 q 284 34 262 -8 l 747 928 q 779 1002 769 969 q 823 998 808 998 l 848 998 q 806 926 823 958 l 332 20 q 302 -46 314 -15 q 271 -44 281 -44 q 239 -46 261 -44 m 772 0 q 636 58 690 0 q 581 212 581 117 q 643 379 581 313 q 789 446 705 446 q 927 388 872 446 q 983 235 983 330 q 922 65 983 131 q 772 0 862 0 m 778 33 q 856 78 826 33 q 886 232 886 123 q 859 369 886 329 q 787 408 833 408 q 713 368 739 408 q 678 208 678 313 q 706 73 678 113 q 778 33 733 33 m 1261 0 q 1125 58 1179 0 q 1070 212 1070 117 q 1132 379 1070 313 q 1278 446 1194 446 q 1416 388 1361 446 q 1472 235 1472 330 q 1411 65 1472 131 q 1261 0 1351 0 m 1267 33 q 1345 78 1315 33 q 1375 232 1375 123 q 1348 369 1375 329 q 1276 408 1322 408 q 1202 368 1228 408 q 1167 208 1167 313 q 1195 73 1167 113 q 1267 33 1222 33 z "},"Â":{"ha":1080,"x_min":26,"x_max":1053,"o":"m 711 321 l 319 321 l 273 212 q 228 79 228 103 q 236 56 228 63 q 279 45 245 50 l 345 38 l 345 -5 q 198 0 279 0 q 26 -5 100 0 l 26 38 l 47 39 q 108 48 94 40 q 138 90 122 57 q 236 301 186 188 l 422 724 q 524 968 497 892 l 570 968 l 913 170 q 960 72 948 88 q 986 48 971 55 q 1053 38 1001 41 l 1053 -5 q 885 0 965 0 q 686 -5 810 0 l 686 38 l 753 42 q 796 50 789 45 q 806 68 806 57 q 786 132 806 81 l 711 321 m 345 376 l 686 376 l 515 785 l 345 376 m 353 1024 l 528 1257 l 593 1257 l 768 1024 l 725 1024 l 559 1171 l 396 1024 l 353 1024 z "},"Ê":{"ha":848,"x_min":36,"x_max":801,"o":"m 308 456 l 308 290 l 309 194 q 311 63 309 104 q 523 56 410 56 q 650 62 599 56 q 721 80 684 66 q 755 229 738 140 l 801 229 q 783 31 783 81 l 784 1 q 631 -7 706 -7 l 524 -5 q 265 0 348 0 q 54 -5 186 0 l 54 38 l 75 38 q 150 50 134 38 q 170 104 165 61 q 175 292 175 146 l 175 665 q 171 814 175 756 q 161 884 166 873 q 146 901 156 895 q 88 912 137 907 l 36 918 l 36 960 l 109 960 l 181 958 q 273 956 241 956 l 533 959 l 656 960 q 784 954 720 960 q 755 746 758 874 l 709 746 q 702 870 709 821 q 505 900 622 900 q 311 892 412 900 q 309 764 311 828 l 308 660 l 308 522 q 427 518 375 518 q 609 529 588 518 q 631 599 631 541 l 631 643 l 677 643 q 672 479 672 541 q 677 328 672 415 l 631 328 l 631 367 q 605 447 631 432 q 426 461 580 461 q 308 456 369 461 m 217 1024 l 391 1257 l 456 1257 l 631 1024 l 589 1024 l 422 1171 l 260 1024 l 217 1024 z "},"Á":{"ha":1080,"x_min":26,"x_max":1053,"o":"m 711 321 l 319 321 l 273 212 q 228 79 228 103 q 236 56 228 63 q 279 45 245 50 l 345 38 l 345 -5 q 198 0 279 0 q 26 -5 100 0 l 26 38 l 47 39 q 108 48 94 40 q 138 90 122 57 q 236 301 186 188 l 422 724 q 524 968 497 892 l 570 968 l 913 170 q 960 72 948 88 q 986 48 971 55 q 1053 38 1001 41 l 1053 -5 q 885 0 965 0 q 686 -5 810 0 l 686 38 l 753 42 q 796 50 789 45 q 806 68 806 57 q 786 132 806 81 l 711 321 m 345 376 l 686 376 l 515 785 l 345 376 m 452 1029 l 406 1029 l 607 1221 q 643 1251 632 1245 q 667 1257 654 1257 q 700 1245 687 1257 q 712 1215 712 1233 q 699 1184 712 1199 q 635 1138 686 1168 l 452 1029 z "},"Ë":{"ha":848,"x_min":36,"x_max":801,"o":"m 308 456 l 308 290 l 309 194 q 311 63 309 104 q 523 56 410 56 q 650 62 599 56 q 721 80 684 66 q 755 229 738 140 l 801 229 q 783 31 783 81 l 784 1 q 631 -7 706 -7 l 524 -5 q 265 0 348 0 q 54 -5 186 0 l 54 38 l 75 38 q 150 50 134 38 q 170 104 165 61 q 175 292 175 146 l 175 665 q 171 814 175 756 q 161 884 166 873 q 146 901 156 895 q 88 912 137 907 l 36 918 l 36 960 l 109 960 l 181 958 q 273 956 241 956 l 533 959 l 656 960 q 784 954 720 960 q 755 746 758 874 l 709 746 q 702 870 709 821 q 505 900 622 900 q 311 892 412 900 q 309 764 311 828 l 308 660 l 308 522 q 427 518 375 518 q 609 529 588 518 q 631 599 631 541 l 631 643 l 677 643 q 672 479 672 541 q 677 328 672 415 l 631 328 l 631 367 q 605 447 631 432 q 426 461 580 461 q 308 456 369 461 m 277 1180 q 330 1158 308 1180 q 351 1106 351 1137 q 330 1053 351 1075 q 277 1031 308 1031 q 224 1053 246 1031 q 203 1106 203 1075 q 224 1158 203 1137 q 277 1180 246 1180 m 572 1180 q 624 1158 602 1180 q 646 1106 646 1137 q 624 1053 646 1075 q 572 1031 602 1031 q 519 1053 541 1031 q 497 1106 497 1075 q 519 1158 497 1137 q 572 1180 541 1180 z "},"È":{"ha":848,"x_min":36,"x_max":801,"o":"m 308 456 l 308 290 l 309 194 q 311 63 309 104 q 523 56 410 56 q 650 62 599 56 q 721 80 684 66 q 755 229 738 140 l 801 229 q 783 31 783 81 l 784 1 q 631 -7 706 -7 l 524 -5 q 265 0 348 0 q 54 -5 186 0 l 54 38 l 75 38 q 150 50 134 38 q 170 104 165 61 q 175 292 175 146 l 175 665 q 171 814 175 756 q 161 884 166 873 q 146 901 156 895 q 88 912 137 907 l 36 918 l 36 960 l 109 960 l 181 958 q 273 956 241 956 l 533 959 l 656 960 q 784 954 720 960 q 755 746 758 874 l 709 746 q 702 870 709 821 q 505 900 622 900 q 311 892 412 900 q 309 764 311 828 l 308 660 l 308 522 q 427 518 375 518 q 609 529 588 518 q 631 599 631 541 l 631 643 l 677 643 q 672 479 672 541 q 677 328 672 415 l 631 328 l 631 367 q 605 447 631 432 q 426 461 580 461 q 308 456 369 461 m 512 1029 l 330 1138 q 263 1186 278 1168 q 252 1215 252 1199 q 264 1245 252 1233 q 298 1257 277 1257 q 321 1251 311 1257 q 357 1221 332 1245 l 557 1029 l 512 1029 z "},"Í":{"ha":468,"x_min":41,"x_max":430,"o":"m 41 38 l 84 38 q 160 68 147 38 q 172 361 172 99 l 172 591 q 161 890 172 862 q 96 918 151 918 l 41 918 l 41 960 q 264 956 154 956 q 430 960 355 956 l 430 918 l 378 918 q 317 906 330 918 q 303 848 305 895 q 300 589 300 775 l 300 355 q 311 65 300 92 q 385 38 323 38 l 430 38 l 430 -5 q 248 0 347 0 q 41 -5 134 0 l 41 38 m 163 1029 l 117 1029 l 318 1221 q 354 1251 343 1245 q 378 1257 365 1257 q 411 1245 398 1257 q 423 1215 423 1233 q 410 1184 423 1199 q 346 1138 397 1168 l 163 1029 z "},"Î":{"ha":468,"x_min":27,"x_max":441,"o":"m 42 38 l 85 38 q 160 68 148 38 q 173 361 173 99 l 173 591 q 162 890 173 862 q 97 918 151 918 l 42 918 l 42 960 q 264 956 155 956 q 431 960 356 956 l 431 918 l 378 918 q 318 906 330 918 q 304 848 306 895 q 300 589 300 775 l 300 355 q 312 65 300 92 q 386 38 323 38 l 431 38 l 431 -5 q 249 0 347 0 q 42 -5 134 0 l 42 38 m 27 1024 l 201 1257 l 267 1257 l 441 1024 l 399 1024 l 233 1171 l 70 1024 l 27 1024 z "},"Ï":{"ha":468,"x_min":12,"x_max":455,"o":"m 41 38 l 84 38 q 160 68 147 38 q 172 361 172 99 l 172 591 q 161 890 172 862 q 96 918 151 918 l 41 918 l 41 960 q 264 956 154 956 q 430 960 355 956 l 430 918 l 378 918 q 317 906 330 918 q 303 848 305 895 q 300 589 300 775 l 300 355 q 311 65 300 92 q 385 38 323 38 l 430 38 l 430 -5 q 248 0 347 0 q 41 -5 134 0 l 41 38 m 87 1180 q 139 1158 117 1180 q 161 1106 161 1137 q 139 1053 161 1075 q 87 1031 117 1031 q 34 1053 56 1031 q 12 1106 12 1075 q 34 1158 12 1137 q 87 1180 56 1180 m 381 1180 q 433 1158 412 1180 q 455 1106 455 1137 q 433 1053 455 1075 q 381 1031 412 1031 q 329 1053 351 1031 q 307 1106 307 1075 q 328 1158 307 1137 q 381 1180 350 1180 z "},"Ì":{"ha":468,"x_min":41,"x_max":430,"o":"m 41 38 l 84 38 q 160 68 147 38 q 172 361 172 99 l 172 591 q 161 890 172 862 q 96 918 151 918 l 41 918 l 41 960 q 264 956 154 956 q 430 960 355 956 l 430 918 l 378 918 q 317 906 330 918 q 303 848 305 895 q 300 589 300 775 l 300 355 q 311 65 300 92 q 385 38 323 38 l 430 38 l 430 -5 q 248 0 347 0 q 41 -5 134 0 l 41 38 m 322 1029 l 140 1138 q 73 1186 88 1168 q 62 1215 62 1199 q 75 1245 62 1233 q 108 1257 87 1257 q 132 1251 121 1257 q 168 1221 142 1245 l 368 1029 l 322 1029 z "},"Ó":{"ha":1092,"x_min":32,"x_max":1060,"o":"m 32 478 q 176 838 32 701 q 559 974 319 974 q 927 847 793 974 q 1060 511 1060 721 q 905 134 1060 286 q 515 -18 751 -18 q 262 41 368 -18 q 94 216 155 101 q 32 478 32 330 m 170 534 q 222 267 170 380 q 363 97 275 153 q 564 40 451 40 q 748 88 669 40 q 872 232 827 136 q 917 465 917 328 q 867 710 917 608 q 730 864 817 812 q 525 916 644 916 q 338 870 416 916 q 214 737 259 825 q 170 534 170 649 m 458 1029 l 412 1029 l 612 1221 q 648 1251 637 1245 q 673 1257 659 1257 q 705 1245 692 1257 q 718 1215 718 1233 q 704 1184 718 1199 q 640 1138 691 1168 l 458 1029 z "},"Ô":{"ha":1092,"x_min":32,"x_max":1060,"o":"m 32 478 q 176 838 32 701 q 559 974 319 974 q 927 847 793 974 q 1060 511 1060 721 q 905 134 1060 286 q 515 -18 751 -18 q 262 41 368 -18 q 94 216 155 101 q 32 478 32 330 m 170 534 q 222 267 170 380 q 363 97 275 153 q 564 40 451 40 q 748 88 669 40 q 872 232 827 136 q 917 465 917 328 q 867 710 917 608 q 730 864 817 812 q 525 916 644 916 q 338 870 416 916 q 214 737 259 825 q 170 534 170 649 m 338 1024 l 513 1257 l 578 1257 l 753 1024 l 710 1024 l 544 1171 l 381 1024 l 338 1024 z "},"":{"ha":1097,"x_min":0,"x_max":0,"o":""},"Ò":{"ha":1092,"x_min":32,"x_max":1060,"o":"m 32 478 q 176 838 32 701 q 559 974 319 974 q 927 847 793 974 q 1060 511 1060 721 q 905 134 1060 286 q 515 -18 751 -18 q 262 41 368 -18 q 94 216 155 101 q 32 478 32 330 m 170 534 q 222 267 170 380 q 363 97 275 153 q 564 40 451 40 q 748 88 669 40 q 872 232 827 136 q 917 465 917 328 q 867 710 917 608 q 730 864 817 812 q 525 916 644 916 q 338 870 416 916 q 214 737 259 825 q 170 534 170 649 m 634 1029 l 452 1138 q 385 1186 400 1168 q 374 1215 374 1199 q 387 1245 374 1233 q 420 1257 399 1257 q 444 1251 433 1257 q 479 1221 454 1245 l 680 1029 l 634 1029 z "},"Ú":{"ha":1080,"x_min":26,"x_max":1051,"o":"m 26 918 l 26 960 q 229 956 165 956 q 424 960 295 956 l 424 918 l 374 918 q 298 893 311 918 q 285 672 285 869 l 285 406 q 301 203 285 260 q 383 107 317 146 q 561 68 450 68 q 754 110 675 68 q 833 200 808 139 q 859 433 859 262 l 859 689 q 843 892 859 867 q 755 918 827 918 l 720 918 l 720 960 q 898 956 860 956 q 1051 960 960 956 l 1051 918 l 1005 918 q 936 889 951 918 q 921 686 921 860 l 921 432 q 904 197 921 258 q 841 87 886 136 q 719 10 795 39 q 539 -18 642 -18 q 353 7 433 -18 q 232 70 273 33 q 174 161 192 107 q 156 345 156 215 l 157 473 l 157 680 q 146 895 157 871 q 75 918 135 918 l 26 918 m 452 1029 l 406 1029 l 607 1221 q 643 1251 632 1245 q 667 1257 654 1257 q 700 1245 687 1257 q 712 1215 712 1233 q 699 1184 712 1199 q 635 1138 686 1168 l 452 1029 z "},"Û":{"ha":1080,"x_min":26,"x_max":1051,"o":"m 26 918 l 26 960 q 229 956 165 956 q 424 960 295 956 l 424 918 l 374 918 q 298 893 311 918 q 285 672 285 869 l 285 406 q 301 203 285 260 q 383 107 317 146 q 561 68 450 68 q 754 110 675 68 q 833 200 808 139 q 859 433 859 262 l 859 689 q 843 892 859 867 q 755 918 827 918 l 720 918 l 720 960 q 898 956 860 956 q 1051 960 960 956 l 1051 918 l 1005 918 q 936 889 951 918 q 921 686 921 860 l 921 432 q 904 197 921 258 q 841 87 886 136 q 719 10 795 39 q 539 -18 642 -18 q 353 7 433 -18 q 232 70 273 33 q 174 161 192 107 q 156 345 156 215 l 157 473 l 157 680 q 146 895 157 871 q 75 918 135 918 l 26 918 m 333 1024 l 507 1257 l 572 1257 l 747 1024 l 705 1024 l 538 1171 l 376 1024 l 333 1024 z "},"Ù":{"ha":1080,"x_min":26,"x_max":1051,"o":"m 26 918 l 26 960 q 229 956 165 956 q 424 960 295 956 l 424 918 l 374 918 q 298 893 311 918 q 285 672 285 869 l 285 406 q 301 203 285 260 q 383 107 317 146 q 561 68 450 68 q 754 110 675 68 q 833 200 808 139 q 859 433 859 262 l 859 689 q 843 892 859 867 q 755 918 827 918 l 720 918 l 720 960 q 898 956 860 956 q 1051 960 960 956 l 1051 918 l 1005 918 q 936 889 951 918 q 921 686 921 860 l 921 432 q 904 197 921 258 q 841 87 886 136 q 719 10 795 39 q 539 -18 642 -18 q 353 7 433 -18 q 232 70 273 33 q 174 161 192 107 q 156 345 156 215 l 157 473 l 157 680 q 146 895 157 871 q 75 918 135 918 l 26 918 m 629 1029 l 446 1138 q 380 1186 395 1168 q 369 1215 369 1199 q 381 1245 369 1233 q 414 1257 393 1257 q 438 1251 427 1257 q 474 1221 449 1245 l 674 1029 l 629 1029 z "},"ı":{"ha":399,"x_min":32,"x_max":374,"o":"m 254 654 l 271 644 q 264 532 266 593 q 260 239 260 334 q 266 89 260 151 q 279 55 269 64 q 328 41 289 45 l 374 35 l 374 -5 q 193 0 275 0 q 32 -5 113 0 l 32 35 l 90 41 q 130 52 124 43 q 142 119 140 63 q 145 356 145 205 q 142 518 145 461 q 130 548 140 539 q 83 557 119 557 l 32 557 l 32 597 q 154 619 115 609 q 254 654 193 629 z "},"ˆ":{"ha":463,"x_min":24,"x_max":439,"o":"m 24 700 l 199 933 l 264 933 l 439 700 l 396 700 l 230 847 l 67 700 l 24 700 z "},"˜":{"ha":463,"x_min":-16,"x_max":479,"o":"m 20 747 l -16 747 q 134 882 22 882 q 260 847 181 882 q 357 817 328 817 q 442 887 414 817 l 479 887 q 421 783 460 819 q 332 747 382 747 q 214 778 286 747 q 102 812 134 812 q 20 747 47 812 z "},"ˉ":{"ha":463,"x_min":57,"x_max":406,"o":"m 57 786 l 57 848 l 406 848 l 406 786 l 57 786 z "},"˘":{"ha":463,"x_min":35,"x_max":427,"o":"m 35 933 l 75 933 q 124 821 81 861 q 231 781 167 781 q 338 821 295 781 q 387 933 380 861 l 427 933 q 385 774 422 826 q 231 700 332 700 q 78 773 131 700 q 35 933 40 827 z "},"˙":{"ha":347,"x_min":100,"x_max":247,"o":"m 174 954 q 225 932 204 954 q 247 880 247 911 q 225 827 247 849 q 174 806 203 806 q 121 827 143 806 q 100 880 100 849 q 121 932 100 911 q 174 954 142 954 z "},"˚":{"ha":463,"x_min":90,"x_max":372,"o":"m 231 1010 q 331 969 290 1010 q 372 869 372 928 q 331 770 372 812 q 231 729 290 729 q 132 770 173 729 q 90 869 90 812 q 131 969 90 928 q 231 1010 172 1010 m 231 941 q 185 920 204 941 q 165 869 165 899 q 185 819 165 840 q 231 799 204 799 q 278 819 258 799 q 297 869 297 840 q 278 920 297 899 q 231 941 258 941 z "},"¸":{"ha":463,"x_min":125,"x_max":412,"o":"m 303 0 l 273 -72 q 311 -68 296 -68 q 385 -92 357 -68 q 412 -154 412 -117 q 370 -235 412 -201 q 256 -269 328 -269 q 125 -240 193 -269 l 146 -199 q 252 -221 214 -221 q 306 -205 287 -221 q 324 -163 324 -189 q 308 -124 324 -139 q 262 -110 292 -110 q 224 -117 245 -110 l 214 -108 l 262 0 l 303 0 z "},"˝":{"ha":528,"x_min":35,"x_max":494,"o":"m 73 697 l 35 697 l 149 872 q 190 927 178 918 q 217 936 201 936 q 250 924 236 936 q 263 895 263 911 q 255 871 263 883 q 211 825 248 859 l 73 697 m 267 697 l 227 697 l 372 871 q 421 923 408 915 q 449 932 434 932 q 481 919 468 932 q 494 889 494 907 q 485 865 494 876 q 423 814 477 854 l 267 697 z "},"˛":{"ha":435,"x_min":83,"x_max":351,"o":"m 311 0 q 213 -67 246 -28 q 180 -147 180 -106 q 201 -208 180 -184 q 254 -231 222 -231 q 289 -223 273 -231 q 329 -189 304 -215 l 351 -210 q 197 -300 279 -300 q 115 -270 146 -300 q 83 -195 83 -239 q 127 -85 83 -138 q 256 0 172 -33 l 311 0 z "},"ˇ":{"ha":463,"x_min":24,"x_max":439,"o":"m 439 933 l 264 700 l 199 700 l 24 933 l 66 933 l 233 786 l 396 933 l 439 933 z "},"Ł":{"ha":848,"x_min":29,"x_max":815,"o":"m 300 62 q 422 58 361 58 q 625 65 554 58 q 730 85 676 70 l 770 244 l 815 244 q 788 5 797 105 q 622 -5 727 -5 l 298 0 q 94 -7 233 0 l 94 28 q 157 76 149 52 q 168 294 168 106 l 168 419 l 35 326 l 35 397 l 168 491 l 168 667 q 159 888 168 867 q 103 913 150 910 l 29 918 l 29 960 q 248 956 184 956 q 435 960 332 956 l 435 918 l 352 913 q 304 891 313 911 q 296 725 296 871 l 296 562 l 532 728 l 532 656 l 296 488 l 296 293 q 300 62 296 161 z "},"ł":{"ha":404,"x_min":33,"x_max":370,"o":"m 269 1002 l 268 985 q 258 633 258 800 l 370 729 l 370 657 l 258 560 l 258 294 q 267 59 258 86 q 310 41 271 45 l 370 35 l 370 -5 q 222 0 289 0 q 33 -5 156 0 l 33 35 l 92 39 q 136 59 131 43 q 144 300 144 85 l 144 475 l 36 379 l 36 452 l 144 549 l 144 646 l 144 776 l 142 865 q 134 905 142 897 q 90 916 125 913 l 33 918 l 33 958 q 255 1010 173 970 l 269 1002 z "},"Š":{"ha":729,"x_min":18,"x_max":710,"o":"m 651 915 q 631 728 632 844 l 584 728 l 584 782 q 570 854 584 835 q 495 894 555 873 q 369 916 435 916 q 198 861 260 916 q 136 720 136 806 q 162 626 136 665 q 230 570 187 587 q 413 540 273 553 q 602 504 553 526 q 681 432 651 481 q 710 315 710 382 q 596 80 710 178 q 292 -18 482 -18 q 161 -5 227 -18 q 28 34 95 8 q 39 243 40 115 l 85 243 l 85 209 q 92 127 85 143 q 124 94 99 112 q 213 54 161 68 q 324 40 264 40 q 522 100 452 40 q 592 254 592 161 q 568 346 592 308 q 502 401 545 383 q 344 429 459 420 q 136 466 191 441 q 50 543 81 490 q 18 673 18 595 q 114 890 18 806 q 378 974 210 974 q 514 959 446 974 q 651 915 583 945 m 572 1257 l 397 1024 l 332 1024 l 158 1257 l 200 1257 l 367 1110 l 530 1257 l 572 1257 z "},"š":{"ha":589,"x_min":49,"x_max":542,"o":"m 103 203 l 103 159 q 113 93 103 106 q 181 51 130 71 q 287 31 233 31 q 401 68 357 31 q 445 158 445 106 q 419 224 445 199 q 321 264 393 250 q 142 312 186 292 q 77 366 99 332 q 56 448 56 400 q 121 595 56 538 q 307 651 186 651 q 496 613 401 651 q 487 458 490 567 l 447 458 q 434 537 446 518 q 377 583 418 562 q 289 603 336 603 q 190 571 227 603 q 153 492 153 540 q 182 424 153 447 q 344 374 212 400 q 473 337 441 354 q 523 286 504 320 q 542 206 542 251 q 464 48 542 115 q 254 -18 385 -18 q 67 8 171 -18 q 49 22 49 13 l 51 32 q 56 68 54 42 q 62 170 62 134 l 61 203 l 103 203 m 502 933 l 327 700 l 262 700 l 87 933 l 130 933 l 296 786 l 459 933 l 502 933 z "},"Ž":{"ha":926,"x_min":31,"x_max":876,"o":"m 214 58 l 509 58 q 749 63 692 58 q 797 83 782 66 q 818 161 811 99 l 826 239 l 876 239 q 863 33 863 132 l 863 -5 q 736 -7 781 -7 q 574 -3 699 -7 q 324 0 440 0 q 31 -5 134 0 l 31 35 q 203 249 103 116 l 510 656 q 688 896 635 821 q 517 900 589 900 q 256 890 395 900 q 184 876 195 886 q 169 814 173 865 l 162 734 l 118 734 q 122 849 122 808 q 118 961 122 889 l 202 962 l 733 956 q 876 961 819 956 l 876 920 q 768 791 808 842 l 551 506 l 214 58 m 710 1257 l 535 1024 l 470 1024 l 296 1257 l 338 1257 l 505 1110 l 667 1257 l 710 1257 z "},"ž":{"ha":694,"x_min":29,"x_max":656,"o":"m 36 -5 l 29 27 q 208 237 95 99 q 480 587 360 426 q 224 581 311 587 q 156 569 165 578 q 140 512 147 561 l 130 454 l 91 454 q 98 569 98 519 l 97 632 l 102 637 q 417 633 310 633 q 640 637 530 633 l 640 601 q 571 520 605 562 l 465 387 q 203 49 397 304 l 289 47 q 533 57 430 47 q 585 73 573 61 q 608 157 596 85 l 616 197 l 656 197 q 640 3 640 72 q 536 -3 593 -3 l 290 0 q 36 -5 139 0 m 555 933 l 380 700 l 315 700 l 140 933 l 182 933 l 349 786 l 512 933 l 555 933 z "},"¦":{"ha":842,"x_min":386,"x_max":475,"o":"m 386 1010 l 475 1010 l 475 441 l 386 376 l 386 1010 m 386 266 l 475 330 l 475 -319 l 386 -319 l 386 266 z "},"Ð":{"ha":1075,"x_min":31,"x_max":1023,"o":"m 161 456 l 112 457 l 71 456 l 38 454 l 31 460 l 38 515 q 161 511 79 513 l 161 627 q 153 836 161 748 q 141 895 149 886 q 85 909 133 903 l 31 918 l 31 960 q 181 957 142 957 l 363 958 l 512 961 q 696 943 602 962 q 867 867 790 924 q 983 723 943 810 q 1023 524 1023 637 q 869 144 1023 294 q 466 -5 715 -5 l 382 -3 q 227 1 260 1 q 87 -7 172 1 l 87 26 l 151 63 q 161 456 161 168 m 289 457 l 289 296 q 297 66 289 174 q 458 53 389 53 q 753 151 648 53 q 880 496 880 269 q 775 798 880 694 q 466 902 669 902 q 297 888 395 902 q 289 740 289 823 l 289 513 l 456 513 q 566 517 511 513 l 572 512 l 561 453 q 406 457 463 457 l 289 457 z "},"ð":{"ha":758,"x_min":47,"x_max":711,"o":"m 342 873 l 199 794 l 155 831 l 290 908 q 104 970 208 953 l 123 1015 q 238 991 189 1006 q 355 944 287 977 l 509 1031 l 555 993 l 413 914 q 634 685 557 825 q 711 372 711 545 q 613 89 711 195 q 364 -18 514 -18 q 135 73 223 -18 q 47 313 47 163 q 87 488 47 413 q 201 607 127 563 q 357 651 275 651 q 456 632 410 651 q 548 568 501 613 q 342 873 490 762 m 175 375 q 206 184 175 266 q 287 67 237 103 q 399 31 336 31 q 533 95 482 31 q 584 295 584 160 q 520 523 584 442 q 361 603 457 603 q 227 544 278 603 q 175 375 175 486 z "},"Ý":{"ha":926,"x_min":9,"x_max":895,"o":"m 504 473 q 635 690 545 535 l 790 960 l 895 960 l 895 943 q 692 663 812 850 q 549 412 572 475 q 541 297 541 389 q 547 102 541 174 q 561 56 551 64 q 630 43 570 48 l 682 37 l 682 -5 q 497 0 564 0 l 279 -5 l 279 37 l 336 37 q 406 61 394 37 q 417 275 417 85 q 414 397 417 331 q 252 675 326 557 q 127 846 178 792 q 79 886 100 876 q 9 895 58 895 l 9 937 q 119 959 37 943 l 172 970 q 222 941 203 958 q 326 795 256 909 q 504 473 380 707 m 409 1029 l 363 1029 l 564 1221 q 600 1251 589 1245 q 624 1257 610 1257 q 656 1245 644 1257 q 669 1215 669 1233 q 655 1184 669 1199 q 591 1138 642 1168 l 409 1029 z "},"ý":{"ha":772,"x_min":8,"x_max":744,"o":"m 35 -368 l 67 -262 l 83 -262 q 119 -295 101 -284 q 157 -306 138 -306 q 233 -265 199 -306 q 340 -39 268 -224 q 220 262 310 40 l 157 417 l 106 536 q 35 599 83 599 l 8 599 l 8 638 q 133 633 79 633 q 329 638 175 633 l 329 599 l 279 599 q 241 590 253 599 q 229 568 229 581 q 242 522 229 557 q 404 117 311 333 q 559 498 493 315 q 579 563 579 551 q 533 591 579 585 l 483 599 l 483 638 q 625 633 563 633 q 744 638 684 633 l 744 599 l 720 599 q 688 590 705 599 q 662 564 672 581 q 536 300 640 530 q 391 -41 508 237 q 275 -299 288 -276 q 207 -368 248 -344 q 117 -392 165 -392 q 77 -386 98 -392 q 35 -368 56 -380 m 298 704 l 252 704 l 453 896 q 489 926 478 920 q 513 932 500 932 q 546 920 533 932 q 558 890 558 908 q 545 859 558 874 q 481 813 532 844 l 298 704 z "},"Þ":{"ha":839,"x_min":31,"x_max":822,"o":"m 297 296 l 297 271 q 310 62 297 86 q 389 38 322 38 l 436 38 l 436 -5 q 247 0 316 0 q 31 -5 186 0 l 31 38 l 92 38 q 146 48 134 38 q 162 91 159 59 q 170 288 165 123 l 170 667 q 155 897 170 864 q 92 918 146 918 l 31 918 l 31 960 q 243 956 186 956 q 436 960 309 956 l 436 918 l 389 918 q 313 899 326 918 q 298 758 300 880 q 519 766 418 766 q 748 706 674 766 q 822 545 822 646 q 726 339 822 427 q 488 251 629 251 q 297 296 397 251 m 297 348 q 385 313 336 326 q 476 300 434 300 q 624 356 569 300 q 679 512 679 413 q 620 659 679 606 q 444 713 561 713 q 297 689 376 713 l 297 348 z "},"þ":{"ha":835,"x_min":28,"x_max":782,"o":"m 262 514 l 357 598 q 418 638 393 630 q 512 651 458 651 q 707 576 633 651 q 782 384 782 502 q 765 268 782 325 q 724 174 748 210 q 669 113 699 138 q 586 60 659 105 l 559 40 q 476 -7 507 4 q 404 -18 444 -18 q 336 -9 372 -18 q 262 18 301 0 l 262 -78 q 267 -286 262 -225 q 279 -320 269 -312 q 347 -336 298 -336 l 383 -336 l 383 -374 q 195 -370 255 -370 q 28 -374 130 -370 l 28 -336 l 77 -336 q 139 -313 130 -336 q 149 -75 149 -291 l 149 699 q 143 867 149 808 q 130 905 140 896 q 81 914 119 914 l 28 914 l 28 956 q 212 994 123 966 l 255 1010 q 265 993 265 1010 q 263 903 265 957 l 262 886 l 262 514 m 262 141 q 349 72 306 92 q 443 52 393 52 q 607 132 550 52 q 664 324 664 213 q 638 452 664 399 q 562 535 612 505 q 454 566 511 566 q 374 549 413 566 q 306 504 335 533 q 269 451 277 475 q 262 354 262 433 l 262 141 z "},"−":{"ha":842,"x_min":79,"x_max":762,"o":"m 79 431 l 79 525 l 762 525 l 762 431 l 79 431 z "},"×":{"ha":842,"x_min":126,"x_max":716,"o":"m 126 706 l 193 773 l 421 545 l 650 773 l 716 706 l 488 478 l 716 250 l 650 183 l 421 411 l 193 183 l 126 250 l 355 478 l 126 706 z "},"¹":{"ha":431,"x_min":22,"x_max":373,"o":"m 66 372 l 66 408 l 103 408 q 168 422 157 408 q 178 517 178 435 l 180 749 q 179 866 180 858 q 170 875 177 875 q 148 867 167 875 q 49 821 104 850 q 37 817 42 817 q 25 827 26 817 l 22 869 q 252 956 155 907 l 269 949 q 261 564 268 916 l 260 489 q 271 421 260 433 q 330 409 281 410 l 373 408 l 373 372 l 219 375 q 66 372 172 375 z "},"²":{"ha":431,"x_min":12,"x_max":418,"o":"m 12 373 l 12 402 l 159 547 q 270 680 243 631 q 297 772 297 730 q 266 855 297 823 q 183 886 235 886 q 102 865 129 886 q 66 777 87 852 l 31 777 q 47 897 45 862 q 117 944 78 928 q 202 960 156 960 q 335 914 286 960 q 385 796 385 869 q 350 685 385 741 q 194 522 315 629 l 166 496 l 121 452 l 263 452 q 410 457 358 452 l 418 450 q 415 416 415 426 q 418 377 415 409 l 410 373 q 274 375 330 375 q 12 373 121 375 z "},"³":{"ha":431,"x_min":5,"x_max":400,"o":"m 21 793 l 45 898 q 111 944 73 929 q 195 960 149 960 q 312 923 269 960 q 354 834 354 887 q 337 770 354 800 q 271 701 319 739 q 358 669 317 701 q 400 578 400 637 q 327 431 400 496 q 149 366 253 366 q 95 371 122 366 q 41 387 68 376 q 5 513 33 439 l 37 526 q 89 443 69 459 q 183 414 123 414 q 279 449 245 414 q 313 547 313 485 q 284 629 313 600 q 208 659 256 659 q 127 637 170 659 l 116 645 l 125 698 q 168 694 157 694 q 248 724 217 694 q 279 798 279 753 q 252 865 279 839 q 178 890 224 890 q 126 881 153 890 q 84 856 100 871 q 67 824 75 848 l 56 793 l 21 793 z "},"½":{"ha":1093,"x_min":22,"x_max":1080,"o":"m 66 372 l 66 408 l 103 408 q 168 422 157 408 q 178 517 178 435 l 180 749 q 179 866 180 858 q 170 875 177 875 q 148 867 167 875 q 49 821 104 850 q 37 817 42 817 q 25 827 26 817 l 22 869 q 252 956 155 907 l 269 949 q 261 564 268 916 l 260 489 q 271 421 260 433 q 330 409 281 410 l 373 408 l 373 372 l 219 375 q 66 372 172 375 m 241 -46 q 286 34 264 -8 l 749 928 q 781 1002 771 969 q 825 998 810 998 l 850 998 q 808 926 825 958 l 334 20 q 304 -46 316 -15 q 273 -44 283 -44 q 241 -46 263 -44 m 674 -3 l 674 26 l 821 172 q 932 304 905 255 q 959 396 959 354 q 928 479 959 448 q 845 511 897 511 q 764 489 791 511 q 728 401 749 477 l 693 401 q 709 521 707 486 q 779 568 740 553 q 864 584 818 584 q 997 538 948 584 q 1046 420 1046 493 q 1011 310 1046 366 q 856 146 977 254 l 828 120 l 783 76 l 925 76 q 1072 81 1020 76 l 1080 75 q 1077 41 1077 50 q 1080 1 1077 33 l 1072 -3 q 936 -1 992 -1 q 674 -3 783 -1 z "},"¼":{"ha":1093,"x_min":22,"x_max":1072,"o":"m 66 372 l 66 408 l 103 408 q 168 422 157 408 q 178 517 178 435 l 180 749 q 179 866 180 858 q 170 875 177 875 q 148 867 167 875 q 49 821 104 850 q 37 817 42 817 q 25 827 26 817 l 22 869 q 252 956 155 907 l 269 949 q 261 564 268 916 l 260 489 q 271 421 260 433 q 330 409 281 410 l 373 408 l 373 372 l 219 375 q 66 372 172 375 m 241 -46 q 286 34 264 -8 l 749 928 q 781 1002 770 969 q 824 998 809 998 l 850 998 q 807 926 824 958 l 334 20 q 303 -46 315 -15 q 273 -44 283 -44 q 241 -46 262 -44 m 788 -6 l 789 33 l 839 35 q 887 46 882 38 q 895 134 895 58 l 895 150 q 666 146 742 150 l 656 176 q 903 559 769 363 q 964 583 939 571 l 981 576 q 977 210 977 505 q 1072 216 1027 210 q 1069 181 1069 195 q 1072 146 1069 168 q 977 150 1023 151 q 982 50 976 62 q 1024 35 989 37 l 1072 33 l 1072 -1 q 941 3 988 3 l 788 -6 m 895 476 q 726 210 816 368 l 807 209 l 895 210 l 895 476 z "},"¾":{"ha":1093,"x_min":5,"x_max":1072,"o":"m 21 793 l 45 898 q 111 944 73 929 q 195 960 149 960 q 312 923 269 960 q 354 834 354 887 q 337 770 354 800 q 271 701 319 739 q 358 669 317 701 q 400 578 400 637 q 327 431 400 496 q 149 366 253 366 q 95 371 122 366 q 41 387 68 376 q 5 513 33 439 l 37 526 q 89 443 69 459 q 183 414 123 414 q 279 449 245 414 q 313 547 313 485 q 284 629 313 600 q 208 659 256 659 q 127 637 170 659 l 116 645 l 125 698 q 168 694 157 694 q 248 724 217 694 q 279 798 279 753 q 252 865 279 839 q 178 890 224 890 q 126 881 153 890 q 84 856 100 871 q 67 824 75 848 l 56 793 l 21 793 m 241 -46 q 286 34 264 -8 l 749 928 q 781 1002 771 969 q 825 998 810 998 l 850 998 q 808 926 825 958 l 334 20 q 304 -46 316 -15 q 273 -44 283 -44 q 241 -46 263 -44 m 788 -6 l 789 33 l 839 35 q 887 46 882 38 q 895 134 895 58 l 895 150 q 666 146 742 150 l 656 176 q 903 559 769 363 q 964 583 939 571 l 981 576 q 977 210 977 505 q 1072 216 1027 210 q 1069 181 1069 195 q 1072 146 1069 168 q 977 150 1023 151 q 982 50 976 62 q 1024 35 989 37 l 1072 33 l 1072 -1 q 941 3 988 3 l 788 -6 m 895 476 q 726 210 816 368 l 807 209 l 895 210 l 895 476 z "},"₣":{"ha":772,"x_min":25,"x_max":733,"o":"m 164 281 l 164 735 q 150 895 164 873 q 74 918 135 918 l 25 918 l 25 960 q 228 956 138 956 l 618 963 q 733 957 679 963 q 709 751 711 884 l 666 751 q 650 878 662 822 q 462 902 557 902 q 300 893 379 902 q 292 733 292 805 l 292 517 q 372 515 332 515 q 550 521 473 515 q 585 532 576 522 q 600 585 594 542 l 607 636 l 650 636 q 644 477 644 512 l 644 317 l 600 317 l 600 369 q 576 445 600 431 q 395 458 553 458 q 292 456 351 458 l 292 281 l 342 281 q 452 285 395 281 l 458 279 l 446 220 l 316 224 l 292 224 q 307 61 292 84 q 382 37 321 37 l 431 37 l 431 -5 q 225 0 302 0 q 25 -5 148 0 l 25 37 l 79 37 q 147 55 133 37 q 162 149 161 72 l 164 224 l 94 224 q 36 222 75 224 l 28 229 l 36 283 q 104 281 62 281 l 164 281 z "},"Ğ":{"ha":1060,"x_min":17,"x_max":1018,"o":"m 970 316 q 960 200 960 259 q 970 60 960 138 q 767 3 880 24 q 549 -18 653 -18 q 268 44 389 -18 q 82 219 147 107 q 17 472 17 330 q 87 733 17 618 q 281 910 157 847 q 597 974 406 974 q 741 964 675 974 q 913 923 807 954 l 970 907 q 941 707 952 836 l 899 707 l 899 751 q 888 829 899 818 q 781 883 868 851 q 581 916 693 916 q 275 808 381 916 q 160 500 160 692 q 264 189 160 315 q 597 40 386 40 q 835 88 707 40 q 839 210 839 145 q 836 306 839 293 q 826 322 833 318 q 755 331 819 326 l 675 338 l 675 381 q 906 374 831 374 q 1018 381 971 374 l 1018 347 l 970 316 m 375 1257 l 414 1257 q 464 1145 421 1185 q 571 1105 507 1105 q 677 1145 635 1105 q 727 1257 720 1185 l 767 1257 q 724 1098 762 1150 q 571 1024 671 1024 q 418 1097 471 1024 q 375 1257 380 1151 z "},"ğ":{"ha":772,"x_min":57,"x_max":768,"o":"m 607 525 q 623 454 623 481 q 586 337 623 393 q 481 247 549 281 q 335 213 414 213 l 303 214 q 247 164 258 180 q 235 132 235 148 q 261 92 235 106 q 369 77 288 77 q 458 79 400 77 q 579 82 542 82 q 661 65 633 82 q 710 4 690 47 q 730 -93 730 -39 q 684 -238 730 -169 q 550 -350 638 -308 q 347 -392 462 -392 q 132 -331 208 -392 q 57 -182 57 -271 q 96 -71 57 -127 q 215 -3 167 -37 q 143 30 159 15 q 127 69 127 45 q 143 125 127 98 q 188 167 152 142 l 254 214 q 136 271 172 234 q 89 399 89 321 q 124 524 89 468 q 228 613 159 581 q 397 654 315 654 q 487 641 448 654 q 567 595 526 627 l 624 595 q 761 600 712 595 l 768 586 q 732 525 748 557 l 607 525 m 504 418 q 460 554 504 503 q 351 606 417 606 q 247 564 286 606 q 207 447 207 522 q 250 306 207 357 q 358 254 293 254 q 464 297 423 254 q 504 418 504 340 m 319 -14 q 254 -25 271 -14 q 184 -84 197 -62 q 164 -173 164 -119 q 219 -295 164 -247 q 372 -343 274 -343 q 504 -315 447 -343 q 592 -239 561 -288 q 624 -139 624 -191 q 602 -62 624 -95 q 549 -19 580 -28 q 478 -14 534 -14 l 319 -14 m 191 933 l 230 933 q 279 821 237 861 q 387 781 322 781 q 493 821 450 781 q 543 933 536 861 l 583 933 q 540 774 577 826 q 387 700 487 700 q 233 773 286 700 q 191 933 195 827 z "},"İ":{"ha":468,"x_min":41,"x_max":430,"o":"m 41 38 l 84 38 q 160 68 147 38 q 172 361 172 99 l 172 591 q 161 890 172 862 q 96 918 151 918 l 41 918 l 41 960 q 264 956 154 956 q 430 960 355 956 l 430 918 l 378 918 q 317 906 330 918 q 303 848 305 895 q 300 589 300 775 l 300 355 q 311 65 300 92 q 385 38 323 38 l 430 38 l 430 -5 q 248 0 347 0 q 41 -5 134 0 l 41 38 m 250 1231 q 302 1209 281 1231 q 323 1157 323 1187 q 302 1104 323 1126 q 250 1082 280 1082 q 198 1104 220 1082 q 176 1157 176 1126 q 198 1209 176 1187 q 250 1231 219 1231 z "},"Ş":{"ha":729,"x_min":18,"x_max":710,"o":"m 651 915 q 631 728 632 844 l 584 728 l 584 782 q 570 854 584 835 q 495 894 555 873 q 369 916 435 916 q 198 861 260 916 q 136 720 136 806 q 162 626 136 665 q 230 570 187 587 q 413 540 273 553 q 602 504 553 526 q 681 432 651 481 q 710 315 710 382 q 596 80 710 178 q 292 -18 482 -18 q 161 -5 227 -18 q 28 34 95 8 q 39 243 40 115 l 85 243 l 85 209 q 92 127 85 143 q 124 94 99 112 q 213 54 161 68 q 324 40 264 40 q 522 100 452 40 q 592 254 592 161 q 568 346 592 308 q 502 401 545 383 q 344 429 459 420 q 136 466 191 441 q 50 543 81 490 q 18 673 18 595 q 114 890 18 806 q 378 974 210 974 q 514 959 446 974 q 651 915 583 945 m 355 0 l 325 -72 q 362 -68 347 -68 q 436 -92 409 -68 q 463 -154 463 -117 q 421 -235 463 -201 q 308 -269 380 -269 q 177 -240 245 -269 l 198 -199 q 303 -221 266 -221 q 357 -205 338 -221 q 376 -163 376 -189 q 359 -124 376 -139 q 313 -110 343 -110 q 276 -117 296 -110 l 265 -108 l 313 0 l 355 0 z "},"ş":{"ha":589,"x_min":49,"x_max":542,"o":"m 103 203 l 103 159 q 113 93 103 106 q 181 51 130 71 q 287 31 233 31 q 401 68 357 31 q 445 158 445 106 q 419 224 445 199 q 321 264 393 250 q 142 312 186 292 q 77 366 99 332 q 56 448 56 400 q 121 595 56 538 q 307 651 186 651 q 496 613 401 651 q 487 458 490 567 l 447 458 q 434 537 446 518 q 377 583 418 562 q 289 603 336 603 q 190 571 227 603 q 153 492 153 540 q 182 424 153 447 q 344 374 212 400 q 473 337 441 354 q 523 286 504 320 q 542 206 542 251 q 464 48 542 115 q 254 -18 385 -18 q 67 8 171 -18 q 49 22 49 13 l 51 32 q 56 68 54 42 q 62 170 62 134 l 61 203 l 103 203 m 296 0 l 267 -72 q 304 -68 289 -68 q 378 -92 351 -68 q 405 -154 405 -117 q 363 -235 405 -201 q 250 -269 321 -269 q 119 -240 186 -269 l 140 -199 q 245 -221 208 -221 q 299 -205 280 -221 q 317 -163 317 -189 q 301 -124 317 -139 q 255 -110 285 -110 q 218 -117 238 -110 l 207 -108 l 255 0 l 296 0 z "},"Ć":{"ha":985,"x_min":56,"x_max":959,"o":"m 872 715 l 867 836 q 740 896 806 876 q 602 916 674 916 q 309 804 419 916 q 199 507 199 693 q 255 273 199 376 q 414 111 311 171 q 631 52 517 52 q 811 73 722 52 q 945 138 878 88 l 959 124 q 932 61 945 93 q 773 2 853 22 q 611 -18 692 -18 q 318 46 444 -18 q 123 224 191 111 q 56 481 56 338 q 124 737 56 624 q 318 912 193 850 q 625 974 443 974 q 849 943 721 974 q 953 920 913 928 q 918 715 922 848 l 872 715 m 528 1029 l 481 1029 l 682 1221 q 718 1251 707 1245 q 743 1257 729 1257 q 775 1245 762 1257 q 787 1215 787 1233 q 774 1184 787 1199 q 710 1138 761 1168 l 528 1029 z "},"ć":{"ha":616,"x_min":31,"x_max":568,"o":"m 549 92 l 568 75 l 540 32 q 445 -6 494 7 q 345 -18 396 -18 q 176 20 245 -18 q 68 130 106 58 q 31 300 31 201 q 60 453 31 388 q 141 554 89 517 q 273 626 194 591 q 397 651 328 651 q 487 643 449 651 q 568 612 524 634 q 549 433 551 523 l 507 433 l 507 467 q 494 529 507 511 q 437 564 481 547 q 339 582 392 582 q 198 526 248 582 q 149 359 149 470 q 222 130 149 216 q 391 52 288 52 q 471 62 432 52 q 549 92 511 72 m 286 704 l 240 704 l 441 896 q 477 926 466 920 q 501 932 488 932 q 533 920 521 932 q 546 890 546 908 q 533 859 546 874 q 469 813 519 844 l 286 704 z "},"Č":{"ha":985,"x_min":56,"x_max":959,"o":"m 872 715 l 867 836 q 740 896 806 876 q 602 916 674 916 q 309 804 419 916 q 199 507 199 693 q 255 273 199 376 q 414 111 311 171 q 631 52 517 52 q 811 73 722 52 q 945 138 878 88 l 959 124 q 932 61 945 93 q 773 2 853 22 q 611 -18 692 -18 q 318 46 444 -18 q 123 224 191 111 q 56 481 56 338 q 124 737 56 624 q 318 912 193 850 q 625 974 443 974 q 849 943 721 974 q 953 920 913 928 q 918 715 922 848 l 872 715 m 823 1257 l 648 1024 l 583 1024 l 408 1257 l 450 1257 l 617 1110 l 780 1257 l 823 1257 z "},"č":{"ha":616,"x_min":31,"x_max":568,"o":"m 549 92 l 568 75 l 540 32 q 445 -6 494 7 q 345 -18 396 -18 q 176 20 245 -18 q 68 130 106 58 q 31 300 31 201 q 60 453 31 388 q 141 554 89 517 q 273 626 194 591 q 397 651 328 651 q 487 643 449 651 q 568 612 524 634 q 549 433 551 523 l 507 433 l 507 467 q 494 529 507 511 q 437 564 481 547 q 339 582 392 582 q 198 526 248 582 q 149 359 149 470 q 222 130 149 216 q 391 52 288 52 q 471 62 432 52 q 549 92 511 72 m 565 933 l 390 700 l 325 700 l 151 933 l 193 933 l 359 786 l 522 933 l 565 933 z "},"đ":{"ha":848,"x_min":61,"x_max":804,"o":"m 579 758 l 320 758 l 320 814 l 579 814 l 579 855 q 570 909 579 898 q 526 920 560 920 l 468 920 l 468 960 q 693 1010 589 968 l 705 1002 q 697 814 698 903 l 804 814 l 804 758 l 696 758 l 693 597 l 693 192 q 700 66 693 79 q 756 41 710 47 l 804 35 l 804 -5 q 657 1 721 1 q 572 -5 646 1 q 579 126 576 41 q 432 1 522 81 q 330 -18 374 -18 q 138 68 216 -18 q 61 298 61 154 q 91 452 61 389 q 162 545 121 516 q 291 618 203 574 q 415 651 358 651 q 495 641 454 651 q 579 610 536 631 l 579 758 m 579 493 q 482 568 532 543 q 376 593 431 593 q 233 529 288 593 q 179 339 179 464 q 241 140 179 212 q 392 68 303 68 q 492 98 446 68 q 558 176 537 128 q 579 328 579 224 l 579 493 z "},"¯":{"ha":694,"x_min":-8,"x_max":703,"o":"m -8 1129 l 703 1129 l 703 1060 l -8 1060 l -8 1129 z "},"·":{"ha":463,"x_min":351,"x_max":498,"o":"m 425 579 q 476 558 455 579 q 498 505 498 536 q 476 453 498 475 q 425 431 454 431 q 372 453 394 431 q 351 505 351 475 q 372 558 351 536 q 425 579 393 579 z "},"":{"ha":431,"x_min":-5,"x_max":410,"o":"m 127 366 l 127 406 l 178 408 q 226 418 220 410 q 234 507 234 431 l 234 522 q 5 518 81 522 l -5 548 q 242 932 108 735 q 302 955 277 943 l 319 948 q 316 583 316 878 q 410 588 366 583 q 408 553 408 567 q 410 518 408 541 q 316 522 361 523 q 321 422 315 434 q 363 408 328 410 l 410 406 l 410 372 q 280 375 327 375 l 127 366 m 234 848 q 65 583 155 741 l 146 581 l 234 583 l 234 848 z "},"Ă":{"ha":1080,"x_min":26,"x_max":1053,"o":"m 711 321 l 319 321 l 273 212 q 228 79 228 103 q 236 56 228 63 q 279 45 245 50 l 345 38 l 345 -5 q 198 0 279 0 q 26 -5 100 0 l 26 38 l 47 39 q 108 48 94 40 q 138 90 122 57 q 236 301 186 188 l 422 724 q 524 968 497 892 l 570 968 l 913 170 q 960 72 948 88 q 986 48 971 55 q 1053 38 1001 41 l 1053 -5 q 885 0 965 0 q 686 -5 810 0 l 686 38 l 753 42 q 796 50 789 45 q 806 68 806 57 q 786 132 806 81 l 711 321 m 345 376 l 686 376 l 515 785 l 345 376 m 364 1254 l 404 1254 q 453 1141 410 1181 q 560 1101 496 1101 q 667 1141 624 1101 q 716 1254 709 1181 l 756 1254 q 713 1095 751 1147 q 560 1021 661 1021 q 407 1094 460 1021 q 364 1254 369 1147 z "},"ă":{"ha":694,"x_min":46,"x_max":664,"o":"m 97 467 l 98 513 l 97 559 l 171 602 q 259 641 221 630 q 339 652 296 652 q 490 610 433 652 q 559 503 547 568 q 569 260 567 454 q 577 59 570 78 q 611 40 584 40 l 664 40 l 664 -5 q 556 0 587 0 q 454 -5 518 0 l 455 56 q 454 115 455 85 l 314 7 q 277 -13 295 -7 q 226 -18 258 -18 q 92 25 138 -18 q 46 140 46 68 q 79 260 46 209 q 173 336 112 311 q 454 399 233 360 q 416 528 453 486 q 285 582 370 582 q 224 574 252 582 q 171 549 195 566 q 135 457 151 501 l 97 467 m 454 359 q 215 283 266 319 q 164 173 164 248 q 193 93 164 123 q 269 62 222 62 q 366 91 319 62 q 454 176 412 119 l 453 326 l 454 359 m 151 933 l 191 933 q 240 821 197 861 q 347 781 283 781 q 454 821 411 781 q 503 933 496 861 l 543 933 q 500 774 538 826 q 347 700 448 700 q 194 773 247 700 q 151 933 156 827 z "},"Ą":{"ha":1080,"x_min":26,"x_max":1053,"o":"m 711 321 l 319 321 l 273 212 q 228 79 228 103 q 236 56 228 63 q 279 45 245 50 l 345 38 l 345 -5 q 198 0 279 0 q 26 -5 100 0 l 26 38 l 47 39 q 108 48 94 40 q 138 90 122 57 q 236 301 186 188 l 422 724 q 524 968 497 892 l 570 968 l 913 170 q 960 72 948 88 q 986 48 971 55 q 1053 38 1001 41 l 1053 -5 q 885 0 965 0 q 686 -5 810 0 l 686 38 l 753 42 q 796 50 789 45 q 806 68 806 57 q 786 132 806 81 l 711 321 m 345 376 l 686 376 l 515 785 l 345 376 m 922 0 q 824 -67 857 -28 q 791 -147 791 -106 q 812 -208 791 -184 q 864 -231 833 -231 q 899 -223 884 -231 q 939 -189 915 -215 l 962 -210 q 807 -300 889 -300 q 725 -270 757 -300 q 694 -195 694 -239 q 738 -85 694 -138 q 866 0 782 -33 l 922 0 z "},"ą":{"ha":694,"x_min":46,"x_max":664,"o":"m 97 467 l 98 513 l 97 559 l 171 602 q 259 641 221 630 q 339 652 296 652 q 490 610 433 652 q 559 503 547 568 q 569 260 567 454 q 577 59 570 78 q 611 40 584 40 l 664 40 l 664 -5 q 556 0 587 0 q 454 -5 518 0 l 455 56 q 454 115 455 85 l 314 7 q 277 -13 295 -7 q 226 -18 258 -18 q 92 25 138 -18 q 46 140 46 68 q 79 260 46 209 q 173 336 112 311 q 454 399 233 360 q 416 528 453 486 q 285 582 370 582 q 224 574 252 582 q 171 549 195 566 q 135 457 151 501 l 97 467 m 454 359 q 215 283 266 319 q 164 173 164 248 q 193 93 164 123 q 269 62 222 62 q 366 91 319 62 q 454 176 412 119 l 453 326 l 454 359 m 585 0 q 487 -67 519 -28 q 454 -147 454 -106 q 475 -208 454 -184 q 527 -231 496 -231 q 562 -223 547 -231 q 602 -189 578 -215 l 625 -210 q 470 -300 552 -300 q 388 -270 420 -300 q 357 -195 357 -239 q 401 -85 357 -138 q 529 0 445 -33 l 585 0 z "},"Ď":{"ha":1075,"x_min":31,"x_max":1023,"o":"m 151 63 q 161 431 161 168 l 161 627 q 153 836 161 748 q 141 895 149 886 q 85 909 133 903 l 31 918 l 31 960 q 181 957 142 957 l 363 958 l 512 961 q 696 943 602 962 q 867 867 790 924 q 983 723 943 810 q 1023 524 1023 637 q 869 144 1023 294 q 466 -5 715 -5 l 382 -3 q 227 1 260 1 q 87 -7 172 1 l 87 26 l 151 63 m 297 66 q 458 53 389 53 q 753 151 648 53 q 880 496 880 269 q 775 798 880 694 q 466 902 669 902 q 297 888 395 902 q 289 740 289 823 l 289 296 q 297 66 289 174 m 718 1254 l 543 1021 l 478 1021 l 304 1254 l 346 1254 l 513 1107 l 675 1254 l 718 1254 z "},"ď":{"ha":1014,"x_min":61,"x_max":1034,"o":"m 579 610 l 579 855 q 570 909 579 898 q 526 920 560 920 l 468 920 l 468 960 q 693 1010 589 968 l 705 1002 q 697 836 701 933 l 694 655 l 693 597 l 693 192 q 700 66 693 79 q 756 41 710 47 l 804 35 l 804 -5 q 657 1 721 1 q 572 -5 646 1 q 579 126 576 41 q 432 1 522 81 q 330 -18 374 -18 q 138 68 216 -18 q 61 298 61 154 q 91 452 61 389 q 162 545 121 516 q 291 618 203 574 q 415 651 358 651 q 495 641 454 651 q 579 610 536 631 m 579 493 q 482 568 532 543 q 376 593 431 593 q 233 529 288 593 q 179 339 179 464 q 241 140 179 212 q 392 68 303 68 q 492 98 446 68 q 558 176 537 128 q 579 328 579 224 l 579 493 m 855 755 l 789 718 l 768 734 q 849 893 826 826 q 878 1040 873 961 q 1013 1078 941 1056 l 1034 1062 q 950 894 989 960 q 855 755 911 827 z "},"Đ":{"ha":1075,"x_min":31,"x_max":1023,"o":"m 161 456 l 112 457 l 71 456 l 38 454 l 31 460 l 38 515 q 161 511 79 513 l 161 627 q 153 836 161 748 q 141 895 149 886 q 85 909 133 903 l 31 918 l 31 960 q 181 957 142 957 l 363 958 l 512 961 q 696 943 602 962 q 867 867 790 924 q 983 723 943 810 q 1023 524 1023 637 q 869 144 1023 294 q 466 -5 715 -5 l 382 -3 q 227 1 260 1 q 87 -7 172 1 l 87 26 l 151 63 q 161 456 161 168 m 289 457 l 289 296 q 297 66 289 174 q 458 53 389 53 q 753 151 648 53 q 880 496 880 269 q 775 798 880 694 q 466 902 669 902 q 297 888 395 902 q 289 740 289 823 l 289 513 l 456 513 q 566 517 511 513 l 572 512 l 561 453 q 406 457 463 457 l 289 457 z "},"Ę":{"ha":848,"x_min":36,"x_max":801,"o":"m 308 456 l 308 290 l 309 194 q 311 63 309 104 q 523 56 410 56 q 650 62 599 56 q 721 80 684 66 q 755 229 738 140 l 801 229 q 783 31 783 81 l 784 1 q 631 -7 706 -7 l 524 -5 q 265 0 348 0 q 54 -5 186 0 l 54 38 l 75 38 q 150 50 134 38 q 170 104 165 61 q 175 292 175 146 l 175 665 q 171 814 175 756 q 161 884 166 873 q 146 901 156 895 q 88 912 137 907 l 36 918 l 36 960 l 109 960 l 181 958 q 273 956 241 956 l 533 959 l 656 960 q 784 954 720 960 q 755 746 758 874 l 709 746 q 702 870 709 821 q 505 900 622 900 q 311 892 412 900 q 309 764 311 828 l 308 660 l 308 522 q 427 518 375 518 q 609 529 588 518 q 631 599 631 541 l 631 643 l 677 643 q 672 479 672 541 q 677 328 672 415 l 631 328 l 631 367 q 605 447 631 432 q 426 461 580 461 q 308 456 369 461 m 750 0 q 652 -67 685 -28 q 619 -147 619 -106 q 640 -208 619 -184 q 692 -231 661 -231 q 728 -223 712 -231 q 768 -189 743 -215 l 790 -210 q 635 -300 718 -300 q 554 -270 585 -300 q 522 -195 522 -239 q 566 -85 522 -138 q 694 0 610 -33 l 750 0 z "},"ę":{"ha":665,"x_min":39,"x_max":625,"o":"m 168 323 q 236 121 171 190 q 407 52 301 52 q 501 67 454 52 q 594 114 548 83 l 606 104 l 584 47 q 468 -2 528 14 q 345 -18 408 -18 q 123 69 208 -18 q 39 305 39 156 q 86 503 39 419 q 201 604 117 557 q 365 651 286 651 q 555 581 485 651 q 625 383 625 510 l 624 343 q 538 329 579 332 q 337 323 466 323 l 168 323 m 170 374 q 401 370 275 370 q 500 374 452 370 l 500 412 q 476 526 500 472 q 424 581 461 559 q 338 603 387 603 q 216 547 262 603 q 170 374 171 492 m 447 0 q 349 -67 382 -28 q 316 -147 316 -106 q 337 -208 316 -184 q 389 -231 358 -231 q 425 -223 409 -231 q 465 -189 440 -215 l 487 -210 q 332 -300 414 -300 q 251 -270 282 -300 q 219 -195 219 -239 q 263 -85 219 -138 q 391 0 307 -33 l 447 0 z "},"Ě":{"ha":848,"x_min":36,"x_max":801,"o":"m 308 456 l 308 290 l 309 194 q 311 63 309 104 q 523 56 410 56 q 650 62 599 56 q 721 80 684 66 q 755 229 738 140 l 801 229 q 783 31 783 81 l 784 1 q 631 -7 706 -7 l 524 -5 q 265 0 348 0 q 54 -5 186 0 l 54 38 l 75 38 q 150 50 134 38 q 170 104 165 61 q 175 292 175 146 l 175 665 q 171 814 175 756 q 161 884 166 873 q 146 901 156 895 q 88 912 137 907 l 36 918 l 36 960 l 109 960 l 181 958 q 273 956 241 956 l 533 959 l 656 960 q 784 954 720 960 q 755 746 758 874 l 709 746 q 702 870 709 821 q 505 900 622 900 q 311 892 412 900 q 309 764 311 828 l 308 660 l 308 522 q 427 518 375 518 q 609 529 588 518 q 631 599 631 541 l 631 643 l 677 643 q 672 479 672 541 q 677 328 672 415 l 631 328 l 631 367 q 605 447 631 432 q 426 461 580 461 q 308 456 369 461 m 653 1254 l 478 1021 l 413 1021 l 239 1254 l 281 1254 l 448 1107 l 610 1254 l 653 1254 z "},"ě":{"ha":665,"x_min":39,"x_max":625,"o":"m 168 323 q 236 121 171 190 q 407 52 301 52 q 501 67 454 52 q 594 114 548 83 l 606 104 l 584 47 q 468 -2 528 14 q 345 -18 408 -18 q 123 69 208 -18 q 39 305 39 156 q 86 503 39 419 q 201 604 117 557 q 365 651 286 651 q 555 581 485 651 q 625 383 625 510 l 624 343 q 538 329 579 332 q 337 323 466 323 l 168 323 m 170 374 q 401 370 275 370 q 500 374 452 370 l 500 412 q 476 526 500 472 q 424 581 461 559 q 338 603 387 603 q 216 547 262 603 q 170 374 171 492 m 549 933 l 374 700 l 309 700 l 134 933 l 176 933 l 343 786 l 506 933 l 549 933 z "},"Ĳ":{"ha":930,"x_min":41,"x_max":897,"o":"m 41 38 l 84 38 q 150 52 138 38 q 167 143 161 65 q 172 361 172 221 l 172 590 q 161 896 172 875 q 96 918 149 918 l 41 918 l 41 960 q 264 956 144 956 q 430 960 363 956 l 430 918 l 378 918 q 310 898 319 918 q 300 590 300 878 l 300 355 q 309 73 300 108 q 385 38 317 38 l 430 38 l 430 -5 q 248 0 357 0 q 41 -5 126 0 l 41 38 m 452 -269 q 454 -220 454 -241 q 452 -162 454 -205 l 466 -155 q 541 -178 500 -178 q 618 -139 597 -178 q 639 57 639 -100 l 639 642 q 628 885 639 852 q 545 918 618 918 l 500 918 l 500 960 q 686 956 564 956 q 897 960 819 956 l 897 918 l 852 915 q 776 896 786 909 q 766 762 766 882 l 766 178 q 755 -4 766 59 q 699 -134 743 -67 q 595 -236 655 -200 q 488 -272 534 -272 q 452 -269 475 -272 z "},"ĳ":{"ha":729,"x_min":35,"x_max":642,"o":"m 200 954 q 254 932 232 954 q 277 877 277 909 q 254 823 277 846 q 200 800 232 800 q 145 823 168 800 q 123 877 123 845 q 145 931 123 909 q 200 954 168 954 m 565 954 q 619 932 596 954 q 642 877 642 909 q 619 823 642 846 q 565 800 596 800 q 510 823 533 800 q 488 877 488 846 q 510 931 488 909 q 565 954 532 954 m 400 559 l 400 598 q 617 651 524 610 q 630 654 625 654 q 640 642 640 654 q 639 627 640 636 q 630 469 636 610 q 625 265 625 329 l 626 36 q 548 -300 626 -208 q 381 -391 470 -391 q 360 -391 374 -391 l 346 -343 q 380 -347 368 -347 q 481 -266 451 -347 q 512 319 512 -184 q 504 542 512 524 q 449 559 496 559 l 400 559 m 35 598 q 250 651 155 610 q 263 654 258 654 q 273 642 273 654 q 272 627 273 636 q 264 262 264 575 q 267 106 264 146 q 281 55 271 65 q 330 41 291 45 l 376 35 l 376 -5 q 196 0 286 0 q 35 -5 116 0 l 35 35 l 93 41 q 135 54 127 44 q 146 155 144 64 q 148 349 148 246 q 139 545 148 530 q 85 559 130 559 l 35 559 l 35 598 z "},"Ĺ":{"ha":848,"x_min":35,"x_max":819,"o":"m 301 62 q 431 58 368 58 q 630 65 558 58 q 734 85 680 71 l 774 244 l 819 244 q 792 5 802 116 q 625 -5 731 -5 l 302 0 q 100 -7 237 0 l 100 28 q 164 79 154 52 q 174 294 174 106 l 174 667 q 164 894 174 871 q 109 918 154 918 l 35 918 l 35 960 q 249 956 196 956 q 440 960 319 956 l 440 918 l 356 918 q 311 897 320 918 q 301 725 301 876 l 301 293 l 303 102 l 301 62 m 237 1025 l 191 1025 l 392 1217 q 428 1247 417 1241 q 452 1253 439 1253 q 485 1241 472 1253 q 497 1211 497 1229 q 484 1180 497 1195 q 420 1134 471 1164 l 237 1025 z "},"ĺ":{"ha":404,"x_min":33,"x_max":370,"o":"m 270 1002 q 258 642 258 803 l 258 294 q 267 58 258 86 q 312 40 272 44 l 370 34 l 370 -5 q 229 -1 296 -1 q 33 -5 154 -1 l 33 34 l 92 39 q 136 58 130 42 q 144 299 144 85 l 144 646 l 144 776 l 142 865 q 134 905 142 898 q 89 916 123 916 l 33 916 l 33 957 q 258 1010 174 970 l 270 1002 m 90 1058 l 43 1058 l 244 1250 q 280 1280 269 1274 q 304 1286 291 1286 q 337 1274 324 1286 q 349 1244 349 1262 q 336 1213 349 1228 q 272 1167 323 1198 l 90 1058 z "},"Ľ":{"ha":848,"x_min":35,"x_max":819,"o":"m 301 62 q 431 58 368 58 q 630 65 558 58 q 734 85 680 71 l 774 244 l 819 244 q 792 5 802 116 q 625 -5 731 -5 l 302 0 q 100 -7 237 0 l 100 28 q 164 79 154 52 q 174 294 174 106 l 174 667 q 164 894 174 871 q 109 918 154 918 l 35 918 l 35 960 q 249 956 196 956 q 440 960 319 956 l 440 918 l 356 918 q 311 897 320 918 q 301 725 301 876 l 301 293 l 303 102 l 301 62 m 714 1003 l 732 985 q 549 680 669 829 l 497 653 l 479 673 q 590 965 576 819 q 714 1003 661 981 z "},"ľ":{"ha":576,"x_min":33,"x_max":549,"o":"m 270 1002 q 258 643 258 804 l 258 294 q 267 59 258 87 q 312 41 272 45 l 370 35 l 370 -5 q 229 0 296 0 q 33 -5 154 0 l 33 35 l 92 39 q 136 59 130 43 q 144 300 144 85 l 144 646 l 144 777 l 142 865 q 134 906 142 899 q 89 917 123 917 l 33 917 l 33 958 q 258 1010 174 970 l 270 1002 m 532 1017 l 549 998 q 366 693 487 842 l 315 667 l 296 686 q 408 979 394 832 q 532 1017 479 995 z "},"Ŀ":{"ha":848,"x_min":35,"x_max":819,"o":"m 301 62 q 431 58 368 58 q 630 65 558 58 q 734 85 680 71 l 774 244 l 819 244 q 792 5 802 116 q 625 -5 731 -5 l 302 0 q 100 -7 237 0 l 100 28 q 164 79 154 52 q 174 294 174 106 l 174 667 q 164 894 174 871 q 109 918 154 918 l 35 918 l 35 960 q 249 956 196 956 q 440 960 319 956 l 440 918 l 356 918 q 311 897 320 918 q 301 725 301 876 l 301 293 l 303 102 l 301 62 m 589 633 q 641 611 619 633 q 662 559 662 589 q 640 506 662 528 q 589 484 618 484 q 536 506 558 484 q 515 559 515 528 q 536 611 515 589 q 589 633 557 633 z "},"ŀ":{"ha":490,"x_min":33,"x_max":469,"o":"m 270 1002 q 258 643 258 804 l 258 294 q 267 59 258 87 q 312 41 272 45 l 370 35 l 370 -5 q 229 0 296 0 q 33 -5 154 0 l 33 35 l 92 39 q 136 59 130 43 q 144 300 144 85 l 144 646 l 144 777 l 142 865 q 134 906 142 899 q 89 917 123 917 l 33 917 l 33 958 q 258 1010 174 970 l 270 1002 m 395 579 q 447 557 426 579 q 469 505 469 536 q 447 452 469 474 q 395 431 425 431 q 343 452 365 431 q 321 505 321 474 q 343 557 321 536 q 395 579 364 579 z "},"Ń":{"ha":1154,"x_min":31,"x_max":1125,"o":"m 224 807 l 224 338 q 230 115 224 178 q 246 57 235 67 q 311 41 257 46 l 354 38 l 354 -5 q 220 0 280 0 q 31 -5 179 0 l 31 38 l 79 38 q 137 50 123 38 q 154 98 151 62 q 161 301 161 173 l 161 638 q 159 826 161 733 q 149 880 158 865 q 122 906 140 895 q 73 918 104 918 l 31 918 l 31 960 q 162 956 117 956 q 269 960 211 956 q 396 801 336 878 q 519 644 455 723 l 751 359 q 932 146 876 206 l 932 582 q 922 881 932 855 q 844 913 912 906 l 793 918 l 793 960 q 962 956 902 956 q 1125 960 1025 956 l 1125 918 l 1073 918 q 1000 876 1010 918 q 994 578 994 848 l 994 273 q 1005 -22 994 149 q 898 -2 913 -8 q 869 20 883 5 q 711 205 794 103 l 224 807 m 490 1025 l 444 1025 l 644 1217 q 680 1247 669 1241 q 705 1253 691 1253 q 737 1241 724 1253 q 749 1211 749 1229 q 736 1180 749 1195 q 672 1134 723 1164 l 490 1025 z "},"ń":{"ha":808,"x_min":17,"x_max":806,"o":"m 245 522 l 348 612 q 387 636 366 629 q 476 651 431 651 q 602 622 549 651 q 677 545 654 592 q 701 397 701 498 l 697 184 q 707 56 697 73 q 757 35 720 35 l 806 35 l 806 -5 q 680 0 733 0 q 570 -5 629 0 q 583 353 583 127 q 567 481 583 444 q 513 543 551 519 q 422 566 475 566 q 311 532 357 566 q 254 459 265 499 q 248 321 248 433 q 250 90 248 197 q 259 50 250 58 q 315 35 276 35 l 363 35 l 363 -5 q 180 0 248 0 q 17 -5 109 0 l 17 35 l 66 35 q 124 58 116 35 q 133 340 133 81 q 130 522 133 456 q 119 551 129 543 q 66 559 110 559 l 17 559 l 17 598 q 121 616 75 605 q 225 652 168 628 q 237 654 231 654 q 248 639 248 654 l 247 613 l 245 522 m 344 704 l 298 704 l 498 896 q 534 926 524 920 q 559 932 545 932 q 591 920 578 932 q 604 890 604 908 q 590 859 604 874 q 526 813 577 844 l 344 704 z "},"Ň":{"ha":1154,"x_min":31,"x_max":1125,"o":"m 224 807 l 224 338 q 230 115 224 178 q 246 57 235 67 q 311 41 257 46 l 354 38 l 354 -5 q 220 0 280 0 q 31 -5 179 0 l 31 38 l 79 38 q 137 50 123 38 q 154 98 151 62 q 161 301 161 173 l 161 638 q 159 826 161 733 q 149 880 158 865 q 122 906 140 895 q 73 918 104 918 l 31 918 l 31 960 q 162 956 117 956 q 269 960 211 956 q 396 801 336 878 q 519 644 455 723 l 751 359 q 932 146 876 206 l 932 582 q 922 881 932 855 q 844 913 912 906 l 793 918 l 793 960 q 962 956 902 956 q 1125 960 1025 956 l 1125 918 l 1073 918 q 1000 876 1010 918 q 994 578 994 848 l 994 273 q 1005 -22 994 149 q 898 -2 913 -8 q 869 20 883 5 q 711 205 794 103 l 224 807 m 826 1254 l 651 1021 l 586 1021 l 412 1254 l 454 1254 l 621 1107 l 783 1254 l 826 1254 z "},"ň":{"ha":808,"x_min":17,"x_max":806,"o":"m 245 522 l 348 612 q 387 636 366 629 q 476 651 431 651 q 602 622 549 651 q 677 545 654 592 q 701 397 701 498 l 697 184 q 707 56 697 73 q 757 35 720 35 l 806 35 l 806 -5 q 680 0 733 0 q 570 -5 629 0 q 583 353 583 127 q 567 481 583 444 q 513 543 551 519 q 422 566 475 566 q 311 532 357 566 q 254 459 265 499 q 248 321 248 433 q 250 90 248 197 q 259 50 250 58 q 315 35 276 35 l 363 35 l 363 -5 q 180 0 248 0 q 17 -5 109 0 l 17 35 l 66 35 q 124 58 116 35 q 133 340 133 81 q 130 522 133 456 q 119 551 129 543 q 66 559 110 559 l 17 559 l 17 598 q 121 616 75 605 q 225 652 168 628 q 237 654 231 654 q 248 639 248 654 l 247 613 l 245 522 m 619 933 l 444 700 l 379 700 l 205 933 l 247 933 l 414 786 l 576 933 l 619 933 z "},"ŉ":{"ha":1055,"x_min":22,"x_max":1052,"o":"m 109 687 l 43 650 l 22 667 q 132 972 127 828 q 267 1010 193 987 l 288 994 q 109 687 210 813 m 492 522 l 593 612 q 722 651 637 651 q 850 620 794 651 q 926 539 907 589 q 946 398 946 489 l 943 176 q 955 53 943 72 q 1003 35 966 35 l 1052 35 l 1052 -5 q 926 0 985 0 q 816 -5 874 0 q 828 358 828 127 q 790 518 828 471 q 668 566 751 566 q 560 534 605 566 q 504 471 515 503 q 493 343 493 439 q 494 170 493 264 q 497 65 495 75 q 512 44 499 54 q 561 35 526 35 l 609 35 l 609 -5 q 427 0 500 0 q 263 -5 354 0 l 263 35 l 312 35 q 372 65 366 35 q 379 365 379 96 q 371 544 379 528 q 312 559 363 559 l 263 559 l 263 598 q 471 652 367 609 q 482 654 477 654 q 494 640 494 654 q 492 587 494 631 l 492 522 z "},"Ő":{"ha":1092,"x_min":32,"x_max":1060,"o":"m 32 478 q 176 838 32 701 q 559 974 319 974 q 927 847 793 974 q 1060 511 1060 721 q 905 134 1060 286 q 515 -18 751 -18 q 262 41 368 -18 q 94 216 155 101 q 32 478 32 330 m 170 534 q 222 267 170 380 q 363 97 275 153 q 564 40 451 40 q 748 88 669 40 q 872 232 827 136 q 917 465 917 328 q 867 710 917 608 q 730 864 817 812 q 525 916 644 916 q 338 870 416 916 q 214 737 259 825 q 170 534 170 649 m 405 1018 l 368 1018 l 481 1193 q 522 1248 511 1239 q 549 1257 533 1257 q 582 1244 568 1257 q 595 1216 595 1232 q 588 1192 595 1204 q 543 1146 580 1180 l 405 1018 m 600 1018 l 559 1018 l 704 1192 q 753 1244 741 1236 q 781 1253 766 1253 q 813 1240 800 1253 q 826 1210 826 1227 q 818 1185 826 1196 q 755 1135 809 1175 l 600 1018 z "},"ő":{"ha":758,"x_min":48,"x_max":709,"o":"m 48 321 q 92 490 48 414 q 213 608 135 566 q 391 651 292 651 q 623 566 536 651 q 709 338 709 480 q 596 71 709 170 q 354 -18 495 -18 q 133 73 218 -18 q 48 321 48 164 m 176 369 q 233 130 176 229 q 398 31 290 31 q 531 93 480 31 q 581 282 581 155 q 551 459 581 385 q 473 569 522 534 q 363 603 424 603 q 267 576 310 603 q 203 503 224 549 q 176 369 176 441 m 228 697 l 191 697 l 304 872 q 345 927 334 918 q 372 936 356 936 q 405 924 391 936 q 418 895 418 911 q 411 871 418 883 q 366 825 403 859 l 228 697 m 422 697 l 382 697 l 527 871 q 576 923 564 915 q 604 932 589 932 q 636 919 623 932 q 649 889 649 907 q 641 865 649 876 q 578 814 632 854 l 422 697 z "},"Ŕ":{"ha":928,"x_min":40,"x_max":918,"o":"m 535 485 q 700 262 602 389 l 830 94 q 876 44 865 50 q 900 38 888 38 l 918 38 l 918 -5 q 819 0 861 0 q 738 -5 781 0 l 498 319 q 354 494 431 409 l 361 517 q 419 514 400 514 q 596 572 532 514 q 661 728 661 631 q 606 865 661 816 q 450 914 552 914 q 307 888 378 914 q 298 657 298 780 l 298 330 q 310 64 298 90 q 385 38 321 38 l 437 38 l 437 -5 q 251 0 325 0 q 40 -5 193 0 l 40 38 l 91 38 q 160 63 149 38 q 171 331 171 89 l 171 657 q 158 892 171 867 q 77 918 146 918 l 40 918 l 40 961 q 233 956 166 956 q 361 959 277 956 q 502 962 459 962 q 680 938 619 962 q 772 866 741 913 q 804 754 804 819 q 735 585 804 659 q 535 485 666 512 m 363 1025 l 317 1025 l 517 1217 q 553 1247 543 1241 q 578 1253 564 1253 q 610 1241 597 1253 q 623 1211 623 1229 q 609 1180 623 1195 q 545 1134 596 1164 l 363 1025 z "},"ŕ":{"ha":549,"x_min":22,"x_max":522,"o":"m 258 498 q 317 566 285 524 q 387 633 355 615 q 456 652 420 652 q 513 643 493 652 q 522 630 522 639 l 522 623 q 510 469 511 568 l 479 469 q 443 518 464 504 q 391 532 421 532 q 317 505 351 532 q 271 429 283 478 q 260 237 260 380 q 267 79 260 143 q 281 49 270 55 q 357 35 307 35 l 397 35 l 397 -5 q 201 0 294 0 q 22 -5 111 0 l 22 35 l 87 40 q 131 53 122 43 q 143 119 140 63 q 148 351 148 216 q 135 543 148 514 q 79 561 126 561 l 22 561 l 22 600 q 140 620 88 608 q 231 650 191 631 q 247 654 241 654 q 257 650 254 654 q 260 632 260 646 l 258 498 m 184 704 l 138 704 l 339 896 q 375 926 364 920 q 399 932 386 932 q 432 920 419 932 q 444 890 444 908 q 431 859 444 874 q 367 813 418 844 l 184 704 z "},"Ř":{"ha":928,"x_min":40,"x_max":918,"o":"m 535 485 q 700 262 602 389 l 830 94 q 876 44 865 50 q 900 38 888 38 l 918 38 l 918 -5 q 819 0 861 0 q 738 -5 781 0 l 498 319 q 354 494 431 409 l 361 517 q 419 514 400 514 q 596 572 532 514 q 661 728 661 631 q 606 865 661 816 q 450 914 552 914 q 307 888 378 914 q 298 657 298 780 l 298 330 q 310 64 298 90 q 385 38 321 38 l 437 38 l 437 -5 q 251 0 325 0 q 40 -5 193 0 l 40 38 l 91 38 q 160 63 149 38 q 171 331 171 89 l 171 657 q 158 892 171 867 q 77 918 146 918 l 40 918 l 40 961 q 233 956 166 956 q 361 959 277 956 q 502 962 459 962 q 680 938 619 962 q 772 866 741 913 q 804 754 804 819 q 735 585 804 659 q 535 485 666 512 m 662 1254 l 487 1021 l 422 1021 l 248 1254 l 290 1254 l 456 1107 l 619 1254 l 662 1254 z "},"ř":{"ha":549,"x_min":22,"x_max":522,"o":"m 258 498 q 317 566 285 524 q 387 633 355 615 q 456 652 420 652 q 513 643 493 652 q 522 630 522 639 l 522 623 q 510 469 511 568 l 479 469 q 443 518 464 504 q 391 532 421 532 q 317 505 351 532 q 271 429 283 478 q 260 237 260 380 q 267 79 260 143 q 281 49 270 55 q 357 35 307 35 l 397 35 l 397 -5 q 201 0 294 0 q 22 -5 111 0 l 22 35 l 87 40 q 131 53 122 43 q 143 119 140 63 q 148 351 148 216 q 135 543 148 514 q 79 561 126 561 l 22 561 l 22 600 q 140 620 88 608 q 231 650 191 631 q 247 654 241 654 q 257 650 254 654 q 260 632 260 646 l 258 498 m 500 933 l 325 700 l 260 700 l 85 933 l 127 933 l 294 786 l 457 933 l 500 933 z "},"Ś":{"ha":729,"x_min":18,"x_max":710,"o":"m 651 915 q 631 728 632 844 l 584 728 l 584 782 q 570 854 584 835 q 495 894 555 873 q 369 916 435 916 q 198 861 260 916 q 136 720 136 806 q 162 626 136 665 q 230 570 187 587 q 413 540 273 553 q 602 504 553 526 q 681 432 651 481 q 710 315 710 382 q 596 80 710 178 q 292 -18 482 -18 q 161 -5 227 -18 q 28 34 95 8 q 39 243 40 115 l 85 243 l 85 209 q 92 127 85 143 q 124 94 99 112 q 213 54 161 68 q 324 40 264 40 q 522 100 452 40 q 592 254 592 161 q 568 346 592 308 q 502 401 545 383 q 344 429 459 420 q 136 466 191 441 q 50 543 81 490 q 18 673 18 595 q 114 890 18 806 q 378 974 210 974 q 514 959 446 974 q 651 915 583 945 m 276 1025 l 230 1025 l 431 1217 q 467 1247 456 1241 q 491 1253 477 1253 q 523 1241 511 1253 q 536 1211 536 1229 q 523 1180 536 1195 q 458 1134 509 1164 l 276 1025 z "},"ś":{"ha":589,"x_min":50,"x_max":543,"o":"m 104 203 l 104 159 q 114 93 104 106 q 183 51 132 71 q 288 31 234 31 q 402 68 358 31 q 446 158 446 106 q 420 224 446 199 q 322 264 395 250 q 144 312 187 292 q 79 366 100 332 q 57 448 57 400 q 122 595 57 538 q 308 651 188 651 q 497 613 403 651 q 488 458 492 567 l 448 458 q 435 537 447 518 q 378 583 420 562 q 290 603 337 603 q 192 571 229 603 q 155 492 155 540 q 184 424 155 447 q 345 374 213 400 q 474 337 443 354 q 524 286 505 320 q 543 206 543 251 q 465 48 543 115 q 256 -18 387 -18 q 68 8 172 -18 q 50 22 50 13 l 52 32 q 57 68 55 42 q 63 170 63 134 l 62 203 l 104 203 m 199 704 l 153 704 l 353 896 q 389 926 378 920 q 414 932 400 932 q 446 920 433 932 q 458 890 458 908 q 445 859 458 874 q 381 813 432 844 l 199 704 z "},"Ţ":{"ha":851,"x_min":23,"x_max":829,"o":"m 498 899 q 490 684 490 797 l 490 298 q 501 60 490 82 q 578 38 512 38 l 629 38 l 629 -5 q 426 0 509 0 q 224 -5 342 0 l 224 38 l 281 38 q 339 50 326 38 q 356 96 353 62 q 363 301 363 176 l 363 688 q 358 899 363 803 l 289 899 q 104 891 121 899 q 82 830 87 883 l 73 739 l 30 739 l 31 820 q 23 960 31 869 q 454 956 389 956 l 829 960 q 814 739 816 846 l 772 739 l 765 828 q 753 883 761 874 q 720 893 746 891 q 551 899 646 899 l 498 899 m 479 -82 l 496 -100 q 313 -406 434 -256 l 262 -432 l 243 -412 q 355 -120 341 -267 q 479 -82 426 -104 z "},"ţ":{"ha":453,"x_min":30,"x_max":441,"o":"m 252 528 l 252 262 q 258 130 252 159 q 286 84 265 100 q 338 68 307 68 q 377 76 358 68 q 414 99 395 83 l 433 75 l 368 -3 q 326 -14 346 -10 q 286 -18 305 -18 q 201 0 236 -18 q 151 46 167 18 q 136 134 136 75 l 138 264 l 138 522 q 30 517 85 522 l 30 547 q 138 593 88 569 q 132 804 137 690 q 245 857 211 837 l 263 844 q 252 593 258 791 q 387 595 334 593 l 441 598 l 433 528 l 406 529 l 275 528 l 252 528 m 302 -82 l 319 -100 q 136 -406 257 -256 l 85 -432 l 66 -412 q 178 -120 164 -267 q 302 -82 249 -104 z "},"Ť":{"ha":851,"x_min":23,"x_max":829,"o":"m 498 899 q 490 684 490 797 l 490 298 q 501 60 490 82 q 578 38 512 38 l 629 38 l 629 -5 q 426 0 509 0 q 224 -5 342 0 l 224 38 l 281 38 q 339 50 326 38 q 356 96 353 62 q 363 301 363 176 l 363 688 q 358 899 363 803 l 289 899 q 104 891 121 899 q 82 830 87 883 l 73 739 l 30 739 l 31 820 q 23 960 31 869 q 454 956 389 956 l 829 960 q 814 739 816 846 l 772 739 l 765 828 q 753 883 761 874 q 720 893 746 891 q 551 899 646 899 l 498 899 m 633 1254 l 458 1021 l 393 1021 l 219 1254 l 261 1254 l 428 1107 l 591 1254 l 633 1254 z "},"ť":{"ha":608,"x_min":30,"x_max":595,"o":"m 252 528 l 252 262 q 258 130 252 159 q 286 84 265 100 q 338 68 307 68 q 377 76 358 68 q 414 99 395 83 l 433 75 l 368 -3 q 326 -14 346 -10 q 286 -18 305 -18 q 201 0 236 -18 q 151 46 167 18 q 136 134 136 75 l 138 264 l 138 522 q 30 517 85 522 l 30 547 q 138 593 88 569 q 132 804 137 690 q 245 857 211 837 l 263 844 q 252 593 258 791 q 387 595 334 593 l 441 598 l 433 528 l 406 529 l 275 528 l 252 528 m 577 1003 l 595 985 q 412 680 532 829 l 360 653 l 342 673 q 453 965 439 819 q 577 1003 524 981 z "},"Ů":{"ha":1080,"x_min":26,"x_max":1051,"o":"m 26 918 l 26 960 q 229 956 165 956 q 424 960 295 956 l 424 918 l 374 918 q 298 893 311 918 q 285 672 285 869 l 285 406 q 301 203 285 260 q 383 107 317 146 q 561 68 450 68 q 754 110 675 68 q 833 200 808 139 q 859 433 859 262 l 859 689 q 843 892 859 867 q 755 918 827 918 l 720 918 l 720 960 q 898 956 860 956 q 1051 960 960 956 l 1051 918 l 1005 918 q 936 889 951 918 q 921 686 921 860 l 921 432 q 904 197 921 258 q 841 87 886 136 q 719 10 795 39 q 539 -18 642 -18 q 353 7 433 -18 q 232 70 273 33 q 174 161 192 107 q 156 345 156 215 l 157 473 l 157 680 q 146 895 157 871 q 75 918 135 918 l 26 918 m 567 1331 q 667 1290 625 1331 q 708 1191 708 1249 q 667 1092 708 1133 q 567 1050 625 1050 q 467 1092 509 1050 q 426 1191 426 1133 q 467 1290 426 1249 q 567 1331 508 1331 m 567 1262 q 520 1241 540 1262 q 501 1191 501 1221 q 520 1141 501 1161 q 567 1120 540 1120 q 613 1141 594 1120 q 633 1191 633 1161 q 613 1241 633 1221 q 567 1262 594 1262 z "},"ů":{"ha":838,"x_min":28,"x_max":802,"o":"m 570 -5 l 578 117 l 538 74 q 443 2 491 23 q 323 -18 394 -18 q 218 7 262 -18 q 154 74 174 33 q 134 204 134 115 q 136 311 134 250 l 138 420 q 131 548 138 535 q 88 561 125 561 l 28 561 l 28 598 q 198 632 120 606 l 254 653 q 266 636 266 653 l 261 567 q 252 300 252 423 q 262 142 252 176 q 304 85 272 108 q 384 62 337 62 q 499 103 447 62 q 568 185 552 144 q 577 328 577 209 q 570 547 577 529 q 509 561 563 561 l 455 561 l 455 598 q 574 617 525 606 q 677 650 623 628 q 689 653 684 653 q 701 640 701 653 l 698 577 q 688 169 688 345 q 698 56 688 70 q 762 35 713 35 l 802 35 l 802 -5 q 658 0 717 0 q 570 -5 614 0 m 415 1010 q 515 969 473 1010 q 556 870 556 928 q 515 771 556 812 q 415 730 473 730 q 315 771 357 730 q 274 870 274 812 q 315 969 274 928 q 415 1010 356 1010 m 415 941 q 369 921 388 941 q 349 870 349 900 q 369 820 349 840 q 415 800 388 800 q 461 820 442 800 q 481 870 481 840 q 461 921 481 900 q 415 941 442 941 z "},"Ű":{"ha":1080,"x_min":26,"x_max":1051,"o":"m 26 918 l 26 960 q 229 956 165 956 q 424 960 295 956 l 424 918 l 374 918 q 298 893 311 918 q 285 672 285 869 l 285 406 q 301 203 285 260 q 383 107 317 146 q 561 68 450 68 q 754 110 675 68 q 833 200 808 139 q 859 433 859 262 l 859 689 q 843 892 859 867 q 755 918 827 918 l 720 918 l 720 960 q 898 956 860 956 q 1051 960 960 956 l 1051 918 l 1005 918 q 936 889 951 918 q 921 686 921 860 l 921 432 q 904 197 921 258 q 841 87 886 136 q 719 10 795 39 q 539 -18 642 -18 q 353 7 433 -18 q 232 70 273 33 q 174 161 192 107 q 156 345 156 215 l 157 473 l 157 680 q 146 895 157 871 q 75 918 135 918 l 26 918 m 401 1018 l 364 1018 l 477 1193 q 518 1248 507 1239 q 546 1257 530 1257 q 578 1244 565 1257 q 592 1216 592 1232 q 584 1192 592 1204 q 540 1146 576 1180 l 401 1018 m 596 1018 l 555 1018 l 701 1192 q 750 1244 737 1236 q 778 1253 763 1253 q 810 1240 797 1253 q 823 1210 823 1227 q 814 1185 823 1196 q 752 1135 806 1175 l 596 1018 z "},"ű":{"ha":838,"x_min":28,"x_max":802,"o":"m 570 -5 l 578 117 l 538 74 q 443 2 491 23 q 323 -18 394 -18 q 218 7 262 -18 q 154 74 174 33 q 134 204 134 115 q 136 311 134 250 l 138 420 q 131 548 138 535 q 88 561 125 561 l 28 561 l 28 598 q 198 632 120 606 l 254 653 q 266 636 266 653 l 261 567 q 252 300 252 423 q 262 142 252 176 q 304 85 272 108 q 384 62 337 62 q 499 103 447 62 q 568 185 552 144 q 577 328 577 209 q 570 547 577 529 q 509 561 563 561 l 455 561 l 455 598 q 574 617 525 606 q 677 650 623 628 q 689 653 684 653 q 701 640 701 653 l 698 577 q 688 169 688 345 q 698 56 688 70 q 762 35 713 35 l 802 35 l 802 -5 q 658 0 717 0 q 570 -5 614 0 m 252 697 l 214 697 l 328 872 q 369 927 357 918 q 396 936 380 936 q 429 924 415 936 q 442 895 442 911 q 434 871 442 883 q 390 825 427 859 l 252 697 m 446 697 l 406 697 l 551 871 q 600 923 587 915 q 628 932 613 932 q 660 919 647 932 q 673 889 673 907 q 664 865 673 876 q 602 814 656 854 l 446 697 z "},"Ź":{"ha":926,"x_min":31,"x_max":876,"o":"m 214 58 l 509 58 q 749 63 692 58 q 797 83 782 66 q 818 161 811 99 l 826 239 l 876 239 q 863 33 863 132 l 863 -5 q 736 -7 781 -7 q 574 -3 699 -7 q 324 0 440 0 q 31 -5 134 0 l 31 35 q 203 249 103 116 l 510 656 q 688 896 635 821 q 517 900 589 900 q 256 890 395 900 q 184 876 195 886 q 169 814 173 865 l 162 734 l 118 734 q 122 849 122 808 q 118 961 122 889 l 202 962 l 733 956 q 876 961 819 956 l 876 920 q 768 791 808 842 l 551 506 l 214 58 m 393 1025 l 347 1025 l 547 1217 q 583 1247 572 1241 q 608 1253 594 1253 q 640 1241 627 1253 q 652 1211 652 1229 q 639 1180 652 1195 q 575 1134 626 1164 l 393 1025 z "},"ź":{"ha":694,"x_min":29,"x_max":656,"o":"m 36 -5 l 29 27 q 208 237 95 99 q 480 587 360 426 q 224 581 311 587 q 156 569 165 578 q 140 512 147 561 l 130 454 l 91 454 q 98 569 98 519 l 97 632 l 102 637 q 417 633 310 633 q 640 637 530 633 l 640 601 q 571 520 605 562 l 465 387 q 203 49 397 304 l 289 47 q 533 57 430 47 q 585 73 573 61 q 608 157 596 85 l 616 197 l 656 197 q 640 3 640 72 q 536 -3 593 -3 l 290 0 q 36 -5 139 0 m 289 704 l 243 704 l 444 896 q 479 926 469 920 q 504 932 490 932 q 536 920 524 932 q 549 890 549 908 q 535 859 549 874 q 471 813 522 844 l 289 704 z "},"Ż":{"ha":926,"x_min":31,"x_max":876,"o":"m 214 58 l 509 58 q 749 63 692 58 q 797 83 782 66 q 818 161 811 99 l 826 239 l 876 239 q 863 33 863 132 l 863 -5 q 736 -7 781 -7 q 574 -3 699 -7 q 324 0 440 0 q 31 -5 134 0 l 31 35 q 203 249 103 116 l 510 656 q 688 896 635 821 q 517 900 589 900 q 256 890 395 900 q 184 876 195 886 q 169 814 173 865 l 162 734 l 118 734 q 122 849 122 808 q 118 961 122 889 l 202 962 l 733 956 q 876 961 819 956 l 876 920 q 768 791 808 842 l 551 506 l 214 58 m 474 1231 q 526 1209 505 1231 q 547 1157 547 1187 q 526 1104 547 1126 q 474 1082 504 1082 q 422 1104 444 1082 q 400 1157 400 1126 q 421 1209 400 1187 q 474 1231 443 1231 z "},"ż":{"ha":694,"x_min":29,"x_max":656,"o":"m 36 -5 l 29 27 q 208 237 95 99 q 480 587 360 426 q 224 581 311 587 q 156 569 165 578 q 140 512 147 561 l 130 454 l 91 454 q 98 569 98 519 l 97 632 l 102 637 q 417 633 310 633 q 640 637 530 633 l 640 601 q 571 520 605 562 l 465 387 q 203 49 397 304 l 289 47 q 533 57 430 47 q 585 73 573 61 q 608 157 596 85 l 616 197 l 656 197 q 640 3 640 72 q 536 -3 593 -3 l 290 0 q 36 -5 139 0 m 376 954 q 428 932 406 954 q 449 880 449 911 q 427 827 449 849 q 376 806 406 806 q 323 827 345 806 q 302 880 302 849 q 323 932 302 911 q 376 954 345 954 z "},"":{"ha":862,"x_min":31,"x_max":824,"o":"m 814 920 l 824 709 l 800 709 q 725 834 785 806 q 580 862 665 862 l 307 862 l 307 116 q 336 51 306 75 q 441 24 367 26 l 441 0 l 31 0 l 31 24 q 131 47 99 24 q 162 133 162 70 l 162 791 q 132 871 162 848 q 31 895 102 895 l 31 920 l 814 920 z "},"":{"ha":998,"x_min":32,"x_max":966,"o":"m 966 462 q 829 119 966 260 q 502 -21 692 -21 q 173 118 315 -21 q 32 460 32 257 q 168 799 32 657 q 498 941 304 941 q 828 802 691 941 q 966 462 966 663 m 800 457 q 722 766 800 645 q 496 888 644 888 q 278 773 358 888 q 197 462 197 659 q 282 145 197 259 q 500 31 368 31 q 717 146 634 31 q 800 457 800 261 m 336 621 l 360 621 q 384 541 359 566 q 461 515 408 515 l 536 515 q 614 541 589 515 q 637 621 638 566 l 662 621 l 662 296 l 637 296 q 614 378 638 352 q 536 404 590 404 l 461 404 q 384 378 408 404 q 360 296 359 352 l 336 296 l 336 621 z "},"":{"ha":998,"x_min":32,"x_max":966,"o":"m 572 130 q 702 24 580 24 l 702 0 l 296 0 l 296 24 q 426 130 415 24 q 139 226 246 130 q 32 460 32 323 q 146 699 32 608 q 426 790 260 790 q 296 895 418 895 l 296 920 l 702 920 l 702 895 q 572 790 581 895 q 859 694 751 790 q 966 460 966 597 q 852 219 966 309 q 572 130 737 130 m 426 753 q 288 714 348 751 q 203 618 229 678 q 178 452 178 558 q 426 167 178 177 l 426 753 m 572 753 l 572 167 q 743 230 667 167 q 820 468 820 292 q 572 753 820 743 z "},"":{"ha":737,"x_min":49,"x_max":709,"o":"m 525 621 l 637 621 l 570 304 q 535 176 554 231 q 615 62 549 62 q 685 150 672 62 l 709 150 q 672 25 702 70 q 599 -19 642 -19 q 517 127 536 -19 q 288 -19 446 -19 q 112 67 176 -19 q 49 308 49 154 q 119 552 49 465 q 290 640 190 640 q 484 426 425 640 l 525 621 m 470 364 q 302 600 402 600 q 210 526 245 600 q 175 300 175 451 q 208 82 175 141 q 294 24 241 24 q 376 72 339 24 q 446 262 413 121 l 470 364 z "},"":{"ha":643,"x_min":48,"x_max":594,"o":"m 329 579 q 235 670 290 622 q 140 776 157 738 q 123 845 123 814 q 299 963 123 963 q 475 929 405 963 q 545 846 545 895 q 531 806 545 824 q 492 788 516 788 q 418 834 460 788 q 341 905 370 888 q 271 922 313 922 q 190 900 218 922 q 163 848 163 878 q 188 783 163 815 q 321 677 214 751 q 482 554 431 602 q 564 441 533 506 q 594 303 594 377 q 506 78 594 175 q 301 -19 418 -19 q 122 58 195 -19 q 48 267 48 135 q 132 479 48 396 q 329 579 216 563 m 359 547 q 164 280 164 515 q 214 90 164 155 q 326 25 264 25 q 436 90 393 25 q 479 264 479 154 q 456 402 479 345 q 389 510 433 458 q 359 547 363 540 z "},"":{"ha":594,"x_min":48,"x_max":553,"o":"m 212 330 q 78 478 78 382 q 146 595 78 550 q 320 640 214 640 q 469 610 410 640 q 529 535 529 580 q 511 494 529 511 q 470 477 493 477 q 408 528 432 477 q 306 599 374 599 q 219 566 254 599 q 183 469 183 533 q 311 345 183 345 q 342 347 325 345 q 390 352 374 352 q 431 328 431 352 q 390 301 431 301 q 345 307 375 301 q 309 310 321 310 q 174 172 174 310 q 210 64 174 104 q 311 23 246 23 q 418 106 391 23 q 448 168 432 151 q 492 184 465 184 q 534 168 515 184 q 553 124 553 152 q 484 22 553 62 q 316 -19 414 -19 q 132 33 215 -19 q 48 171 48 84 q 212 330 48 277 z "},"":{"ha":797,"x_min":48,"x_max":774,"o":"m 774 621 l 774 522 l 478 522 q 612 407 549 487 q 675 236 675 326 q 583 51 675 121 q 384 -19 491 -19 q 148 81 247 -19 q 48 322 48 182 q 100 496 48 420 q 220 596 151 571 q 393 621 288 621 l 774 621 m 433 522 l 409 522 q 272 503 319 522 q 195 434 225 483 q 165 314 165 385 q 230 110 165 195 q 384 25 294 25 q 507 88 458 25 q 557 249 557 151 q 433 522 557 397 z "},"":{"ha":593,"x_min":44,"x_max":549,"o":"m 549 621 l 549 522 l 346 522 q 321 203 321 304 q 345 119 321 146 q 404 92 369 92 q 481 171 469 92 l 505 171 q 467 40 505 98 q 369 -19 429 -19 q 248 205 248 -19 q 272 522 248 300 l 212 522 q 126 504 157 522 q 68 429 95 486 l 44 429 q 98 551 68 509 q 155 607 127 593 q 233 621 184 621 l 549 621 z "},"":{"ha":762,"x_min":48,"x_max":714,"o":"m 306 640 l 306 615 q 167 336 167 578 q 340 22 167 70 l 340 418 q 350 539 340 500 q 395 609 359 579 q 481 640 431 640 q 595 598 540 640 q 682 487 650 557 q 714 333 714 417 q 639 101 714 203 q 410 -16 564 -2 l 410 -284 l 340 -284 l 340 -16 q 128 90 208 -4 q 48 334 48 183 q 122 552 48 470 q 306 640 197 635 m 410 37 q 614 314 614 68 q 570 499 614 423 q 466 575 527 575 q 422 546 435 575 q 410 441 410 517 l 410 37 z "},"‗":{"ha":694,"x_min":-8,"x_max":703,"o":"m -8 -85 l 703 -85 l 703 -155 l -8 -155 l -8 -85 m -8 -222 l 703 -222 l 703 -292 l -8 -292 l -8 -222 z "},"′":{"ha":289,"x_min":73,"x_max":218,"o":"m 75 577 l 74 778 q 73 843 73 837 q 158 974 73 974 q 218 916 218 974 q 177 778 218 892 l 105 577 l 75 577 z "},"″":{"ha":515,"x_min":62,"x_max":455,"o":"m 64 577 l 62 778 q 63 846 62 813 q 70 904 64 879 q 87 943 77 930 q 114 965 98 957 q 148 974 130 974 q 206 916 206 974 q 165 778 206 890 l 94 577 l 64 577 m 313 577 l 310 846 q 334 943 309 912 q 399 974 359 974 q 455 916 455 974 q 419 778 455 876 l 345 577 l 313 577 z "},"‼":{"ha":693,"x_min":113,"x_max":580,"o":"m 224 956 l 273 956 q 264 789 273 859 q 221 284 237 553 l 183 249 l 170 255 q 139 624 153 511 q 119 857 119 793 q 120 901 119 872 q 224 956 173 925 m 531 956 l 580 956 q 571 789 579 859 q 527 284 543 553 l 489 249 l 476 255 q 446 624 458 511 q 425 857 425 793 q 427 901 425 872 q 531 956 479 925 m 192 140 q 247 118 224 140 q 271 61 271 95 q 248 5 271 28 q 192 -18 224 -18 q 136 5 159 -18 q 113 61 113 28 q 136 118 113 95 q 192 140 159 140 m 498 140 q 554 117 531 140 q 577 61 577 94 q 554 5 577 28 q 498 -18 530 -18 q 442 5 465 -18 q 419 61 419 28 q 443 118 419 95 q 498 140 466 140 z "},"ⁿ":{"ha":567,"x_min":31,"x_max":545,"o":"m 193 892 l 243 936 q 328 960 271 960 q 441 922 404 960 q 479 806 479 884 l 477 659 q 483 605 477 614 q 506 596 488 596 l 545 596 l 545 558 l 536 559 q 458 562 494 562 q 378 558 419 562 q 387 780 387 634 q 365 869 387 844 q 295 895 343 895 q 233 879 258 895 q 200 845 207 862 q 194 773 194 827 q 195 616 194 627 q 197 607 196 609 q 227 596 197 596 l 267 596 l 267 558 q 140 562 194 562 q 31 558 89 562 l 31 596 l 71 596 q 98 603 93 596 q 103 665 103 609 l 105 823 q 102 876 105 856 q 100 885 100 882 q 71 892 100 892 l 31 892 l 31 928 q 149 953 108 936 q 178 962 172 962 q 195 939 195 962 q 193 892 195 932 z "},"₧":{"ha":1650,"x_min":31,"x_max":1603,"o":"m 1185 597 q 1368 651 1252 651 q 1556 613 1463 651 q 1548 458 1550 572 l 1508 458 q 1496 535 1506 513 q 1444 580 1487 557 q 1350 603 1401 603 q 1251 572 1289 603 q 1214 492 1214 541 q 1248 419 1214 441 q 1404 374 1282 398 q 1524 342 1491 356 q 1580 292 1558 328 q 1603 206 1603 256 q 1522 46 1603 111 q 1326 -18 1441 -18 q 1114 16 1199 -18 q 1118 70 1118 46 l 1045 5 q 970 -18 1019 -18 q 823 128 823 -18 l 824 264 l 824 593 q 821 726 824 653 q 713 527 810 604 q 489 450 616 450 q 389 463 445 450 l 376 514 q 475 498 432 498 q 626 557 573 498 q 679 710 679 616 q 618 859 679 807 q 446 911 557 911 q 302 886 376 911 q 297 678 297 792 l 297 291 q 310 61 297 84 q 389 38 323 38 l 436 38 l 436 -5 q 245 0 321 0 q 31 -5 186 0 l 31 38 l 92 38 q 157 65 145 38 q 170 288 170 92 l 170 650 q 158 886 170 855 q 64 918 147 918 l 31 918 l 31 960 q 205 956 131 956 q 416 961 300 956 q 523 964 479 964 q 814 802 769 964 q 932 857 901 838 l 950 844 q 938 593 945 810 q 1040 593 1022 593 q 1185 597 1106 593 m 1133 529 q 1033 528 1083 528 l 938 529 l 938 262 q 943 136 938 168 q 969 86 949 104 q 1024 68 990 68 q 1069 77 1053 68 q 1121 119 1084 85 q 1122 169 1122 163 q 1121 203 1122 180 l 1164 203 l 1164 159 q 1173 94 1164 111 q 1236 54 1182 77 q 1348 31 1289 31 q 1459 66 1412 31 q 1506 159 1506 102 q 1481 224 1506 199 q 1382 264 1456 250 q 1222 303 1272 286 q 1144 357 1172 321 q 1116 449 1116 393 q 1133 529 1116 489 z "},"℅":{"ha":1039,"x_min":55,"x_max":984,"o":"m 199 -46 q 245 35 216 -21 l 708 928 q 740 1002 732 974 q 787 998 771 998 q 808 998 794 998 q 766 926 785 963 l 292 20 q 262 -46 272 -19 q 232 -44 241 -44 q 199 -46 220 -44 m 397 634 l 416 618 l 396 589 q 264 557 336 557 q 108 611 161 557 q 55 755 55 666 q 83 867 55 827 q 178 940 111 907 q 298 974 244 974 q 415 947 359 974 q 403 832 404 888 l 359 832 l 359 857 q 355 889 359 878 q 322 911 351 900 q 260 922 294 922 q 147 791 147 922 q 188 659 147 710 q 293 608 228 608 q 397 634 342 608 m 545 194 q 608 347 545 288 q 772 406 671 406 q 922 357 859 406 q 984 211 984 308 q 915 50 984 111 q 749 -11 846 -11 q 596 51 648 -11 q 545 194 545 113 m 643 227 q 679 86 643 144 q 777 28 714 28 q 857 65 827 28 q 886 176 886 103 q 852 314 886 260 q 755 368 817 368 q 672 330 701 368 q 643 227 643 293 z "},"ℓ":{"ha":614,"x_min":24,"x_max":580,"o":"m 24 221 l 159 356 l 159 692 q 213 896 159 823 q 358 969 267 969 q 461 930 425 969 q 496 834 496 890 q 436 648 496 743 q 267 435 375 553 l 267 209 q 386 22 267 22 q 555 203 496 22 l 580 203 q 501 47 559 113 q 356 -18 444 -18 q 239 20 288 -18 q 174 106 190 58 q 159 254 159 155 l 159 319 l 41 204 l 24 221 m 267 473 q 458 807 458 684 q 432 896 458 862 q 363 930 406 930 q 267 749 267 930 l 267 473 z "},"←":{"ha":1389,"x_min":54,"x_max":1335,"o":"m 334 594 l 385 594 q 253 385 330 479 l 1335 385 l 1335 316 l 253 316 q 387 106 322 247 l 334 106 q 54 338 183 278 l 54 368 q 334 594 174 416 z "},"↑":{"ha":694,"x_min":104,"x_max":591,"o":"m 104 712 q 330 992 281 872 l 361 992 q 591 711 420 862 l 591 659 q 382 792 451 724 l 382 -291 l 313 -291 l 313 792 q 104 660 219 715 l 104 712 z "},"→":{"ha":1389,"x_min":54,"x_max":1335,"o":"m 1055 594 q 1335 368 1215 416 l 1335 338 q 1054 106 1205 278 l 1002 106 q 1135 316 1066 247 l 54 316 l 54 385 l 1135 385 q 1003 594 1058 479 l 1055 594 z "},"↓":{"ha":694,"x_min":104,"x_max":591,"o":"m 104 -11 l 104 41 q 313 -92 219 -14 l 313 992 l 382 992 l 382 -92 q 591 42 451 -22 l 591 -10 q 361 -291 420 -161 l 330 -291 q 104 -11 281 -172 z "},"↔":{"ha":1389,"x_min":54,"x_max":1335,"o":"m 1335 366 l 1335 336 q 1059 107 1212 282 l 1005 107 q 1137 318 1052 224 l 252 318 q 383 107 336 224 l 329 107 q 54 336 177 282 l 54 366 q 329 595 177 420 l 383 595 q 252 385 336 479 l 1137 385 q 1005 595 1052 479 l 1059 595 q 1335 366 1212 420 z "},"↕":{"ha":694,"x_min":103,"x_max":591,"o":"m 332 992 l 362 992 q 591 716 416 869 l 591 662 q 380 794 475 709 l 380 -92 q 591 40 475 -6 l 591 -14 q 362 -290 416 -166 l 332 -290 q 103 -14 278 -166 l 103 40 q 314 -92 219 -6 l 314 794 q 103 662 219 709 l 103 716 q 332 992 278 869 z "},"↨":{"ha":694,"x_min":103,"x_max":591,"o":"m 332 992 l 362 992 q 591 716 416 869 l 591 662 q 380 794 475 709 l 380 -92 q 591 40 475 -6 l 591 -14 q 362 -290 416 -166 l 332 -290 q 103 -14 278 -166 l 103 40 q 314 -92 219 -6 l 314 794 q 103 662 219 709 l 103 716 q 332 992 278 869 m 104 -354 l 591 -354 l 591 -420 l 104 -420 l 104 -354 z "},"∟":{"ha":1360,"x_min":245,"x_max":1114,"o":"m 245 867 l 313 867 l 313 68 l 1114 68 l 1114 0 l 245 0 l 245 867 z "},"∩":{"ha":818,"x_min":87,"x_max":731,"o":"m 162 0 l 87 0 l 87 421 l 89 583 q 101 724 90 661 q 141 839 113 787 q 213 931 169 890 q 308 991 257 971 q 409 1012 358 1012 q 562 965 489 1012 q 673 847 634 919 q 722 695 713 776 q 731 421 731 615 l 731 0 l 656 0 l 656 426 q 650 662 656 591 q 614 791 643 734 q 528 886 586 848 q 409 923 470 923 q 291 886 348 923 q 205 793 233 848 q 170 664 177 737 q 162 426 162 591 l 162 0 z "},"≡":{"ha":842,"x_min":79,"x_max":762,"o":"m 79 709 l 79 803 l 762 803 l 762 709 l 79 709 m 79 431 l 79 525 l 762 525 l 762 431 l 79 431 m 79 153 l 79 247 l 762 247 l 762 153 l 79 153 z "},"□":{"ha":839,"x_min":99,"x_max":739,"o":"m 99 640 l 739 640 l 739 0 l 99 0 l 99 640 m 151 589 l 151 52 l 688 52 l 688 589 l 151 589 z "},"▪":{"ha":492,"x_min":89,"x_max":403,"o":"m 403 616 l 403 302 l 89 302 l 89 616 l 403 616 z "},"▫":{"ha":492,"x_min":89,"x_max":403,"o":"m 403 616 l 403 302 l 89 302 l 89 616 l 403 616 m 351 565 l 140 564 l 140 353 l 351 353 l 351 565 z "},"●":{"ha":839,"x_min":121,"x_max":718,"o":"m 420 690 q 630 603 543 690 q 718 392 718 515 q 631 181 718 269 q 420 93 543 93 q 209 181 296 93 q 121 392 121 269 q 210 605 121 520 q 420 690 299 690 z "},"◦":{"ha":492,"x_min":76,"x_max":416,"o":"m 246 629 q 366 581 315 629 q 416 459 416 532 q 367 339 416 389 q 246 289 317 289 q 126 339 176 289 q 76 459 76 389 q 126 579 76 530 q 246 629 176 629 m 246 578 q 163 544 198 578 q 127 459 127 510 q 162 375 127 410 q 246 340 197 340 q 330 375 295 340 q 365 459 365 410 q 330 544 365 509 q 246 578 294 578 z "},"":{"ha":463,"x_min":83,"x_max":336,"o":"m 319 -82 l 336 -100 q 153 -406 274 -256 l 102 -432 l 83 -412 q 195 -120 181 -267 q 319 -82 266 -104 z "},"Ā":{"ha":1080,"x_min":26,"x_max":1053,"o":"m 711 321 l 319 321 l 273 212 q 228 79 228 103 q 236 56 228 63 q 279 45 245 50 l 345 38 l 345 -5 q 198 0 279 0 q 26 -5 100 0 l 26 38 l 47 39 q 108 48 94 40 q 138 90 122 57 q 236 301 186 188 l 422 724 q 524 968 497 892 l 570 968 l 913 170 q 960 72 948 88 q 986 48 971 55 q 1053 38 1001 41 l 1053 -5 q 885 0 965 0 q 686 -5 810 0 l 686 38 l 753 42 q 796 50 789 45 q 806 68 806 57 q 786 132 806 81 l 711 321 m 345 376 l 686 376 l 515 785 l 345 376 m 366 1110 l 366 1173 l 714 1173 l 714 1110 l 366 1110 z "},"ā":{"ha":694,"x_min":46,"x_max":664,"o":"m 97 467 l 98 513 l 97 559 l 171 602 q 259 641 221 630 q 339 652 296 652 q 490 610 433 652 q 559 503 547 568 q 569 260 567 454 q 577 59 570 78 q 611 40 584 40 l 664 40 l 664 -5 q 556 0 587 0 q 454 -5 518 0 l 455 56 q 454 115 455 85 l 314 7 q 277 -13 295 -7 q 226 -18 258 -18 q 92 25 138 -18 q 46 140 46 68 q 79 260 46 209 q 173 336 112 311 q 454 399 233 360 q 416 528 453 486 q 285 582 370 582 q 224 574 252 582 q 171 549 195 566 q 135 457 151 501 l 97 467 m 454 359 q 215 283 266 319 q 164 173 164 248 q 193 93 164 123 q 269 62 222 62 q 366 91 319 62 q 454 176 412 119 l 453 326 l 454 359 m 181 786 l 181 848 l 530 848 l 530 786 l 181 786 z "},"Ĉ":{"ha":985,"x_min":56,"x_max":959,"o":"m 872 715 l 867 836 q 740 896 806 876 q 602 916 674 916 q 309 804 419 916 q 199 507 199 693 q 255 273 199 376 q 414 111 311 171 q 631 52 517 52 q 811 73 722 52 q 945 138 878 88 l 959 124 q 932 61 945 93 q 773 2 853 22 q 611 -18 692 -18 q 318 46 444 -18 q 123 224 191 111 q 56 481 56 338 q 124 737 56 624 q 318 912 193 850 q 625 974 443 974 q 849 943 721 974 q 953 920 913 928 q 918 715 922 848 l 872 715 m 338 1024 l 513 1257 l 578 1257 l 753 1024 l 710 1024 l 544 1171 l 381 1024 l 338 1024 z "},"ĉ":{"ha":616,"x_min":31,"x_max":568,"o":"m 549 92 l 568 75 l 540 32 q 445 -6 494 7 q 345 -18 396 -18 q 176 20 245 -18 q 68 130 106 58 q 31 300 31 201 q 60 453 31 388 q 141 554 89 517 q 273 626 194 591 q 397 651 328 651 q 487 643 449 651 q 568 612 524 634 q 549 433 551 523 l 507 433 l 507 467 q 494 529 507 511 q 437 564 481 547 q 339 582 392 582 q 198 526 248 582 q 149 359 149 470 q 222 130 149 216 q 391 52 288 52 q 471 62 432 52 q 549 92 511 72 m 144 700 l 319 933 l 384 933 l 559 700 l 516 700 l 350 847 l 187 700 l 144 700 z "},"Ċ":{"ha":985,"x_min":56,"x_max":959,"o":"m 872 715 l 867 836 q 740 896 806 876 q 602 916 674 916 q 309 804 419 916 q 199 507 199 693 q 255 273 199 376 q 414 111 311 171 q 631 52 517 52 q 811 73 722 52 q 945 138 878 88 l 959 124 q 932 61 945 93 q 773 2 853 22 q 611 -18 692 -18 q 318 46 444 -18 q 123 224 191 111 q 56 481 56 338 q 124 737 56 624 q 318 912 193 850 q 625 974 443 974 q 849 943 721 974 q 953 920 913 928 q 918 715 922 848 l 872 715 m 555 1180 q 607 1158 586 1180 q 629 1106 629 1137 q 607 1053 629 1075 q 555 1031 585 1031 q 503 1053 525 1031 q 481 1106 481 1075 q 503 1158 481 1137 q 555 1180 524 1180 z "},"ċ":{"ha":616,"x_min":31,"x_max":568,"o":"m 549 92 l 568 75 l 540 32 q 445 -6 494 7 q 345 -18 396 -18 q 176 20 245 -18 q 68 130 106 58 q 31 300 31 201 q 60 453 31 388 q 141 554 89 517 q 273 626 194 591 q 397 651 328 651 q 487 643 449 651 q 568 612 524 634 q 549 433 551 523 l 507 433 l 507 467 q 494 529 507 511 q 437 564 481 547 q 339 582 392 582 q 198 526 248 582 q 149 359 149 470 q 222 130 149 216 q 391 52 288 52 q 471 62 432 52 q 549 92 511 72 m 347 856 q 399 834 378 856 q 420 782 420 812 q 399 729 420 751 q 347 707 377 707 q 295 729 317 707 q 273 782 273 751 q 295 834 273 812 q 347 856 316 856 z "},"Ē":{"ha":848,"x_min":36,"x_max":801,"o":"m 308 456 l 308 290 l 309 194 q 311 63 309 104 q 523 56 410 56 q 650 62 599 56 q 721 80 684 66 q 755 229 738 140 l 801 229 q 783 31 783 81 l 784 1 q 631 -7 706 -7 l 524 -5 q 265 0 348 0 q 54 -5 186 0 l 54 38 l 75 38 q 150 50 134 38 q 170 104 165 61 q 175 292 175 146 l 175 665 q 171 814 175 756 q 161 884 166 873 q 146 901 156 895 q 88 912 137 907 l 36 918 l 36 960 l 109 960 l 181 958 q 273 956 241 956 l 533 959 l 656 960 q 784 954 720 960 q 755 746 758 874 l 709 746 q 702 870 709 821 q 505 900 622 900 q 311 892 412 900 q 309 764 311 828 l 308 660 l 308 522 q 427 518 375 518 q 609 529 588 518 q 631 599 631 541 l 631 643 l 677 643 q 672 479 672 541 q 677 328 672 415 l 631 328 l 631 367 q 605 447 631 432 q 426 461 580 461 q 308 456 369 461 m 244 1110 l 244 1173 l 593 1173 l 593 1110 l 244 1110 z "},"ē":{"ha":665,"x_min":39,"x_max":625,"o":"m 168 323 q 236 121 171 190 q 407 52 301 52 q 501 67 454 52 q 594 114 548 83 l 606 104 l 584 47 q 468 -2 528 14 q 345 -18 408 -18 q 123 69 208 -18 q 39 305 39 156 q 86 503 39 419 q 201 604 117 557 q 365 651 286 651 q 555 581 485 651 q 625 383 625 510 l 624 343 q 538 329 579 332 q 337 323 466 323 l 168 323 m 170 374 q 401 370 275 370 q 500 374 452 370 l 500 412 q 476 526 500 472 q 424 581 461 559 q 338 603 387 603 q 216 547 262 603 q 170 374 171 492 m 158 786 l 158 848 l 507 848 l 507 786 l 158 786 z "},"Ĕ":{"ha":848,"x_min":36,"x_max":801,"o":"m 308 456 l 308 290 l 309 194 q 311 63 309 104 q 523 56 410 56 q 650 62 599 56 q 721 80 684 66 q 755 229 738 140 l 801 229 q 783 31 783 81 l 784 1 q 631 -7 706 -7 l 524 -5 q 265 0 348 0 q 54 -5 186 0 l 54 38 l 75 38 q 150 50 134 38 q 170 104 165 61 q 175 292 175 146 l 175 665 q 171 814 175 756 q 161 884 166 873 q 146 901 156 895 q 88 912 137 907 l 36 918 l 36 960 l 109 960 l 181 958 q 273 956 241 956 l 533 959 l 656 960 q 784 954 720 960 q 755 746 758 874 l 709 746 q 702 870 709 821 q 505 900 622 900 q 311 892 412 900 q 309 764 311 828 l 308 660 l 308 522 q 427 518 375 518 q 609 529 588 518 q 631 599 631 541 l 631 643 l 677 643 q 672 479 672 541 q 677 328 672 415 l 631 328 l 631 367 q 605 447 631 432 q 426 461 580 461 q 308 456 369 461 m 242 1257 l 281 1257 q 331 1145 288 1185 q 438 1105 374 1105 q 545 1145 502 1105 q 594 1257 587 1185 l 634 1257 q 591 1098 629 1150 q 438 1024 538 1024 q 285 1097 338 1024 q 242 1257 247 1151 z "},"ĕ":{"ha":665,"x_min":39,"x_max":625,"o":"m 168 323 q 236 121 171 190 q 407 52 301 52 q 501 67 454 52 q 594 114 548 83 l 606 104 l 584 47 q 468 -2 528 14 q 345 -18 408 -18 q 123 69 208 -18 q 39 305 39 156 q 86 503 39 419 q 201 604 117 557 q 365 651 286 651 q 555 581 485 651 q 625 383 625 510 l 624 343 q 538 329 579 332 q 337 323 466 323 l 168 323 m 170 374 q 401 370 275 370 q 500 374 452 370 l 500 412 q 476 526 500 472 q 424 581 461 559 q 338 603 387 603 q 216 547 262 603 q 170 374 171 492 m 155 933 l 195 933 q 244 821 201 861 q 351 781 287 781 q 458 821 415 781 q 507 933 500 861 l 547 933 q 505 774 542 826 q 351 700 452 700 q 198 773 251 700 q 155 933 160 827 z "},"Ė":{"ha":848,"x_min":36,"x_max":801,"o":"m 308 456 l 308 290 l 309 194 q 311 63 309 104 q 523 56 410 56 q 650 62 599 56 q 721 80 684 66 q 755 229 738 140 l 801 229 q 783 31 783 81 l 784 1 q 631 -7 706 -7 l 524 -5 q 265 0 348 0 q 54 -5 186 0 l 54 38 l 75 38 q 150 50 134 38 q 170 104 165 61 q 175 292 175 146 l 175 665 q 171 814 175 756 q 161 884 166 873 q 146 901 156 895 q 88 912 137 907 l 36 918 l 36 960 l 109 960 l 181 958 q 273 956 241 956 l 533 959 l 656 960 q 784 954 720 960 q 755 746 758 874 l 709 746 q 702 870 709 821 q 505 900 622 900 q 311 892 412 900 q 309 764 311 828 l 308 660 l 308 522 q 427 518 375 518 q 609 529 588 518 q 631 599 631 541 l 631 643 l 677 643 q 672 479 672 541 q 677 328 672 415 l 631 328 l 631 367 q 605 447 631 432 q 426 461 580 461 q 308 456 369 461 m 419 1180 q 471 1158 450 1180 q 492 1106 492 1137 q 471 1053 492 1075 q 419 1031 449 1031 q 367 1053 389 1031 q 345 1106 345 1075 q 367 1158 345 1137 q 419 1180 388 1180 z "},"ė":{"ha":665,"x_min":39,"x_max":625,"o":"m 168 323 q 236 121 171 190 q 407 52 301 52 q 501 67 454 52 q 594 114 548 83 l 606 104 l 584 47 q 468 -2 528 14 q 345 -18 408 -18 q 123 69 208 -18 q 39 305 39 156 q 86 503 39 419 q 201 604 117 557 q 365 651 286 651 q 555 581 485 651 q 625 383 625 510 l 624 343 q 538 329 579 332 q 337 323 466 323 l 168 323 m 170 374 q 401 370 275 370 q 500 374 452 370 l 500 412 q 476 526 500 472 q 424 581 461 559 q 338 603 387 603 q 216 547 262 603 q 170 374 171 492 m 342 856 q 394 834 372 856 q 415 782 415 812 q 393 729 415 751 q 342 707 372 707 q 290 729 311 707 q 268 782 268 751 q 289 834 268 812 q 342 856 311 856 z "},"Ĝ":{"ha":1060,"x_min":16,"x_max":1017,"o":"m 970 316 q 960 200 960 259 q 970 60 960 138 q 766 3 880 24 q 549 -18 652 -18 q 268 44 389 -18 q 81 219 146 107 q 16 472 16 330 q 86 733 16 618 q 281 910 156 847 q 597 974 406 974 q 741 964 675 974 q 912 923 806 954 l 970 907 q 941 707 951 836 l 899 707 l 899 751 q 888 829 899 818 q 780 883 867 851 q 580 916 692 916 q 275 808 380 916 q 159 500 159 692 q 263 189 159 315 q 596 40 385 40 q 834 88 706 40 q 838 210 838 145 q 836 306 838 293 q 826 322 833 318 q 755 331 819 326 l 675 338 l 675 381 q 905 374 830 374 q 1017 381 970 374 l 1017 347 l 970 316 m 310 1024 l 484 1257 l 549 1257 l 724 1024 l 682 1024 l 515 1171 l 353 1024 l 310 1024 z "},"ĝ":{"ha":772,"x_min":57,"x_max":768,"o":"m 607 525 q 623 454 623 481 q 586 337 623 393 q 481 247 549 281 q 335 213 414 213 l 303 214 q 247 164 258 180 q 235 132 235 148 q 261 92 235 106 q 369 77 288 77 q 458 79 400 77 q 579 82 542 82 q 661 65 633 82 q 710 4 690 47 q 730 -93 730 -39 q 684 -238 730 -169 q 550 -350 638 -308 q 347 -392 462 -392 q 132 -331 208 -392 q 57 -182 57 -271 q 96 -71 57 -127 q 215 -3 167 -37 q 143 30 159 15 q 127 69 127 45 q 143 125 127 98 q 188 167 152 142 l 254 214 q 136 271 172 234 q 89 399 89 321 q 124 524 89 468 q 228 613 159 581 q 397 654 315 654 q 487 641 448 654 q 567 595 526 627 l 624 595 q 761 600 712 595 l 768 586 q 732 525 748 557 l 607 525 m 504 418 q 460 554 504 503 q 351 606 417 606 q 247 564 286 606 q 207 447 207 522 q 250 306 207 357 q 358 254 293 254 q 464 297 423 254 q 504 418 504 340 m 319 -14 q 254 -25 271 -14 q 184 -84 197 -62 q 164 -173 164 -119 q 219 -295 164 -247 q 372 -343 274 -343 q 504 -315 447 -343 q 592 -239 561 -288 q 624 -139 624 -191 q 602 -62 624 -95 q 549 -19 580 -28 q 478 -14 534 -14 l 319 -14 m 205 700 l 380 933 l 445 933 l 620 700 l 577 700 l 411 847 l 248 700 l 205 700 z "},"Ġ":{"ha":1060,"x_min":16,"x_max":1017,"o":"m 970 316 q 960 200 960 259 q 970 60 960 138 q 766 3 880 24 q 549 -18 652 -18 q 268 44 389 -18 q 81 219 146 107 q 16 472 16 330 q 86 733 16 618 q 281 910 156 847 q 597 974 406 974 q 741 964 675 974 q 912 923 806 954 l 970 907 q 941 707 951 836 l 899 707 l 899 751 q 888 829 899 818 q 780 883 867 851 q 580 916 692 916 q 275 808 380 916 q 159 500 159 692 q 263 189 159 315 q 596 40 385 40 q 834 88 706 40 q 838 210 838 145 q 836 306 838 293 q 826 322 833 318 q 755 331 819 326 l 675 338 l 675 381 q 905 374 830 374 q 1017 381 970 374 l 1017 347 l 970 316 m 536 1180 q 588 1158 567 1180 q 610 1106 610 1137 q 588 1053 610 1075 q 536 1031 566 1031 q 484 1053 506 1031 q 463 1106 463 1075 q 484 1158 463 1137 q 536 1180 505 1180 z "},"ġ":{"ha":772,"x_min":57,"x_max":768,"o":"m 607 525 q 623 454 623 481 q 586 337 623 393 q 481 247 549 281 q 335 213 414 213 l 303 214 q 247 164 258 180 q 235 132 235 148 q 261 92 235 106 q 369 77 288 77 q 458 79 400 77 q 579 82 542 82 q 661 65 633 82 q 710 4 690 47 q 730 -93 730 -39 q 684 -238 730 -169 q 550 -350 638 -308 q 347 -392 462 -392 q 132 -331 208 -392 q 57 -182 57 -271 q 96 -71 57 -127 q 215 -3 167 -37 q 143 30 159 15 q 127 69 127 45 q 143 125 127 98 q 188 167 152 142 l 254 214 q 136 271 172 234 q 89 399 89 321 q 124 524 89 468 q 228 613 159 581 q 397 654 315 654 q 487 641 448 654 q 567 595 526 627 l 624 595 q 761 600 712 595 l 768 586 q 732 525 748 557 l 607 525 m 504 418 q 460 554 504 503 q 351 606 417 606 q 247 564 286 606 q 207 447 207 522 q 250 306 207 357 q 358 254 293 254 q 464 297 423 254 q 504 418 504 340 m 319 -14 q 254 -25 271 -14 q 184 -84 197 -62 q 164 -173 164 -119 q 219 -295 164 -247 q 372 -343 274 -343 q 504 -315 447 -343 q 592 -239 561 -288 q 624 -139 624 -191 q 602 -62 624 -95 q 549 -19 580 -28 q 478 -14 534 -14 l 319 -14 m 384 856 q 436 834 414 856 q 457 782 457 812 q 435 729 457 751 q 384 707 414 707 q 332 729 353 707 q 310 782 310 751 q 331 834 310 812 q 384 856 353 856 z "},"Ģ":{"ha":1060,"x_min":16,"x_max":1017,"o":"m 594 -17 l 571 -72 q 608 -68 593 -68 q 684 -94 659 -68 q 709 -154 709 -119 q 668 -235 709 -201 q 555 -269 626 -269 q 424 -240 488 -269 l 445 -199 q 551 -221 510 -221 q 622 -163 622 -221 q 559 -110 622 -110 q 523 -117 541 -110 l 511 -108 l 552 -18 q 162 118 309 -18 q 16 472 16 254 q 165 830 16 686 q 597 974 315 974 q 912 923 736 974 l 970 907 q 941 707 951 840 l 899 707 l 899 751 q 893 821 899 809 q 848 855 888 833 q 738 897 808 878 q 581 916 667 916 q 263 797 368 916 q 159 500 159 677 q 279 172 159 304 q 596 40 399 40 q 834 88 709 40 q 839 219 839 160 q 830 321 839 317 q 755 331 821 326 l 675 338 l 675 381 q 909 374 825 374 q 1017 381 976 374 l 1017 347 l 970 316 q 966 195 966 267 q 970 60 966 119 q 594 -17 805 -7 z "},"ģ":{"ha":772,"x_min":57,"x_max":768,"o":"m 607 525 q 623 454 623 481 q 586 337 623 393 q 481 247 549 281 q 335 213 414 213 l 303 214 q 247 164 258 180 q 235 132 235 148 q 261 92 235 106 q 369 77 288 77 q 458 79 400 77 q 579 82 542 82 q 661 65 633 82 q 710 4 690 47 q 730 -93 730 -39 q 684 -238 730 -169 q 550 -350 638 -308 q 347 -392 462 -392 q 132 -331 208 -392 q 57 -182 57 -271 q 96 -71 57 -127 q 215 -3 167 -37 q 143 30 159 15 q 127 69 127 45 q 143 125 127 98 q 188 167 152 142 l 254 214 q 136 271 172 234 q 89 399 89 321 q 124 524 89 468 q 228 613 159 581 q 397 654 315 654 q 487 641 448 654 q 567 595 526 627 l 624 595 q 761 600 712 595 l 768 586 q 732 525 748 557 l 607 525 m 504 418 q 460 554 504 503 q 351 606 417 606 q 247 564 286 606 q 207 447 207 522 q 250 306 207 357 q 358 254 293 254 q 464 297 423 254 q 504 418 504 340 m 319 -14 q 254 -25 271 -14 q 184 -84 197 -62 q 164 -173 164 -119 q 219 -295 164 -247 q 372 -343 274 -343 q 504 -315 447 -343 q 592 -239 561 -288 q 624 -139 624 -191 q 602 -62 624 -95 q 549 -19 580 -28 q 478 -14 534 -14 l 319 -14 m 323 730 l 309 744 q 459 972 359 859 l 501 991 l 516 977 q 425 759 436 869 q 323 730 368 747 z "},"Ĥ":{"ha":1156,"x_min":31,"x_max":1128,"o":"m 297 474 l 297 285 q 300 170 297 236 q 307 68 304 78 q 327 48 310 58 q 382 38 344 38 l 428 38 l 428 -5 q 258 0 340 0 q 31 -5 178 0 l 31 38 l 73 38 q 157 62 144 38 q 170 283 170 86 l 170 692 q 156 893 170 869 q 81 918 143 918 l 31 918 l 31 960 q 239 956 142 956 q 428 960 336 956 l 428 918 l 399 918 q 321 907 336 918 q 302 874 306 897 q 297 693 297 837 l 297 538 q 604 533 418 533 q 861 538 762 533 l 861 671 q 853 865 861 787 q 835 905 850 893 q 771 918 819 918 l 722 918 l 722 960 q 919 956 826 956 q 1128 960 1019 956 l 1128 918 l 1076 918 q 1009 906 1024 918 q 992 864 995 895 q 989 669 989 833 l 989 294 q 1001 62 989 86 q 1075 38 1013 38 l 1128 38 l 1128 -5 q 935 0 1034 0 q 722 -5 821 0 l 722 38 l 769 38 q 836 50 821 38 q 854 94 850 62 q 861 298 861 164 l 861 474 q 617 479 766 479 q 297 474 406 479 m 372 1024 l 547 1257 l 612 1257 l 787 1024 l 744 1024 l 578 1171 l 415 1024 l 372 1024 z "},"ĥ":{"ha":808,"x_min":21,"x_max":802,"o":"m 246 522 l 335 600 q 396 640 366 629 q 469 651 427 651 q 600 621 545 651 q 676 544 655 591 q 698 383 698 496 l 694 182 q 699 75 694 115 q 710 51 701 59 q 750 40 720 43 l 802 35 l 802 -5 q 673 0 736 0 q 567 -5 620 0 q 579 330 579 165 q 565 480 579 441 q 515 543 551 519 q 425 566 479 566 q 322 539 368 566 q 258 477 276 512 q 246 357 246 452 l 246 239 q 254 61 246 78 q 308 40 261 44 l 367 35 l 367 -5 q 197 0 261 0 q 21 -5 130 0 l 21 35 l 64 40 q 114 51 104 45 q 127 81 124 58 q 132 245 132 117 l 132 703 q 123 905 132 884 q 68 920 117 920 l 21 920 l 21 962 q 189 992 126 972 l 245 1011 q 256 997 256 1011 l 254 969 l 250 847 q 246 704 246 755 l 246 522 m 192 1053 l 366 1286 l 431 1286 l 606 1053 l 564 1053 l 397 1200 l 235 1053 l 192 1053 z "},"Ħ":{"ha":1156,"x_min":31,"x_max":1128,"o":"m 169 726 l 39 726 l 39 781 l 168 781 q 153 899 165 881 q 81 918 140 918 l 31 918 l 31 960 q 239 956 134 956 q 428 960 342 956 l 428 918 l 399 918 q 312 899 326 918 q 298 781 298 881 l 859 781 q 844 898 855 878 q 770 918 832 918 l 722 918 l 722 960 q 919 956 818 956 q 1128 960 1025 956 l 1128 918 l 1076 918 q 1002 899 1015 918 q 989 781 989 880 l 1120 781 l 1120 726 l 989 726 l 989 294 q 999 66 989 94 q 1076 38 1009 38 l 1128 38 l 1128 -5 q 935 0 1044 0 q 722 -5 814 0 l 722 38 l 770 38 q 848 64 835 38 q 861 298 861 90 l 861 474 q 617 479 785 479 q 297 474 390 479 l 297 284 q 300 170 297 235 l 304 95 q 329 47 304 56 q 382 38 353 38 l 428 38 l 428 -5 q 258 0 347 0 q 31 -5 172 0 l 31 38 l 73 38 q 159 66 149 38 q 170 284 170 94 l 169 726 m 298 726 l 297 538 q 601 531 457 531 q 861 538 722 531 q 861 726 861 715 l 298 726 z "}}}
